<svg height="1140" width="1200" xmlns="http://www.w3.org/2000/svg" xmlns:svg="http://www.w3.org/2000/svg" xmlns:xlink="http://www.w3.org/1999/xlink">
    <style type="text/css"><![CDATA[
	polyline { fill: none; stroke: black; stroke-width: 1 }
	path { fill: none; stroke: black; stroke-width: 1 }
	line { fill: none; stroke: black; stroke-width: 1 }
	circle.node_circle  {}
	circle.taxon_circle {}
	text.node_text      {}
	text.taxon_text     {}
	line.scale_bar      {}
	text.scale_label    {}
	line.scale_major    {}
	line.scale_minor    {}
]]></style>
    <polyline points="250,95 250,104 850,104" style="stroke: #0000FE; stroke-width: 1" />
    <text class="taxon_text" style="font-family: Verdana; font-style: Italic" transform="rotate( 850 104.736842105263)" x="856" y="112">Thamnophis elegans</text>
    <polyline points="250,95 250,86 850,86" style="stroke: #0000FF; stroke-width: 1" />
    <text class="taxon_text" style="font-family: Verdana; font-style: Italic; fill: red" transform="rotate( 850 86.4912280701754)" x="856" y="94">Lachesis muta</text>
    <polyline points="650,168 650,177 850,177" style="stroke: #0100FD; stroke-width: 1" />
    <text class="taxon_text" style="font-family: Verdana; font-style: Italic; fill: red" transform="rotate( 850 177.719298245614)" x="856" y="185">Ophiophagus hannah</text>
    <polyline points="650,168 650,159 850,159" style="stroke: #FE0000; stroke-width: 1" />
    <text class="taxon_text" style="font-family: Verdana; font-style: Italic; fill: red" transform="rotate( 850 159.473684210526)" x="856" y="167">Ophiophagus hannah</text>
    <polyline points="583,154 583,168 650,168" style="stroke: #FE0000; stroke-width: 1" />
    <polyline points="583,154 583,141 850,141" style="stroke: #FE0000; stroke-width: 1" />
    <text class="taxon_text" style="font-family: Verdana; font-style: Italic; fill: red" transform="rotate( 850 141.228070175439)" x="856" y="149">Ophiophagus hannah</text>
    <polyline points="583,205 583,214 850,214" style="stroke: #0000FE; stroke-width: 1" />
    <text class="taxon_text" style="font-family: Verdana; font-style: Italic; fill: red" transform="rotate( 850 214.210526315789)" x="856" y="222">Ophiophagus hannah</text>
    <polyline points="583,205 583,195 850,195" style="stroke: #0000FE; stroke-width: 1" />
    <text class="taxon_text" style="font-family: Verdana; font-style: Italic; fill: red" transform="rotate( 850 195.964912280702)" x="856" y="203">Ophiophagus hannah</text>
    <polyline points="516,180 516,205 583,205" style="stroke: #FE0000; stroke-width: 1" />
    <polyline points="516,180 516,154 583,154" style="stroke: #0000FE; stroke-width: 1" />
    <polyline points="516,241 516,250 850,250" style="stroke: #5B00A3; stroke-width: 1" />
    <text class="taxon_text" style="font-family: Verdana; font-style: Italic; fill: red" transform="rotate( 850 250.701754385965)" x="856" y="258">Ophiophagus hannah</text>
    <polyline points="516,241 516,232 850,232" style="stroke: #2400DA; stroke-width: 1" />
    <text class="taxon_text" style="font-family: Verdana; font-style: Italic; fill: red" transform="rotate( 850 232.456140350877)" x="856" y="240">Naja sputatrix *</text>
    <polyline points="450,210 450,241 516,241" style="stroke: #0000FE; stroke-width: 1" />
    <polyline points="450,210 450,180 516,180" style="stroke: #FE0000; stroke-width: 1" />
    <text class="node_text" style="font-family: Verdana; font-style: Italic" transform="rotate( 516.666666666667 180)" x="522" y="188"> *</text>
    <polyline points="716,332 716,341 850,341" style="stroke: #0000FE; stroke-width: 1" />
    <text class="taxon_text" style="font-family: Verdana; font-style: Italic; fill: red" transform="rotate( 850 341.929824561404)" x="856" y="349">Ophiophagus hannah</text>
    <polyline points="716,332 716,323 850,323" style="stroke: #2700D7; stroke-width: 1" />
    <text class="taxon_text" style="font-family: Verdana; font-style: Italic; fill: red" transform="rotate( 850 323.684210526316)" x="856" y="331">Ophiophagus hannah</text>
    <polyline points="650,319 650,332 716,332" style="stroke: #0000FE; stroke-width: 1" />
    <polyline points="650,319 650,305 850,305" style="stroke: #FE0000; stroke-width: 1" />
    <text class="taxon_text" style="font-family: Verdana; font-style: Italic; fill: red" transform="rotate( 850 305.438596491228)" x="856" y="313">Ophiophagus hannah</text>
    <polyline points="583,303 583,319 650,319" style="stroke: #0A00F4; stroke-width: 1" />
    <polyline points="583,303 583,287 850,287" style="stroke: #0600F8; stroke-width: 1" />
    <text class="taxon_text" style="font-family: Verdana; font-style: Italic; fill: red" transform="rotate( 850 287.19298245614)" x="856" y="295">Ophiophagus hannah</text>
    <polyline points="516,286 516,303 583,303" style="stroke: #FE0000; stroke-width: 1" />
    <polyline points="516,286 516,268 850,268" style="stroke: #0000FE; stroke-width: 1" />
    <text class="taxon_text" style="font-family: Verdana; font-style: Italic; fill: red" transform="rotate( 850 268.947368421053)" x="856" y="276">Bungarus multicinctus multicinctus</text>
    <polyline points="516,369 516,378 850,378" style="stroke: #0600F8; stroke-width: 1" />
    <text class="taxon_text" style="font-family: Verdana; font-style: Italic; fill: red" transform="rotate( 850 378.421052631579)" x="856" y="386">Bungarus multicinctus **</text>
    <polyline points="516,369 516,360 850,360" style="stroke: #0100FD; stroke-width: 1" />
    <text class="taxon_text" style="font-family: Verdana; font-style: Italic; fill: red" transform="rotate( 850 360.175438596491)" x="856" y="368">Bungarus candidus *</text>
    <polyline points="450,327 450,369 516,369" style="stroke: #FE0000; stroke-width: 1" />
    <polyline points="450,327 450,286 516,286" style="stroke: #FE0000; stroke-width: 1" />
    <polyline points="383,269 383,327 450,327" style="stroke: #0200FC; stroke-width: 1" />
    <text class="node_text" style="font-family: Verdana; font-style: Italic" transform="rotate( 450 327.675438596491)" x="456" y="335"> **</text>
    <polyline points="383,269 383,210 450,210" style="stroke: #FE0000; stroke-width: 1" />
    <polyline points="716,424 716,433 850,433" style="stroke: #FE0000; stroke-width: 1" />
    <text class="taxon_text" style="font-family: Verdana; font-style: Italic; fill: red" transform="rotate( 850 433.157894736842)" x="856" y="441">Ophiophagus hannah</text>
    <polyline points="716,424 716,414 850,414" style="stroke: #0000FE; stroke-width: 1" />
    <text class="taxon_text" style="font-family: Verdana; font-style: Italic; fill: red" transform="rotate( 850 414.912280701754)" x="856" y="422">Liophis poecilogyrus</text>
    <polyline points="650,410 650,424 716,424" style="stroke: #0000FE; stroke-width: 1" />
    <polyline points="650,410 650,396 850,396" style="stroke: #5400AA; stroke-width: 1" />
    <text class="taxon_text" style="font-family: Verdana; font-style: Italic; fill: red" transform="rotate( 850 396.666666666667)" x="856" y="404">Enhydris polylepis</text>
    <polyline points="783,478 783,487 850,487" style="stroke: #0000FE; stroke-width: 1" />
    <text class="taxon_text" style="font-family: Verdana; font-style: Italic; fill: red" transform="rotate( 850 487.894736842105)" x="856" y="495">Ophiophagus hannah</text>
    <polyline points="783,478 783,469 850,469" style="stroke: #0000FE; stroke-width: 1" />
    <text class="taxon_text" style="font-family: Verdana; font-style: Italic; fill: red" transform="rotate( 850 469.649122807018)" x="856" y="477">Leioheterodon madagascariensis</text>
    <polyline points="716,465 716,478 783,478" style="stroke: #0C00F2; stroke-width: 1" />
    <polyline points="716,465 716,451 850,451" style="stroke: #1300EB; stroke-width: 1" />
    <text class="taxon_text" style="font-family: Verdana; font-style: Italic; fill: red" transform="rotate( 850 451.40350877193)" x="856" y="459">Psammophis mossambicus</text>
    <polyline points="783,533 783,542 850,542" style="stroke: #0000FE; stroke-width: 1" />
    <text class="taxon_text" style="font-family: Verdana; font-style: Italic; fill: red" transform="rotate( 850 542.631578947368)" x="856" y="550">Dispholidus typus</text>
    <polyline points="783,533 783,524 850,524" style="stroke: #0000FE; stroke-width: 1" />
    <text class="taxon_text" style="font-family: Verdana; font-style: Italic; fill: red" transform="rotate( 850 524.385964912281)" x="856" y="532">Thrasops jacksoni</text>
    <polyline points="716,519 716,533 783,533" style="stroke: #FE0000; stroke-width: 1" />
    <polyline points="716,519 716,506 850,506" style="stroke: #0000FE; stroke-width: 1" />
    <text class="taxon_text" style="font-family: Verdana; font-style: Italic; fill: red" transform="rotate( 850 506.140350877193)" x="856" y="514">Trimorphodon biscutatus</text>
    <polyline points="650,492 650,519 716,519" style="stroke: #0500F9; stroke-width: 1" />
    <polyline points="650,492 650,465 716,465" style="stroke: #0100FD; stroke-width: 1" />
    <polyline points="583,451 583,492 650,492" style="stroke: #FE0000; stroke-width: 1" />
    <text class="node_text" style="font-family: Verdana; font-style: Italic" transform="rotate( 650 492.456140350877)" x="656" y="500"> *</text>
    <polyline points="583,451 583,410 650,410" style="stroke: #0000FE; stroke-width: 1" />
    <polyline points="716,606 716,615 850,615" style="stroke: #FE0000; stroke-width: 1" />
    <text class="taxon_text" style="font-family: Verdana; font-style: Italic; fill: red" transform="rotate( 850 615.614035087719)" x="856" y="623">Liophis poecilogyrus</text>
    <polyline points="716,606 716,597 850,597" style="stroke: #0000FE; stroke-width: 1" />
    <text class="taxon_text" style="font-family: Verdana; font-style: Italic; fill: red" transform="rotate( 850 597.368421052632)" x="856" y="605">Liophis poecilogyrus</text>
    <polyline points="650,592 650,606 716,606" style="stroke: #0000FE; stroke-width: 1" />
    <polyline points="650,592 650,579 850,579" style="stroke: #0000FE; stroke-width: 1" />
    <text class="taxon_text" style="font-family: Verdana; font-style: Italic; fill: red" transform="rotate( 850 579.122807017544)" x="856" y="587">Telescopus dhara</text>
    <polyline points="583,576 583,592 650,592" style="stroke: #0100FD; stroke-width: 1" />
    <polyline points="583,576 583,560 850,560" style="stroke: #0000FE; stroke-width: 1" />
    <text class="taxon_text" style="font-family: Verdana; font-style: Italic; fill: red" transform="rotate( 850 560.877192982456)" x="856" y="568">Dispholidus typus</text>
    <polyline points="516,514 516,576 583,576" style="stroke: #FE0000; stroke-width: 1" />
    <text class="node_text" style="font-family: Verdana; font-style: Italic" transform="rotate( 583.333333333333 576.842105263158)" x="589" y="584"> *</text>
    <polyline points="516,514 516,451 583,451" style="stroke: #0000FE; stroke-width: 1" />
    <polyline points="716,661 716,670 850,670" style="stroke: #0000FE; stroke-width: 1" />
    <text class="taxon_text" style="font-family: Verdana; font-style: Italic; fill: red" transform="rotate( 850 670.350877192982)" x="856" y="678">Dispholidus typus</text>
    <polyline points="716,661 716,652 850,652" style="stroke: #0000FE; stroke-width: 1" />
    <text class="taxon_text" style="font-family: Verdana; font-style: Italic; fill: red" transform="rotate( 850 652.105263157895)" x="856" y="660">Thrasops jacksoni</text>
    <polyline points="650,647 650,661 716,661" style="stroke: #0000FE; stroke-width: 1" />
    <polyline points="650,647 650,633 850,633" style="stroke: #0000FE; stroke-width: 1" />
    <text class="taxon_text" style="font-family: Verdana; font-style: Italic; fill: red" transform="rotate( 850 633.859649122807)" x="856" y="641">Dispholidus typus</text>
    <polyline points="783,715 783,725 850,725" style="stroke: #C70037; stroke-width: 1" />
    <text class="taxon_text" style="font-family: Verdana; font-style: Italic; fill: red" transform="rotate( 850 725.087719298246)" x="856" y="733">Telescopus dhara</text>
    <polyline points="783,715 783,706 850,706" style="stroke: #FE0000; stroke-width: 1" />
    <text class="taxon_text" style="font-family: Verdana; font-style: Italic; fill: red" transform="rotate( 850 706.842105263158)" x="856" y="714">Telescopus dhara</text>
    <polyline points="716,702 716,715 783,715" style="stroke: #0200FC; stroke-width: 1" />
    <text class="node_text" style="font-family: Verdana; font-style: Italic" transform="rotate( 783.333333333333 715.964912280702)" x="789" y="723"> **</text>
    <polyline points="716,702 716,688 850,688" style="stroke: #0000FE; stroke-width: 1" />
    <text class="taxon_text" style="font-family: Verdana; font-style: Italic; fill: red" transform="rotate( 850 688.59649122807)" x="856" y="696">Telescopus dhara *</text>
    <polyline points="716,752 716,761 850,761" style="stroke: #0000FE; stroke-width: 1" />
    <text class="taxon_text" style="font-family: Verdana; font-style: Italic; fill: red" transform="rotate( 850 761.578947368421)" x="856" y="769">Trimorphodon biscutatus</text>
    <polyline points="716,752 716,743 850,743" style="stroke: #1C00E2; stroke-width: 1" />
    <text class="taxon_text" style="font-family: Verdana; font-style: Italic; fill: red" transform="rotate( 850 743.333333333333)" x="856" y="751">Trimorphodon biscutatus **</text>
    <polyline points="650,727 650,752 716,752" style="stroke: #0C00F2; stroke-width: 1" />
    <text class="node_text" style="font-family: Verdana; font-style: Italic" transform="rotate( 716.666666666667 752.456140350877)" x="722" y="760"> *</text>
    <polyline points="650,727 650,702 716,702" style="stroke: #FE0000; stroke-width: 1" />
    <polyline points="583,687 583,727 650,727" style="stroke: #FE0000; stroke-width: 1" />
    <polyline points="583,687 583,647 650,647" style="stroke: #0000FE; stroke-width: 1" />
    <polyline points="583,788 583,798 850,798" style="stroke: #5400AA; stroke-width: 1" />
    <text class="taxon_text" style="font-family: Verdana; font-style: Italic; fill: red" transform="rotate( 850 798.070175438596)" x="856" y="806">Thrasops jacksoni **</text>
    <polyline points="583,788 583,779 850,779" style="stroke: #FE0000; stroke-width: 1" />
    <text class="taxon_text" style="font-family: Verdana; font-style: Italic; fill: red" transform="rotate( 850 779.824561403509)" x="856" y="787">Thrasops jacksoni</text>
    <polyline points="516,738 516,788 583,788" style="stroke: #D3002B; stroke-width: 1" />
    <text class="node_text" style="font-family: Verdana; font-style: Italic" transform="rotate( 583.333333333333 788.947368421053)" x="589" y="796"> **</text>
    <polyline points="516,738 516,687 583,687" style="stroke: #0000FE; stroke-width: 1" />
    <polyline points="450,626 450,738 516,738" style="stroke: #72008C; stroke-width: 1" />
    <polyline points="450,626 450,514 516,514" style="stroke: #F50009; stroke-width: 1" />
    <polyline points="650,843 650,852 850,852" style="stroke: #F70007; stroke-width: 1" />
    <text class="taxon_text" style="font-family: Verdana; font-style: Italic; fill: red" transform="rotate( 850 852.80701754386)" x="856" y="860">Ophiophagus hannah</text>
    <polyline points="650,843 650,834 850,834" style="stroke: #0000FE; stroke-width: 1" />
    <text class="taxon_text" style="font-family: Verdana; font-style: Italic; fill: red" transform="rotate( 850 834.561403508772)" x="856" y="842">Ophiophagus hannah</text>
    <polyline points="716,898 716,907 850,907" style="stroke: #0000FE; stroke-width: 1" />
    <text class="taxon_text" style="font-family: Verdana; font-style: Italic; fill: red" transform="rotate( 850 907.543859649123)" x="856" y="915">Ophiophagus hannah</text>
    <polyline points="716,898 716,889 850,889" style="stroke: #0000FE; stroke-width: 1" />
    <text class="taxon_text" style="font-family: Verdana; font-style: Italic; fill: red" transform="rotate( 850 889.298245614035)" x="856" y="897">Ophiophagus hannah</text>
    <polyline points="650,884 650,898 716,898" style="stroke: #FE0000; stroke-width: 1" />
    <polyline points="650,884 650,871 850,871" style="stroke: #0000FE; stroke-width: 1" />
    <text class="taxon_text" style="font-family: Verdana; font-style: Italic; fill: red" transform="rotate( 850 871.052631578947)" x="856" y="879">Ophiophagus hannah</text>
    <polyline points="583,864 583,884 650,884" style="stroke: #FE0000; stroke-width: 1" />
    <text class="node_text" style="font-family: Verdana; font-style: Italic" transform="rotate( 650 884.736842105263)" x="656" y="892"> *</text>
    <polyline points="583,864 583,843 650,843" style="stroke: #FE0000; stroke-width: 1" />
    <polyline points="516,840 516,864 583,864" style="stroke: #FE0000; stroke-width: 1" />
    <polyline points="516,840 516,816 850,816" style="stroke: #0000FE; stroke-width: 1" />
    <text class="taxon_text" style="font-family: Verdana; font-style: Italic; fill: red" transform="rotate( 850 816.315789473684)" x="856" y="824">Ophiophagus hannah</text>
    <polyline points="516,934 516,944 850,944" style="stroke: #0000FE; stroke-width: 1" />
    <text class="taxon_text" style="font-family: Verdana; font-style: Italic; fill: red" transform="rotate( 850 944.035087719298)" x="856" y="952">Ophiophagus hannah</text>
    <polyline points="516,934 516,925 850,925" style="stroke: #FE0000; stroke-width: 1" />
    <text class="taxon_text" style="font-family: Verdana; font-style: Italic; fill: red" transform="rotate( 850 925.789473684211)" x="856" y="933">Ophiophagus hannah</text>
    <polyline points="450,887 450,934 516,934" style="stroke: #FE0000; stroke-width: 1" />
    <polyline points="450,887 450,840 516,840" style="stroke: #0000FE; stroke-width: 1" />
    <polyline points="383,756 383,887 450,887" style="stroke: #FE0000; stroke-width: 1" />
    <polyline points="383,756 383,626 450,626" style="stroke: #FE0000; stroke-width: 1" />
    <polyline points="316,513 316,756 383,756" style="stroke: #FE0000; stroke-width: 1" />
    <polyline points="316,513 316,269 383,269" style="stroke: #0000FE; stroke-width: 1" />
    <polyline points="250,318 250,513 316,513" style="stroke: #0000FE; stroke-width: 1" />
    <polyline points="250,318 250,122 850,122" style="stroke: #0000FE; stroke-width: 1" />
    <text class="taxon_text" style="font-family: Verdana; font-style: Italic" transform="rotate( 850 122.982456140351)" x="856" y="130">Thamnophis elegans</text>
    <polyline points="183,206 183,318 250,318" style="stroke: #1800E6; stroke-width: 1" />
    <polyline points="183,206 183,95 250,95" style="stroke: #1300EB; stroke-width: 1" />
    <polyline points="116,137 116,206 183,206" style="stroke: #FE0000; stroke-width: 1" />
    <polyline points="116,137 116,68 850,68" style="stroke: #0000FE; stroke-width: 1" />
    <text class="taxon_text" style="font-family: Verdana; font-style: Italic" transform="rotate( 850 68.2456140350877)" x="856" y="76">Schistosoma mansoni</text>
    <polyline points="383,1026 383,1035 850,1035" style="stroke: #0000FE; stroke-width: 1" />
    <text class="taxon_text" style="font-family: Verdana; font-style: Italic; fill: red" transform="rotate( 850 1035.26315789474)" x="856" y="1043">Ophiophagus hannah</text>
    <polyline points="383,1026 383,1017 850,1017" style="stroke: #0000FE; stroke-width: 1" />
    <text class="taxon_text" style="font-family: Verdana; font-style: Italic" transform="rotate( 850 1017.01754385965)" x="856" y="1025">Bos taurus</text>
    <polyline points="316,1012 316,1026 383,1026" style="stroke: #0000FE; stroke-width: 1" />
    <polyline points="316,1012 316,998 850,998" style="stroke: #0000FE; stroke-width: 1" />
    <text class="taxon_text" style="font-family: Verdana; font-style: Italic" transform="rotate( 850 998.771929824561)" x="856" y="1006">Equus caballus</text>
    <polyline points="250,996 250,1012 316,1012" style="stroke: #0000FE; stroke-width: 1" />
    <polyline points="250,996 250,980 850,980" style="stroke: #0000FE; stroke-width: 1" />
    <text class="taxon_text" style="font-family: Verdana; font-style: Italic" transform="rotate( 850 980.526315789474)" x="856" y="988">Mus musculus</text>
    <polyline points="183,979 183,996 250,996" style="stroke: #0000FE; stroke-width: 1" />
    <polyline points="183,979 183,962 850,962" style="stroke: #0000FE; stroke-width: 1" />
    <text class="taxon_text" style="font-family: Verdana; font-style: Italic" transform="rotate( 850 962.280701754386)" x="856" y="970">Callithrix jacchus</text>
    <polyline points="183,1062 183,1071 850,1071" style="stroke: #0000FE; stroke-width: 1" />
    <text class="taxon_text" style="font-family: Verdana; font-style: Italic" transform="rotate( 850 1071.75438596491)" x="856" y="1079">Pan troglodytes</text>
    <polyline points="183,1062 183,1053 850,1053" style="stroke: #0000FE; stroke-width: 1" />
    <text class="taxon_text" style="font-family: Verdana; font-style: Italic" transform="rotate( 850 1053.50877192982)" x="856" y="1061">Pongo abelii</text>
    <polyline points="116,1021 116,1062 183,1062" style="stroke: #FE0000; stroke-width: 1" />
    <polyline points="116,1021 116,979 183,979" style="stroke: #0000FE; stroke-width: 1" />
    <polyline points="50,402 50,1021 116,1021" style="stroke: #0000FE; stroke-width: 1" />
    <polyline points="50,402 50,137 116,137" style="stroke: #0000FE; stroke-width: 1" />
    <polyline points="50,402 50,50 850,50" style="stroke: #0000FE; stroke-width: 1" />
    <text class="taxon_text" style="font-family: Verdana; font-style: Italic" transform="rotate( 850 50)" x="856" y="58">Macaca mulatta</text>
    <text class="node_text" style="font-family: Verdana; font-style: Italic" transform="rotate( 50 402.846536915205)" x="56" y="410"> **</text>
</svg>