<svg height="3100" width="1500" xmlns="http://www.w3.org/2000/svg" xmlns:svg="http://www.w3.org/2000/svg" xmlns:xlink="http://www.w3.org/1999/xlink">
    <style type="text/css"><![CDATA[
	polyline { fill: none; stroke: black; stroke-width: 1 }
	path { fill: none; stroke: black; stroke-width: 1 }
	line { fill: none; stroke: black; stroke-width: 1 }
	circle.node_circle  {}
	circle.taxon_circle {}
	text.node_text      {}
	text.taxon_text     {}
	line.scale_bar      {}
	text.scale_label    {}
	line.scale_major    {}
	line.scale_minor    {}
]]></style>
    <polyline points="745,122 745,146 815,146" style="stroke: black; stroke-width: 1" />
    <text class="taxon_text" style="" transform="rotate( 815.437572794771 146.774193548387)" x="821" y="150">Oh gene3 ex2 s11974 no hit</text>
    <polyline points="745,122 745,98 815,98" style="stroke: black; stroke-width: 1" />
    <text class="taxon_text" style="" transform="rotate( 815.692741113073 98.3870967741936)" x="821" y="102">Oh gene1 ex2 s11049 VG</text>
    <polyline points="743,243 743,291 948,291" style="stroke: black; stroke-width: 1" />
    <text class="taxon_text" style="" transform="rotate( 948.550931154483 291.935483870968)" x="954" y="295">Oh gene20 ex2 s9356 no hit</text>
    <polyline points="743,243 743,243 804,243" style="stroke: black; stroke-width: 1" />
    <text class="taxon_text" style="" transform="rotate( 804.764688416286 243.548387096774)" x="810" y="247">Oh gene17 ex2 s6050 VG</text>
    <polyline points="743,243 743,195 818,195" style="stroke: black; stroke-width: 1" />
    <text class="taxon_text" style="" transform="rotate( 818.444361376663 195.161290322581)" x="824" y="199">Oh gene2 ex2 s11580 AG</text>
    <polyline points="707,183 707,243 743,243" style="stroke: black; stroke-width: 1" />
    <text class="node_text" style="" transform="rotate( 743.775041843186 243.548387096774)" x="749" y="247">0.56</text>
    <polyline points="707,183 707,122 745,122" style="stroke: black; stroke-width: 1" />
    <text class="node_text" style="" transform="rotate( 745.021058566321 122.58064516129)" x="751" y="126">0.74</text>
    <polyline points="712,364 712,388 782,388" style="stroke: black; stroke-width: 1" />
    <text class="taxon_text" style="" transform="rotate( 782.476122431306 388.709677419355)" x="788" y="392">N sputatrix 5081371 AF098924</text>
    <polyline points="712,364 712,340 822,340" style="stroke: black; stroke-width: 1" />
    <text class="taxon_text" style="" transform="rotate( 822.949573438105 340.322580645161)" x="828" y="344">Oh gene18 ex2 s71130 no hit</text>
    <polyline points="656,273 656,364 712,364" style="stroke: black; stroke-width: 1" />
    <text class="node_text" style="" transform="rotate( 712.450645365967 364.516129032258)" x="718" y="368">0.95</text>
    <polyline points="656,273 656,183 707,183" style="stroke: black; stroke-width: 1" />
    <text class="node_text" style="" transform="rotate( 707.971944298634 183.064516129032)" x="713" y="187">0.83</text>
    <polyline points="764,461 764,485 815,485" style="stroke: black; stroke-width: 1" />
    <text class="taxon_text" style="" transform="rotate( 815.544721395963 485.483870967742)" x="821" y="489">L madagascariensis 156485229 EU0</text>
    <polyline points="764,461 764,437 863,437" style="stroke: black; stroke-width: 1" />
    <text class="taxon_text" style="" transform="rotate( 863.690895947883 437.096774193548)" x="869" y="441">Oh gene4 ex2 s13265 no hit</text>
    <polyline points="718,497 718,533 839,533" style="stroke: black; stroke-width: 1" />
    <text class="taxon_text" style="" transform="rotate( 839.951405347798 533.870967741935)" x="845" y="537">P mossambicus 156485215 EU029669</text>
    <polyline points="718,497 718,461 764,461" style="stroke: black; stroke-width: 1" />
    <text class="node_text" style="" transform="rotate( 764.27245878866 461.290322580645)" x="770" y="465">0.97</text>
    <polyline points="771,606 771,630 809,630" style="stroke: black; stroke-width: 1" />
    <text class="taxon_text" style="" transform="rotate( 809.507947112334 630.645161290323)" x="815" y="634">T jacksoni 156485811 EU036635</text>
    <polyline points="771,606 771,582 789,582" style="stroke: black; stroke-width: 1" />
    <text class="taxon_text" style="" transform="rotate( 789.235873616789 582.258064516129)" x="795" y="586">D typus 156485813 EU036636</text>
    <polyline points="744,642 744,679 842,679" style="stroke: black; stroke-width: 1" />
    <text class="taxon_text" style="" transform="rotate( 842.810726524957 679.032258064516)" x="848" y="683">T biscutatus 156485227 EU029675</text>
    <polyline points="744,642 744,606 771,606" style="stroke: black; stroke-width: 1" />
    <text class="node_text" style="" transform="rotate( 771.076947276702 606.451612903226)" x="777" y="610">0.99</text>
    <polyline points="689,570 689,642 744,642" style="stroke: black; stroke-width: 1" />
    <text class="node_text" style="" transform="rotate( 744.369329961135 642.741935483871)" x="750" y="646">0.99</text>
    <polyline points="689,570 689,497 718,497" style="stroke: black; stroke-width: 1" />
    <text class="node_text" style="" transform="rotate( 718.941420423716 497.58064516129)" x="724" y="501">0.82</text>
    <polyline points="808,751 808,775 906,775" style="stroke: black; stroke-width: 1" />
    <text class="taxon_text" style="" transform="rotate( 906.231652182827 775.806451612903)" x="912" y="779">L poecilogyrus 156485217 EU02967</text>
    <polyline points="808,751 808,727 876,727" style="stroke: black; stroke-width: 1" />
    <text class="taxon_text" style="" transform="rotate( 876.321175391435 727.41935483871)" x="882" y="731">Oh gene19 ex2 s8569 no hit</text>
    <polyline points="1066,848 1066,872 1300,872" style="stroke: black; stroke-width: 1" />
    <text class="taxon_text" style="" transform="rotate( 1300 872.58064516129)" x="1306" y="876">T elegans contig74768</text>
    <polyline points="1066,848 1066,824 1190,824" style="stroke: black; stroke-width: 1" />
    <text class="taxon_text" style="" transform="rotate( 1190.26491994563 824.193548387097)" x="1196" y="828">T elegans contig16650</text>
    <polyline points="798,884 798,920 1105,920" style="stroke: black; stroke-width: 1" />
    <text class="taxon_text" style="" transform="rotate( 1105.12541467613 920.967741935484)" x="1111" y="924">E polylepis 156485213 EU029668</text>
    <polyline points="798,884 798,848 1066,848" style="stroke: black; stroke-width: 1" />
    <text class="node_text" style="" transform="rotate( 1066.14375940036 848.387096774194)" x="1072" y="852">1.00</text>
    <polyline points="714,818 714,884 798,884" style="stroke: black; stroke-width: 1" />
    <text class="node_text" style="" transform="rotate( 798.224757556959 884.677419354839)" x="804" y="888">0.63</text>
    <polyline points="714,818 714,751 808,751" style="stroke: black; stroke-width: 1" />
    <text class="node_text" style="" transform="rotate( 808.555208261533 751.612903225806)" x="814" y="755">0.95</text>
    <polyline points="783,993 783,1017 879,1017" style="stroke: black; stroke-width: 1" />
    <text class="taxon_text" style="" transform="rotate( 879.403078456636 1017.74193548387)" x="885" y="1021">L poecilogyrus 156485223 EU02967</text>
    <polyline points="783,993 783,969 932,969" style="stroke: black; stroke-width: 1" />
    <text class="taxon_text" style="" transform="rotate( 932.435560610318 969.354838709677)" x="938" y="973">L poecilogyrus 156485221 EU02967</text>
    <polyline points="763,1090 763,1114 811,1114" style="stroke: black; stroke-width: 1" />
    <text class="taxon_text" style="" transform="rotate( 811.359298200964 1114.51612903226)" x="817" y="1118">D typus 156485225 EU029674</text>
    <polyline points="763,1090 763,1066 826,1066" style="stroke: black; stroke-width: 1" />
    <text class="taxon_text" style="" transform="rotate( 826.03865656421 1066.12903225806)" x="832" y="1070">T dhara 156485219 EU029671</text>
    <polyline points="730,1041 730,1090 763,1090" style="stroke: black; stroke-width: 1" />
    <text class="node_text" style="" transform="rotate( 763.117021295398 1090.32258064516)" x="769" y="1094">0.59</text>
    <polyline points="730,1041 730,993 783,993" style="stroke: black; stroke-width: 1" />
    <text class="node_text" style="" transform="rotate( 783.176454525692 993.548387096774)" x="789" y="997">0.98</text>
    <polyline points="898,1187 898,1211 909,1211" style="stroke: black; stroke-width: 1" />
    <text class="taxon_text" style="" transform="rotate( 909.782468456336 1211.29032258065)" x="915" y="1215">T jacksoni 156485241 EU029682</text>
    <polyline points="898,1187 898,1162 917,1162" style="stroke: black; stroke-width: 1" />
    <text class="taxon_text" style="" transform="rotate( 917.969947137078 1162.90322580645)" x="923" y="1166">D typus 156485239 EU029681</text>
    <polyline points="865,1223 865,1259 901,1259" style="stroke: black; stroke-width: 1" />
    <text class="taxon_text" style="" transform="rotate( 901.78222367149 1259.67741935484)" x="907" y="1263">D typus 156485243 EU029683</text>
    <polyline points="865,1223 865,1187 898,1187" style="stroke: black; stroke-width: 1" />
    <text class="node_text" style="" transform="rotate( 898.541806954011 1187.09677419355)" x="904" y="1191">1.00</text>
    <polyline points="976,1332 976,1356 1077,1356" style="stroke: black; stroke-width: 1" />
    <text class="taxon_text" style="" transform="rotate( 1077.56281780054 1356.45161290323)" x="1083" y="1360">T biscutatus 156485233 EU029678</text>
    <polyline points="976,1332 976,1308 991,1308" style="stroke: black; stroke-width: 1" />
    <text class="taxon_text" style="" transform="rotate( 991.863267780482 1308.06451612903)" x="997" y="1312">T biscutatus 156485231 EU029677</text>
    <polyline points="1047,1477 1047,1501 1050,1501" style="stroke: black; stroke-width: 1" />
    <text class="taxon_text" style="" transform="rotate( 1050.94743665198 1501.61290322581)" x="1056" y="1505">T dhara 156485237 EU029680</text>
    <polyline points="1047,1477 1047,1453 1051,1453" style="stroke: black; stroke-width: 1" />
    <text class="taxon_text" style="" transform="rotate( 1051.31638132 1453.22580645161)" x="1057" y="1457">T dhara 156485235 EU029679</text>
    <polyline points="924,1441 924,1477 1047,1477" style="stroke: black; stroke-width: 1" />
    <text class="node_text" style="" transform="rotate( 1047.36734782248 1477.41935483871)" x="1053" y="1481">1.00</text>
    <polyline points="924,1441 924,1404 986,1404" style="stroke: black; stroke-width: 1" />
    <text class="taxon_text" style="" transform="rotate( 986.698594740572 1404.83870967742)" x="992" y="1408">T dhara 156485249 EU029686</text>
    <polyline points="898,1386 898,1441 924,1441" style="stroke: black; stroke-width: 1" />
    <text class="node_text" style="" transform="rotate( 924.049249473757 1441.12903225806)" x="930" y="1445">0.79</text>
    <polyline points="898,1386 898,1332 976,1332" style="stroke: black; stroke-width: 1" />
    <text class="node_text" style="" transform="rotate( 976.111871092942 1332.25806451613)" x="982" y="1336">1.00</text>
    <polyline points="834,1305 834,1386 898,1386" style="stroke: black; stroke-width: 1" />
    <text class="node_text" style="" transform="rotate( 898.909094684899 1386.6935483871)" x="904" y="1390">1.00</text>
    <polyline points="834,1305 834,1223 865,1223" style="stroke: black; stroke-width: 1" />
    <text class="node_text" style="" transform="rotate( 865.524020728063 1223.38709677419)" x="871" y="1227">0.98</text>
    <polyline points="915,1574 915,1598 950,1598" style="stroke: black; stroke-width: 1" />
    <text class="taxon_text" style="" transform="rotate( 950.097405810856 1598.38709677419)" x="956" y="1602">T jacksoni 156485247 EU029685</text>
    <polyline points="915,1574 915,1550 971,1550" style="stroke: black; stroke-width: 1" />
    <text class="taxon_text" style="" transform="rotate( 971.578491100259 1550)" x="977" y="1554">T jacksoni 156485245 EU029684</text>
    <polyline points="802,1439 802,1574 915,1574" style="stroke: black; stroke-width: 1" />
    <text class="node_text" style="" transform="rotate( 915.781133185932 1574.1935483871)" x="921" y="1578">1.00</text>
    <polyline points="802,1439 802,1305 834,1305" style="stroke: black; stroke-width: 1" />
    <text class="node_text" style="" transform="rotate( 834.681240643828 1305.04032258065)" x="840" y="1309">0.74</text>
    <polyline points="650,967 650,1439 802,1439" style="stroke: black; stroke-width: 1" />
    <text class="node_text" style="" transform="rotate( 802.483085985758 1439.61693548387)" x="808" y="1443">1.00</text>
    <polyline points="650,967 650,1041 730,1041" style="stroke: black; stroke-width: 1" />
    <text class="node_text" style="" transform="rotate( 730.220743792451 1041.93548387097)" x="736" y="1045">1.00</text>
    <polyline points="650,967 650,818 714,818" style="stroke: black; stroke-width: 1" />
    <text class="node_text" style="" transform="rotate( 714.169993796427 818.145161290323)" x="720" y="822">0.69</text>
    <polyline points="650,967 650,570 689,570" style="stroke: black; stroke-width: 1" />
    <text class="node_text" style="" transform="rotate( 689.460642661845 570.161290322581)" x="695" y="574">0.94</text>
    <polyline points="774,1670 774,1695 782,1695" style="stroke: black; stroke-width: 1" />
    <text class="taxon_text" style="" transform="rotate( 782.991429879304 1695.16129032258)" x="788" y="1699">Oh gene12 ex2 s229423 VG AG</text>
    <polyline points="774,1670 774,1646 783,1646" style="stroke: black; stroke-width: 1" />
    <text class="taxon_text" style="" transform="rotate( 783.293544749674 1646.77419354839)" x="789" y="1650">Oh gene5 ex2 s133930 AG</text>
    <polyline points="806,1767 806,1791 821,1791" style="stroke: black; stroke-width: 1" />
    <text class="taxon_text" style="" transform="rotate( 821.82506543797 1791.93548387097)" x="827" y="1795">Oh gene22 ex2 s97802 AG</text>
    <polyline points="806,1767 806,1743 812,1743" style="stroke: black; stroke-width: 1" />
    <text class="taxon_text" style="" transform="rotate( 812.622988920172 1743.54838709677)" x="818" y="1747">Oh gene13 ex2 s28342 AG</text>
    <polyline points="785,1804 785,1840 802,1840" style="stroke: black; stroke-width: 1" />
    <text class="taxon_text" style="" transform="rotate( 802.449394930744 1840.32258064516)" x="808" y="1844">Oh gene16 ex2 s535735 no hit</text>
    <polyline points="785,1804 785,1767 806,1767" style="stroke: black; stroke-width: 1" />
    <text class="node_text" style="" transform="rotate( 806.505577029461 1767.74193548387)" x="812" y="1771">0.97</text>
    <polyline points="758,1737 758,1804 785,1804" style="stroke: black; stroke-width: 1" />
    <text class="node_text" style="" transform="rotate( 785.553054685111 1804.03225806452)" x="791" y="1808">0.97</text>
    <polyline points="758,1737 758,1670 774,1670" style="stroke: black; stroke-width: 1" />
    <text class="node_text" style="" transform="rotate( 774.60567105512 1670.96774193548)" x="780" y="1674">0.85</text>
    <polyline points="704,1813 704,1888 765,1888" style="stroke: black; stroke-width: 1" />
    <text class="taxon_text" style="" transform="rotate( 765.589171496086 1888.70967741935)" x="771" y="1892">Oh gene7 ex2 s146358 VG</text>
    <polyline points="704,1813 704,1737 758,1737" style="stroke: black; stroke-width: 1" />
    <text class="node_text" style="" transform="rotate( 758.311351300718 1737.5)" x="764" y="1741">1.00</text>
    <polyline points="703,1961 703,1985 810,1985" style="stroke: black; stroke-width: 1" />
    <text class="taxon_text" style="" transform="rotate( 810.071305737156 1985.48387096774)" x="816" y="1989">Oh gene11 ex2 s214531 VG</text>
    <polyline points="703,1961 703,1937 721,1937" style="stroke: black; stroke-width: 1" />
    <text class="taxon_text" style="" transform="rotate( 721.341770015359 1937.09677419355)" x="727" y="1941">Oh gene9 ex2 s16934 VG</text>
    <polyline points="672,1887 672,1961 703,1961" style="stroke: black; stroke-width: 1" />
    <text class="node_text" style="" transform="rotate( 703.565043840347 1961.29032258065)" x="709" y="1965">0.95</text>
    <polyline points="672,1887 672,1813 704,1813" style="stroke: black; stroke-width: 1" />
    <text class="node_text" style="" transform="rotate( 704.306799363029 1813.10483870968)" x="710" y="1817">0.93</text>
    <polyline points="945,2058 945,2082 976,2082" style="stroke: black; stroke-width: 1" />
    <text class="taxon_text" style="" transform="rotate( 976.660869595955 2082.25806451613)" x="982" y="2086">Oh gene15 ex2 s52738 no hit</text>
    <polyline points="945,2058 945,2033 965,2033" style="stroke: black; stroke-width: 1" />
    <text class="taxon_text" style="" transform="rotate( 965.386517038616 2033.87096774194)" x="971" y="2037">Oh gene10 ex2 s19528 no hit</text>
    <polyline points="914,2094 914,2130 947,2130" style="stroke: black; stroke-width: 1" />
    <text class="taxon_text" style="" transform="rotate( 947.364564168094 2130.64516129032)" x="953" y="2134">Oh gene23 ex2 s9982 AG</text>
    <polyline points="914,2094 914,2058 945,2058" style="stroke: black; stroke-width: 1" />
    <text class="node_text" style="" transform="rotate( 945.92358117578 2058.06451612903)" x="951" y="2062">0.88</text>
    <polyline points="791,2136 791,2179 860,2179" style="stroke: black; stroke-width: 1" />
    <text class="taxon_text" style="" transform="rotate( 860.437223733349 2179.03225806452)" x="866" y="2183">Oh gene14 ex2 s34620 VG</text>
    <polyline points="791,2136 791,2094 914,2094" style="stroke: black; stroke-width: 1" />
    <text class="node_text" style="" transform="rotate( 914.801883341021 2094.35483870968)" x="920" y="2098">1.00</text>
    <polyline points="713,2182 713,2227 879,2227" style="stroke: black; stroke-width: 1" />
    <text class="taxon_text" style="" transform="rotate( 879.029715289597 2227.41935483871)" x="885" y="2231">B multicinctus 5763973 AJ007741</text>
    <polyline points="713,2182 713,2136 791,2136" style="stroke: black; stroke-width: 1" />
    <text class="node_text" style="" transform="rotate( 791.284952536484 2136.6935483871)" x="797" y="2140">1.00</text>
    <polyline points="708,2300 708,2324 792,2324" style="stroke: black; stroke-width: 1" />
    <text class="taxon_text" style="" transform="rotate( 792.357543173154 2324.1935483871)" x="798" y="2328">B candidus 34368936 AY142323</text>
    <polyline points="708,2300 708,2275 879,2275" style="stroke: black; stroke-width: 1" />
    <text class="taxon_text" style="" transform="rotate( 879.078871091175 2275.8064516129)" x="885" y="2279">B multicinctus 4200124 AJ006135</text>
    <polyline points="675,2241 675,2300 708,2300" style="stroke: black; stroke-width: 1" />
    <text class="node_text" style="" transform="rotate( 708.543587609115 2300)" x="714" y="2304">0.85</text>
    <polyline points="675,2241 675,2182 713,2182" style="stroke: black; stroke-width: 1" />
    <text class="node_text" style="" transform="rotate( 713.950173470271 2182.0564516129)" x="719" y="2186">0.78</text>
    <polyline points="618,1342 618,2241 675,2241" style="stroke: black; stroke-width: 1" />
    <text class="node_text" style="" transform="rotate( 675.799196009919 2241.02822580645)" x="681" y="2245">0.92</text>
    <polyline points="618,1342 618,1887 672,1887" style="stroke: black; stroke-width: 1" />
    <text class="node_text" style="" transform="rotate( 672.078819836586 1887.19758064516)" x="678" y="1891">0.99</text>
    <polyline points="618,1342 618,967 650,967" style="stroke: black; stroke-width: 1" />
    <text class="node_text" style="" transform="rotate( 650.919732663135 967.464717741936)" x="656" y="971">0.71</text>
    <polyline points="618,1342 618,273 656,273" style="stroke: black; stroke-width: 1" />
    <text class="node_text" style="" transform="rotate( 656.835550536141 273.790322580645)" x="662" y="277">0.85</text>
    <polyline points="530,2045 530,2420 630,2420" style="stroke: black; stroke-width: 1" />
    <text class="taxon_text" style="" transform="rotate( 630.055027986773 2420.96774193548)" x="636" y="2424">T elegans contig80975</text>
    <polyline points="530,2045 530,2372 568,2372" style="stroke: black; stroke-width: 1" />
    <text class="taxon_text" style="" transform="rotate( 568.031452643411 2372.58064516129)" x="574" y="2376">T elegans contig75265</text>
    <polyline points="530,2045 530,1342 618,1342" style="stroke: black; stroke-width: 1" />
    <text class="node_text" style="" transform="rotate( 618.324465405804 1342.37021169355)" x="624" y="1346">0.96</text>
    <polyline points="482,2344 482,2517 735,2517" style="stroke: black; stroke-width: 1" />
    <text class="taxon_text" style="" transform="rotate( 735.61462646893 2517.74193548387)" x="741" y="2521">T elegans contig57679</text>
    <polyline points="482,2344 482,2469 526,2469" style="stroke: black; stroke-width: 1" />
    <text class="taxon_text" style="" transform="rotate( 526.902959157163 2469.35483870968)" x="532" y="2473">T elegans contig80712</text>
    <polyline points="482,2344 482,2045 530,2045" style="stroke: black; stroke-width: 1" />
    <text class="node_text" style="" transform="rotate( 530.930973324638 2045.30619959677)" x="536" y="2049">0.68</text>
    <polyline points="554,2590 554,2614 571,2614" style="stroke: black; stroke-width: 1" />
    <text class="taxon_text" style="" transform="rotate( 571.228236683086 2614.51612903226)" x="577" y="2618">L muta 88861957 DQ396474</text>
    <polyline points="554,2590 554,2566 607,2566" style="stroke: black; stroke-width: 1" />
    <text class="taxon_text" style="" transform="rotate( 607.129093518415 2566.12903225806)" x="613" y="2570">T elegans contig75493</text>
    <polyline points="283,2467 283,2590 554,2590" style="stroke: black; stroke-width: 1" />
    <text class="node_text" style="" transform="rotate( 554.409772482649 2590.32258064516)" x="560" y="2594">1.00</text>
    <polyline points="283,2467 283,2344 482,2344" style="stroke: black; stroke-width: 1" />
    <text class="node_text" style="" transform="rotate( 482.314228627278 2344.13432459677)" x="488" y="2348">0.98</text>
    <polyline points="578,2783 578,2808 588,2808" style="stroke: black; stroke-width: 1" />
    <text class="taxon_text" style="" transform="rotate( 588.755317663568 2808.06451612903)" x="594" y="2812">Pongo abelii 297683785 XM 002819</text>
    <polyline points="578,2783 578,2759 582,2759" style="stroke: black; stroke-width: 1" />
    <text class="taxon_text" style="" transform="rotate( 582.871533908445 2759.67741935484)" x="588" y="2763">Pan troglodytes 60115697 NM 0010</text>
    <polyline points="572,2820 572,2856 586,2856" style="stroke: black; stroke-width: 1" />
    <text class="taxon_text" style="" transform="rotate( 586.410199309654 2856.45161290323)" x="592" y="2860">Macaca mulatta 74136438 NM 00103</text>
    <polyline points="572,2820 572,2783 578,2783" style="stroke: black; stroke-width: 1" />
    <text class="node_text" style="" transform="rotate( 578.450825640727 2783.87096774194)" x="584" y="2787">0.98</text>
    <polyline points="557,2862 557,2904 579,2904" style="stroke: black; stroke-width: 1" />
    <text class="taxon_text" style="" transform="rotate( 579.67088368213 2904.83870967742)" x="585" y="2908">Callithrix jacchus 296227127 XM </text>
    <polyline points="557,2862 557,2820 572,2820" style="stroke: black; stroke-width: 1" />
    <text class="node_text" style="" transform="rotate( 572.134028981819 2820.16129032258)" x="578" y="2824">0.92</text>
    <polyline points="538,2939 538,3001 559,3001" style="stroke: black; stroke-width: 1" />
    <text class="taxon_text" style="" transform="rotate( 559.938419379183 3001.61290322581)" x="565" y="3005">Equus caballus 149757663 XM 0014</text>
    <polyline points="538,2939 538,2953 569,2953" style="stroke: black; stroke-width: 1" />
    <text class="taxon_text" style="" transform="rotate( 569.813212372504 2953.22580645161)" x="575" y="2957">Bos taurus 114052858 NM 00104622</text>
    <polyline points="538,2939 538,2862 557,2862" style="stroke: black; stroke-width: 1" />
    <text class="node_text" style="" transform="rotate( 557.193979176498 2862.5)" x="563" y="2866">0.89</text>
    <polyline points="483,2825 483,2939 538,2939" style="stroke: black; stroke-width: 1" />
    <text class="node_text" style="" transform="rotate( 538.774361394337 2939.11290322581)" x="544" y="2943">0.78</text>
    <polyline points="483,2825 483,2711 522,2711" style="stroke: black; stroke-width: 1" />
    <text class="taxon_text" style="" transform="rotate( 522.058074983696 2711.29032258065)" x="528" y="2715">Mus musculus 5059155 AF141377</text>
    <polyline points="257,2744 257,2825 483,2825" style="stroke: black; stroke-width: 1" />
    <text class="node_text" style="" transform="rotate( 483.707160442769 2825.20161290323)" x="489" y="2829">0.89</text>
    <polyline points="257,2744 257,2662 796,2662" style="stroke: black; stroke-width: 1" />
    <text class="taxon_text" style="" transform="rotate( 796.589912920221 2662.90322580645)" x="802" y="2666">Oh gene21 ex2 s9591 VG</text>
    <polyline points="50,1753 50,2744 257,2744" style="stroke: black; stroke-width: 1" />
    <text class="node_text" style="" transform="rotate( 257.50265551791 2744.05241935484)" x="263" y="2748">0.76</text>
    <polyline points="50,1753 50,2467 283,2467" style="stroke: black; stroke-width: 1" />
    <text class="node_text" style="" transform="rotate( 283.792172363879 2467.22845262097)" x="289" y="2471">0.98</text>
    <polyline points="50,1753 50,50 456,50" style="stroke: black; stroke-width: 1" />
    <text class="taxon_text" style="" transform="rotate( 456.918353207742 50)" x="462" y="54">Schistosoma mansoni 256074136 XM</text>
</svg>