<svg height="2400" width="1500" xmlns="http://www.w3.org/2000/svg" xmlns:svg="http://www.w3.org/2000/svg" xmlns:xlink="http://www.w3.org/1999/xlink">
    <style type="text/css"><![CDATA[
	polyline { fill: none; stroke: black; stroke-width: 1 }
	path { fill: none; stroke: black; stroke-width: 1 }
	line { fill: none; stroke: black; stroke-width: 1 }
	circle.node_circle  {}
	circle.taxon_circle {}
	text.node_text      {}
	text.taxon_text     {}
	line.scale_bar      {}
	text.scale_label    {}
	line.scale_major    {}
	line.scale_minor    {}
]]></style>
    <polyline points="733,265 733,289 969,289" style="stroke: black; stroke-width: 1" />
    <text class="taxon_text" style="" transform="rotate( 969.455264395595 289.583333333333)" x="975" y="293">Thamnophis elegans contig66504</text>
    <polyline points="733,265 733,241 859,241" style="stroke: black; stroke-width: 1" />
    <text class="taxon_text" style="" transform="rotate( 859.068397613945 241.666666666667)" x="865" y="245">Thamnophis elegans FT7MHCY04JXDKL</text>
    <polyline points="696,265 696,337 855,337" style="stroke: black; stroke-width: 1" />
    <text class="taxon_text" style="" transform="rotate( 855.208708457087 337.5)" x="861" y="341">Thamnophis elegans contig18440</text>
    <polyline points="696,265 696,265 733,265" style="stroke: black; stroke-width: 1" />
    <text class="node_text" style="" transform="rotate( 733.808802522323 265.625)" x="739" y="269">0.68</text>
    <polyline points="696,265 696,193 798,193" style="stroke: black; stroke-width: 1" />
    <text class="taxon_text" style="" transform="rotate( 798.742825580947 193.75)" x="804" y="197">Thamnophis elegans contig56006</text>
    <polyline points="661,205 661,265 696,265" style="stroke: black; stroke-width: 1" />
    <text class="node_text" style="" transform="rotate( 696.666081054931 265.625)" x="702" y="269">0.65</text>
    <polyline points="661,205 661,145 796,145" style="stroke: black; stroke-width: 1" />
    <text class="taxon_text" style="" transform="rotate( 796.834860407774 145.833333333333)" x="802" y="149">Thamnophis elegans contig09116</text>
    <polyline points="655,696 655,720 660,720" style="stroke: black; stroke-width: 1" />
    <text class="taxon_text" style="" transform="rotate( 660.934581226563 720.833333333333)" x="666" y="724">Pseudechis porphyriacus 239618540</text>
    <polyline points="655,696 655,672 661,672" style="stroke: black; stroke-width: 1" />
    <text class="taxon_text" style="" transform="rotate( 661.709679416471 672.916666666667)" x="667" y="676">Pseudechis australis 239618542 F</text>
    <polyline points="657,816 657,864 660,864" style="stroke: black; stroke-width: 1" />
    <text class="taxon_text" style="" transform="rotate( 660.700795729659 864.583333333333)" x="666" y="868">Austrelaps superbus 239618532 FJ</text>
    <polyline points="657,816 657,816 662,816" style="stroke: black; stroke-width: 1" />
    <text class="taxon_text" style="" transform="rotate( 662.775287487282 816.666666666667)" x="668" y="820">Tropidechis carinatus 239618544 </text>
    <polyline points="657,816 657,768 662,768" style="stroke: black; stroke-width: 1" />
    <text class="taxon_text" style="" transform="rotate( 662.551226170492 768.75)" x="668" y="772">Notechis scutatus 239618550 FJ41</text>
    <polyline points="655,864 655,912 658,912" style="stroke: black; stroke-width: 1" />
    <text class="taxon_text" style="" transform="rotate( 658.884805093396 912.5)" x="664" y="916">Hoplocephalus stephensii 239618546</text>
    <polyline points="655,864 655,816 657,816" style="stroke: black; stroke-width: 1" />
    <text class="node_text" style="" transform="rotate( 657.57042008134 816.666666666667)" x="663" y="820">0.72</text>
    <polyline points="652,780 652,864 655,864" style="stroke: black; stroke-width: 1" />
    <text class="node_text" style="" transform="rotate( 655.517402554801 864.583333333333)" x="661" y="868">0.72</text>
    <polyline points="652,780 652,696 655,696" style="stroke: black; stroke-width: 1" />
    <text class="node_text" style="" transform="rotate( 655.964309665868 696.875)" x="661" y="700">0.82</text>
    <polyline points="650,702 650,780 652,780" style="stroke: black; stroke-width: 1" />
    <text class="node_text" style="" transform="rotate( 652.936848257087 780.729166666667)" x="658" y="784">0.56</text>
    <polyline points="650,702 650,625 659,625" style="stroke: black; stroke-width: 1" />
    <text class="taxon_text" style="" transform="rotate( 659.017702221619 625)" x="665" y="629">Rhinoplocephalus nigrescens 239618548</text>
    <polyline points="650,1008 650,1056 656,1056" style="stroke: black; stroke-width: 1" />
    <text class="taxon_text" style="" transform="rotate( 656.031973752493 1056.25)" x="662" y="1060">Pseudonaja textilis 239618534 FJ</text>
    <polyline points="650,1008 650,1008 652,1008" style="stroke: black; stroke-width: 1" />
    <text class="taxon_text" style="" transform="rotate( 652.936037908744 1008.33333333333)" x="658" y="1012">Oxyuranus microlepidotus 239618536</text>
    <polyline points="650,1008 650,960 652,960" style="stroke: black; stroke-width: 1" />
    <text class="taxon_text" style="" transform="rotate( 652.945762088858 960.416666666667)" x="658" y="964">Oxyuranus scutellatus 239618538 </text>
    <polyline points="647,855 647,1008 650,1008" style="stroke: black; stroke-width: 1" />
    <text class="node_text" style="" transform="rotate( 650.865597892835 1008.33333333333)" x="656" y="1012">0.98</text>
    <polyline points="647,855 647,702 650,702" style="stroke: black; stroke-width: 1" />
    <text class="node_text" style="" transform="rotate( 650.546320645763 702.864583333333)" x="656" y="706">0.80</text>
    <polyline points="643,716 643,855 647,855" style="stroke: black; stroke-width: 1" />
    <text class="node_text" style="" transform="rotate( 647.996559585076 855.598958333333)" x="653" y="859">0.99</text>
    <polyline points="643,716 643,577 652,577" style="stroke: black; stroke-width: 1" />
    <text class="taxon_text" style="" transform="rotate( 652.382164816425 577.083333333333)" x="658" y="581">Micropechis ikaheka 239618552 FJ</text>
    <polyline points="633,622 633,716 643,716" style="stroke: black; stroke-width: 1" />
    <text class="node_text" style="" transform="rotate( 643.706170284008 716.341145833333)" x="649" y="720">1.00</text>
    <polyline points="633,622 633,529 647,529" style="stroke: black; stroke-width: 1" />
    <text class="taxon_text" style="" transform="rotate( 647.857990018453 529.166666666667)" x="653" y="533">Oh gene5 unknown scaffold</text>
    <polyline points="626,552 626,622 633,622" style="stroke: black; stroke-width: 1" />
    <text class="node_text" style="" transform="rotate( 633.549264155084 622.75390625)" x="639" y="626">0.99</text>
    <polyline points="626,552 626,481 633,481" style="stroke: black; stroke-width: 1" />
    <text class="taxon_text" style="" transform="rotate( 633.837342990957 481.25)" x="639" y="485">Naja kaouthia 239618554 FJ411289</text>
    <polyline points="606,492 606,552 626,552" style="stroke: black; stroke-width: 1" />
    <text class="node_text" style="" transform="rotate( 626.124852638154 552.001953125)" x="632" y="556">1.00</text>
    <polyline points="606,492 606,433 659,433" style="stroke: black; stroke-width: 1" />
    <text class="taxon_text" style="" transform="rotate( 659.576437403994 433.333333333333)" x="665" y="437">Thamnophis elegans contig75753</text>
    <polyline points="584,439 584,492 606,492" style="stroke: black; stroke-width: 1" />
    <text class="node_text" style="" transform="rotate( 606.973890252255 492.667643229167)" x="612" y="496">0.99</text>
    <polyline points="584,439 584,385 683,385" style="stroke: black; stroke-width: 1" />
    <text class="taxon_text" style="" transform="rotate( 683.140556864898 385.416666666667)" x="689" y="389">Bitis gabonica 38570037 AY430403</text>
    <polyline points="553,322 553,439 584,439" style="stroke: black; stroke-width: 1" />
    <text class="node_text" style="" transform="rotate( 584.306826406854 439.042154947917)" x="590" y="443">1.00</text>
    <polyline points="553,322 553,205 661,205" style="stroke: black; stroke-width: 1" />
    <text class="node_text" style="" transform="rotate( 661.308556986775 205.729166666667)" x="667" y="209">0.99</text>
    <polyline points="1207,1128 1207,1152 1300,1152" style="stroke: black; stroke-width: 1" />
    <text class="taxon_text" style="" transform="rotate( 1300 1152.08333333333)" x="1306" y="1156">Oh gene1 s799</text>
    <polyline points="1207,1128 1207,1104 1265,1104" style="stroke: black; stroke-width: 1" />
    <text class="taxon_text" style="" transform="rotate( 1265.81707585476 1104.16666666667)" x="1271" y="1108">A carolinensis 327278710 XM 0032</text>
    <polyline points="1129,1223 1129,1247 1176,1247" style="stroke: black; stroke-width: 1" />
    <text class="taxon_text" style="" transform="rotate( 1176.9255092148 1247.91666666667)" x="1182" y="1251">A carolinensis 327264016 XM 0032</text>
    <polyline points="1129,1223 1129,1200 1153,1200" style="stroke: black; stroke-width: 1" />
    <text class="taxon_text" style="" transform="rotate( 1153.61827017857 1200)" x="1159" y="1204">A carolinensis 327263988 XM 0032</text>
    <polyline points="1042,1176 1042,1223 1129,1223" style="stroke: black; stroke-width: 1" />
    <text class="node_text" style="" transform="rotate( 1129.59103663974 1223.95833333333)" x="1135" y="1227">0.88</text>
    <polyline points="1042,1176 1042,1128 1207,1128" style="stroke: black; stroke-width: 1" />
    <text class="node_text" style="" transform="rotate( 1207.98129910508 1128.125)" x="1213" y="1132">1.00</text>
    <polyline points="531,931 531,1295 583,1295" style="stroke: black; stroke-width: 1" />
    <text class="taxon_text" style="" transform="rotate( 583.695013408024 1295.83333333333)" x="589" y="1299">Oh gene4 s5579</text>
    <polyline points="531,931 531,1176 1042,1176" style="stroke: black; stroke-width: 1" />
    <text class="node_text" style="" transform="rotate( 1042.98343680401 1176.04166666667)" x="1048" y="1180">1.00</text>
    <polyline points="531,931 531,322 553,322" style="stroke: black; stroke-width: 1" />
    <text class="node_text" style="" transform="rotate( 553.006716491205 322.385660807292)" x="559" y="326">0.73</text>
    <polyline points="778,1367 778,1391 779,1391" style="stroke: black; stroke-width: 1" />
    <text class="taxon_text" style="" transform="rotate( 779.674113551844 1391.66666666667)" x="785" y="1395">Homo sapiens 49456710 CR541878</text>
    <polyline points="778,1367 778,1343 779,1343" style="stroke: black; stroke-width: 1" />
    <text class="taxon_text" style="" transform="rotate( 779.547294036193 1343.75)" x="785" y="1347">Homo sapiens 3252857 AF031824</text>
    <polyline points="447,1149 447,1367 778,1367" style="stroke: black; stroke-width: 1" />
    <text class="node_text" style="" transform="rotate( 778.184288123567 1367.70833333333)" x="784" y="1371">1.00</text>
    <polyline points="447,1149 447,931 531,931" style="stroke: black; stroke-width: 1" />
    <text class="node_text" style="" transform="rotate( 531.540183715694 931.420220269097)" x="537" y="935">0.74</text>
    <polyline points="396,1294 396,1439 574,1439" style="stroke: black; stroke-width: 1" />
    <text class="taxon_text" style="" transform="rotate( 574.662870778936 1439.58333333333)" x="580" y="1443">Pogona barbata 73347453 DQ139910</text>
    <polyline points="396,1294 396,1149 447,1149" style="stroke: black; stroke-width: 1" />
    <text class="node_text" style="" transform="rotate( 447.086084601015 1149.56427680122)" x="453" y="1153">0.60</text>
    <polyline points="534,1511 534,1535 535,1535" style="stroke: black; stroke-width: 1" />
    <text class="taxon_text" style="" transform="rotate( 535.795322863849 1535.41666666667)" x="541" y="1539">Homo sapiens 1488690 U62800</text>
    <polyline points="534,1511 534,1487 536,1487" style="stroke: black; stroke-width: 1" />
    <text class="taxon_text" style="" transform="rotate( 536.376747799823 1487.5)" x="542" y="1491">Homo sapiens 48145860 CR456872</text>
    <polyline points="346,1403 346,1511 534,1511" style="stroke: black; stroke-width: 1" />
    <text class="node_text" style="" transform="rotate( 534.177867571577 1511.45833333333)" x="540" y="1515">1.00</text>
    <polyline points="346,1403 346,1294 396,1294" style="stroke: black; stroke-width: 1" />
    <text class="node_text" style="" transform="rotate( 396.392312970792 1294.57380506727)" x="402" y="1298">0.75</text>
    <polyline points="367,1607 367,1631 551,1631" style="stroke: black; stroke-width: 1" />
    <text class="taxon_text" style="" transform="rotate( 551.670452073892 1631.25)" x="557" y="1635">Oh gene3 s1516</text>
    <polyline points="367,1607 367,1583 481,1583" style="stroke: black; stroke-width: 1" />
    <text class="taxon_text" style="" transform="rotate( 481.257258695281 1583.33333333333)" x="487" y="1587">A carolinensis 327270593 XM 0032</text>
    <polyline points="308,1643 308,1679 438,1679" style="stroke: black; stroke-width: 1" />
    <text class="taxon_text" style="" transform="rotate( 438.470461020138 1679.16666666667)" x="444" y="1683">Gallus gallus 211714 J05077</text>
    <polyline points="308,1643 308,1607 367,1607" style="stroke: black; stroke-width: 1" />
    <text class="node_text" style="" transform="rotate( 367.740826613655 1607.29166666667)" x="373" y="1611">0.90</text>
    <polyline points="551,1751 551,1775 552,1775" style="stroke: black; stroke-width: 1" />
    <text class="taxon_text" style="" transform="rotate( 552.945535191322 1775)" x="558" y="1779">Bos taurus 2326390 Y10811</text>
    <polyline points="551,1751 551,1727 552,1727" style="stroke: black; stroke-width: 1" />
    <text class="taxon_text" style="" transform="rotate( 552.95647489395 1727.08333333333)" x="558" y="1731">Bos taurus 28189832 AB099041</text>
    <polyline points="504,1942 504,1966 505,1966" style="stroke: black; stroke-width: 1" />
    <text class="taxon_text" style="" transform="rotate( 505.568519328267 1966.66666666667)" x="511" y="1970">Homo sapiens 49456928 CR541988</text>
    <polyline points="504,1942 504,1918 505,1918" style="stroke: black; stroke-width: 1" />
    <text class="taxon_text" style="" transform="rotate( 505.596881520265 1918.75)" x="511" y="1922">Homo sapiens 30371 X05607</text>
    <polyline points="494,1906 494,1942 504,1942" style="stroke: black; stroke-width: 1" />
    <text class="node_text" style="" transform="rotate( 504.630541121451 1942.70833333333)" x="510" y="1946">1.00</text>
    <polyline points="494,1906 494,1870 500,1870" style="stroke: black; stroke-width: 1" />
    <text class="taxon_text" style="" transform="rotate( 500.746946688479 1870.83333333333)" x="506" y="1874">Macaca mulatta 2281118 U51912</text>
    <polyline points="482,1864 482,1906 494,1906" style="stroke: black; stroke-width: 1" />
    <text class="node_text" style="" transform="rotate( 494.127211075971 1906.77083333333)" x="500" y="1910">1.00</text>
    <polyline points="482,1864 482,1822 490,1822" style="stroke: black; stroke-width: 1" />
    <text class="taxon_text" style="" transform="rotate( 490.732661867892 1822.91666666667)" x="496" y="1826">Saimiri sciureus 2281120 U52028</text>
    <polyline points="443,1807 443,1864 482,1864" style="stroke: black; stroke-width: 1" />
    <text class="node_text" style="" transform="rotate( 482.67010103099 1864.84375)" x="488" y="1868">1.00</text>
    <polyline points="443,1807 443,1751 551,1751" style="stroke: black; stroke-width: 1" />
    <text class="node_text" style="" transform="rotate( 551.960151606451 1751.04166666667)" x="557" y="1755">1.00</text>
    <polyline points="493,2110 493,2158 495,2158" style="stroke: black; stroke-width: 1" />
    <text class="taxon_text" style="" transform="rotate( 495.569631126193 2158.33333333333)" x="501" y="2162">Mus musculus 11762009 AF311741</text>
    <polyline points="493,2110 493,2110 494,2110" style="stroke: black; stroke-width: 1" />
    <text class="taxon_text" style="" transform="rotate( 494.536436989096 2110.41666666667)" x="500" y="2114">Mus musculus 12852171 AK014368</text>
    <polyline points="493,2110 493,2062 496,2062" style="stroke: black; stroke-width: 1" />
    <text class="taxon_text" style="" transform="rotate( 496.597557999062 2062.5)" x="502" y="2066">Mus musculus 192911 M59470</text>
    <polyline points="477,2062 477,2110 493,2110" style="stroke: black; stroke-width: 1" />
    <text class="node_text" style="" transform="rotate( 493.519854993026 2110.41666666667)" x="499" y="2114">1.00</text>
    <polyline points="477,2062 477,2014 496,2014" style="stroke: black; stroke-width: 1" />
    <text class="taxon_text" style="" transform="rotate( 496.172935467424 2014.58333333333)" x="502" y="2018">Rattus norvegicus 56541028 BC087</text>
    <polyline points="413,1935 413,2062 477,2062" style="stroke: black; stroke-width: 1" />
    <text class="node_text" style="" transform="rotate( 477.469285366762 2062.5)" x="483" y="2066">1.00</text>
    <polyline points="413,1935 413,1807 443,1807" style="stroke: black; stroke-width: 1" />
    <text class="node_text" style="" transform="rotate( 443.604017771912 1807.94270833333)" x="449" y="1811">0.50</text>
    <polyline points="275,1789 275,1935 413,1935" style="stroke: black; stroke-width: 1" />
    <text class="node_text" style="" transform="rotate( 413.172196105596 1935.22135416667)" x="419" y="1939">1.00</text>
    <polyline points="275,1789 275,1643 308,1643" style="stroke: black; stroke-width: 1" />
    <text class="node_text" style="" transform="rotate( 308.156723314338 1643.22916666667)" x="314" y="1647">0.54</text>
    <polyline points="201,1596 201,1789 275,1789" style="stroke: black; stroke-width: 1" />
    <text class="node_text" style="" transform="rotate( 275.346124087669 1789.22526041667)" x="281" y="1793">0.97</text>
    <polyline points="201,1596 201,1403 346,1403" style="stroke: black; stroke-width: 1" />
    <text class="node_text" style="" transform="rotate( 346.556295061445 1403.0160692003)" x="352" y="1407">1.00</text>
    <polyline points="326,2278 326,2302 333,2302" style="stroke: black; stroke-width: 1" />
    <text class="taxon_text" style="" transform="rotate( 333.118693666609 2302.08333333333)" x="339" y="2306">Oncorhynchus mykiss 1079569 U335</text>
    <polyline points="326,2278 326,2254 330,2254" style="stroke: black; stroke-width: 1" />
    <text class="taxon_text" style="" transform="rotate( 330.971675732304 2254.16666666667)" x="336" y="2258">Oncorhynchus keta 1665754 D86628</text>
    <polyline points="201,2242 201,2278 326,2278" style="stroke: black; stroke-width: 1" />
    <text class="node_text" style="" transform="rotate( 326.344991868965 2278.125)" x="332" y="2282">1.00</text>
    <polyline points="201,2242 201,2206 426,2206" style="stroke: black; stroke-width: 1" />
    <text class="taxon_text" style="" transform="rotate( 426.642616608316 2206.25)" x="432" y="2210">Cyprinus carpio 387926 L23572</text>
    <polyline points="127,1919 127,2242 201,2242" style="stroke: black; stroke-width: 1" />
    <text class="node_text" style="" transform="rotate( 201.580924788977 2242.1875)" x="207" y="2246">1.00</text>
    <polyline points="127,1919 127,1596 201,1596" style="stroke: black; stroke-width: 1" />
    <text class="node_text" style="" transform="rotate( 201.351191033787 1596.12066480848)" x="207" y="1600">0.99</text>
    <polyline points="50,689 50,1919 127,1919" style="stroke: black; stroke-width: 1" />
    <text class="node_text" style="" transform="rotate( 127.994002125706 1919.15408240424)" x="133" y="1923">1.00</text>
    <polyline points="50,689 50,97 52,97" style="stroke: black; stroke-width: 1" />
    <text class="taxon_text" style="" transform="rotate( 52.5003298117755 97.9166666666667)" x="58" y="101">Acipenser schrenckii 13249292 AF</text>
    <polyline points="50,689 50,50 52,50" style="stroke: black; stroke-width: 1" />
    <text class="taxon_text" style="" transform="rotate( 52.9837025982685 50)" x="58" y="54">Acipenser sinensis 13249290 AF33</text>
</svg>