<svg height="760" width="1200" xmlns="http://www.w3.org/2000/svg" xmlns:svg="http://www.w3.org/2000/svg" xmlns:xlink="http://www.w3.org/1999/xlink">
    <style type="text/css"><![CDATA[
	polyline { fill: none; stroke: black; stroke-width: 1 }
	path { fill: none; stroke: black; stroke-width: 1 }
	line { fill: none; stroke: black; stroke-width: 1 }
	circle.node_circle  {}
	circle.taxon_circle {}
	text.node_text      {}
	text.taxon_text     {}
	line.scale_bar      {}
	text.scale_label    {}
	line.scale_major    {}
	line.scale_minor    {}
]]></style>
    <polyline points="530,145 530,154 850,154" style="stroke: #0000FE; stroke-width: 1" />
    <text class="taxon_text" style="font-family: Verdana; font-style: Italic" transform="rotate( 850 154.210526315789)" x="856" y="162">Equus caballus</text>
    <polyline points="530,145 530,136 850,136" style="stroke: #0000FE; stroke-width: 1" />
    <text class="taxon_text" style="font-family: Verdana; font-style: Italic" transform="rotate( 850 136.842105263158)" x="856" y="144">Oryctolagus cuniculus</text>
    <polyline points="636,215 636,223 850,223" style="stroke: #0100FD; stroke-width: 1" />
    <text class="taxon_text" style="font-family: Verdana; font-style: Italic" transform="rotate( 850 223.684210526316)" x="856" y="231">Homo sapiens</text>
    <polyline points="636,215 636,206 850,206" style="stroke: #0000FE; stroke-width: 1" />
    <text class="taxon_text" style="font-family: Verdana; font-style: Italic" transform="rotate( 850 206.315789473684)" x="856" y="214">Pan troglodytes</text>
    <polyline points="583,201 583,215 636,215" style="stroke: #0000FE; stroke-width: 1" />
    <polyline points="583,201 583,188 850,188" style="stroke: #0000FE; stroke-width: 1" />
    <text class="taxon_text" style="font-family: Verdana; font-style: Italic" transform="rotate( 850 188.947368421053)" x="856" y="196">Pongo abelii</text>
    <polyline points="530,186 530,201 583,201" style="stroke: #0000FE; stroke-width: 1" />
    <polyline points="530,186 530,171 850,171" style="stroke: #0000FE; stroke-width: 1" />
    <text class="taxon_text" style="font-family: Verdana; font-style: Italic" transform="rotate( 850 171.578947368421)" x="856" y="179">Callithrix jacchus</text>
    <polyline points="476,166 476,186 530,186" style="stroke: #0000FE; stroke-width: 1" />
    <polyline points="476,166 476,145 530,145" style="stroke: #0000FE; stroke-width: 1" />
    <polyline points="423,142 423,166 476,166" style="stroke: #FE0000; stroke-width: 1" />
    <polyline points="423,142 423,119 850,119" style="stroke: #0000FE; stroke-width: 1" />
    <text class="taxon_text" style="font-family: Verdana; font-style: Italic" transform="rotate( 850 119.473684210526)" x="856" y="127">Rattus norvegicus</text>
    <polyline points="370,122 370,142 423,142" style="stroke: #1B00E3; stroke-width: 1" />
    <polyline points="370,122 370,102 850,102" style="stroke: #0000FE; stroke-width: 1" />
    <text class="taxon_text" style="font-family: Verdana; font-style: Italic" transform="rotate( 850 102.105263157895)" x="856" y="110">Monodelphis domestica</text>
    <polyline points="370,249 370,258 850,258" style="stroke: #0000FE; stroke-width: 1" />
    <text class="taxon_text" style="font-family: Verdana; font-style: Italic" transform="rotate( 850 258.421052631579)" x="856" y="266">Anolis carolinensis</text>
    <polyline points="370,249 370,241 850,241" style="stroke: #0000FE; stroke-width: 1" />
    <text class="taxon_text" style="font-family: Verdana; font-style: Italic; fill: red" transform="rotate( 850 241.052631578947)" x="856" y="249">Ophiophagus hannah</text>
    <polyline points="316,186 316,249 370,249" style="stroke: #FE0000; stroke-width: 1" />
    <polyline points="316,186 316,122 370,122" style="stroke: #0000FE; stroke-width: 1" />
    <polyline points="423,284 423,293 850,293" style="stroke: #0000FE; stroke-width: 1" />
    <text class="taxon_text" style="font-family: Verdana; font-style: Italic" transform="rotate( 850 293.157894736842)" x="856" y="301">Anolis carolinensis</text>
    <polyline points="423,284 423,275 850,275" style="stroke: #FE0000; stroke-width: 1" />
    <text class="taxon_text" style="font-family: Verdana; font-style: Italic" transform="rotate( 850 275.789473684211)" x="856" y="283">Anolis carolinensis</text>
    <polyline points="583,336 583,345 850,345" style="stroke: #0000FE; stroke-width: 1" />
    <text class="taxon_text" style="font-family: Verdana; font-style: Italic; fill: red" transform="rotate( 850 345.263157894737)" x="856" y="353">Ophiophagus hannah</text>
    <polyline points="583,336 583,327 850,327" style="stroke: #0000FE; stroke-width: 1" />
    <text class="taxon_text" style="font-family: Verdana; font-style: Italic; fill: red" transform="rotate( 850 327.894736842105)" x="856" y="335">Liophis poecilogyrus</text>
    <polyline points="530,323 530,336 583,336" style="stroke: #0000FE; stroke-width: 1" />
    <polyline points="530,323 530,310 850,310" style="stroke: #0400FA; stroke-width: 1" />
    <text class="taxon_text" style="font-family: Verdana; font-style: Italic" transform="rotate( 850 310.526315789474)" x="856" y="318">Thamnophis elegans</text>
    <polyline points="583,371 583,380 850,380" style="stroke: #B80046; stroke-width: 1" />
    <text class="taxon_text" style="font-family: Verdana; font-style: Italic; fill: red" transform="rotate( 850 380)" x="856" y="388">Bothropoides pauloensis **</text>
    <polyline points="583,371 583,362 850,362" style="stroke: #0000FE; stroke-width: 1" />
    <text class="taxon_text" style="font-family: Verdana; font-style: Italic; fill: red" transform="rotate( 850 362.631578947368)" x="856" y="370">Crotalus adamanteus</text>
    <polyline points="796,475 796,484 850,484" style="stroke: #0000FE; stroke-width: 1" />
    <text class="taxon_text" style="font-family: Verdana; font-style: Italic; fill: red" transform="rotate( 850 484.210526315789)" x="856" y="492">Echis carinatus</text>
    <polyline points="796,475 796,466 850,466" style="stroke: #0000FE; stroke-width: 1" />
    <text class="taxon_text" style="font-family: Verdana; font-style: Italic; fill: red" transform="rotate( 850 466.842105263158)" x="856" y="474">Cerastes cerastes</text>
    <polyline points="743,462 743,475 796,475" style="stroke: #EC0012; stroke-width: 1" />
    <polyline points="743,462 743,449 850,449" style="stroke: #0000FE; stroke-width: 1" />
    <text class="taxon_text" style="font-family: Verdana; font-style: Italic; fill: red" transform="rotate( 850 449.473684210526)" x="856" y="457">Cerastes cerastes</text>
    <polyline points="690,447 690,462 743,462" style="stroke: #0000FE; stroke-width: 1" />
    <polyline points="690,447 690,432 850,432" style="stroke: #0000FE; stroke-width: 1" />
    <text class="taxon_text" style="font-family: Verdana; font-style: Italic; fill: red" transform="rotate( 850 432.105263157895)" x="856" y="440">Echis pyramidum leakeyi</text>
    <polyline points="636,431 636,447 690,447" style="stroke: #0000FE; stroke-width: 1" />
    <polyline points="636,431 636,414 850,414" style="stroke: #0000FE; stroke-width: 1" />
    <text class="taxon_text" style="font-family: Verdana; font-style: Italic; fill: red" transform="rotate( 850 414.736842105263)" x="856" y="422">Echis ocellatus</text>
    <polyline points="583,414 583,431 636,431" style="stroke: #0000FE; stroke-width: 1" />
    <polyline points="583,414 583,397 850,397" style="stroke: #0000FE; stroke-width: 1" />
    <text class="taxon_text" style="font-family: Verdana; font-style: Italic; fill: red" transform="rotate( 850 397.368421052632)" x="856" y="405">Bitis arietans</text>
    <polyline points="530,392 530,414 583,414" style="stroke: #0100FD; stroke-width: 1" />
    <polyline points="530,392 530,371 583,371" style="stroke: #FE0000; stroke-width: 1" />
    <polyline points="476,358 476,392 530,392" style="stroke: #0000FE; stroke-width: 1" />
    <polyline points="476,358 476,323 530,323" style="stroke: #0000FE; stroke-width: 1" />
    <polyline points="476,510 476,518 850,518" style="stroke: #0000FE; stroke-width: 1" />
    <text class="taxon_text" style="font-family: Verdana; font-style: Italic; fill: red" transform="rotate( 850 518.947368421053)" x="856" y="526">Heloderma suspectum cinctum</text>
    <polyline points="476,510 476,501 850,501" style="stroke: #0000FE; stroke-width: 1" />
    <text class="taxon_text" style="font-family: Verdana; font-style: Italic; fill: red" transform="rotate( 850 501.578947368421)" x="856" y="509">Gerrhonotus infernalis</text>
    <polyline points="423,434 423,510 476,510" style="stroke: #0100FD; stroke-width: 1" />
    <polyline points="423,434 423,358 476,358" style="stroke: #0000FE; stroke-width: 1" />
    <polyline points="370,359 370,434 423,434" style="stroke: #0A00F4; stroke-width: 1" />
    <polyline points="370,359 370,284 423,284" style="stroke: #0000FE; stroke-width: 1" />
    <polyline points="370,545 370,553 850,553" style="stroke: #FE0000; stroke-width: 1" />
    <text class="taxon_text" style="font-family: Verdana; font-style: Italic" transform="rotate( 850 553.684210526316)" x="856" y="561">Gallus gallus</text>
    <polyline points="370,545 370,536 850,536" style="stroke: #2500D9; stroke-width: 1" />
    <text class="taxon_text" style="font-family: Verdana; font-style: Italic" transform="rotate( 850 536.315789473684)" x="856" y="544">Taeniopygia guttata</text>
    <polyline points="316,452 316,545 370,545" style="stroke: #FE0000; stroke-width: 1" />
    <polyline points="316,452 316,359 370,359" style="stroke: #0000FE; stroke-width: 1" />
    <polyline points="263,319 263,452 316,452" style="stroke: #0000FE; stroke-width: 1" />
    <polyline points="263,319 263,186 316,186" style="stroke: #0000FE; stroke-width: 1" />
    <polyline points="210,201 210,319 263,319" style="stroke: #0000FE; stroke-width: 1" />
    <polyline points="210,201 210,84 850,84" style="stroke: #0000FE; stroke-width: 1" />
    <text class="taxon_text" style="font-family: Verdana; font-style: Italic" transform="rotate( 850 84.7368421052632)" x="856" y="92">Danio rerio</text>
    <polyline points="263,597 263,605 850,605" style="stroke: #0000FE; stroke-width: 1" />
    <text class="taxon_text" style="font-family: Verdana; font-style: Italic" transform="rotate( 850 605.789473684211)" x="856" y="613">Anolis carolinensis</text>
    <polyline points="263,597 263,588 850,588" style="stroke: #0000FE; stroke-width: 1" />
    <text class="taxon_text" style="font-family: Verdana; font-style: Italic" transform="rotate( 850 588.421052631579)" x="856" y="596">Thamnophis elegans</text>
    <polyline points="210,584 210,597 263,597" style="stroke: #0000FE; stroke-width: 1" />
    <polyline points="210,584 210,571 850,571" style="stroke: #0000FE; stroke-width: 1" />
    <text class="taxon_text" style="font-family: Verdana; font-style: Italic" transform="rotate( 850 571.052631578947)" x="856" y="579">Anolis carolinensis</text>
    <polyline points="156,393 156,584 210,584" style="stroke: #0000FE; stroke-width: 1" />
    <polyline points="156,393 156,201 210,201" style="stroke: #0000FE; stroke-width: 1" />
    <polyline points="103,230 103,393 156,393" style="stroke: #0000FE; stroke-width: 1" />
    <polyline points="103,230 103,67 850,67" style="stroke: #0000FE; stroke-width: 1" />
    <text class="taxon_text" style="font-family: Verdana; font-style: Italic" transform="rotate( 850 67.3684210526316)" x="856" y="75">Anolis carolinensis</text>
    <polyline points="263,683 263,692 850,692" style="stroke: #0000FE; stroke-width: 1" />
    <text class="taxon_text" style="font-family: Verdana; font-style: Italic" transform="rotate( 850 692.631578947368)" x="856" y="700">Python molurus</text>
    <polyline points="263,683 263,675 850,675" style="stroke: #0000FE; stroke-width: 1" />
    <text class="taxon_text" style="font-family: Verdana; font-style: Italic" transform="rotate( 850 675.263157894737)" x="856" y="683">Thamnophis elegans</text>
    <polyline points="210,670 210,683 263,683" style="stroke: #0000FE; stroke-width: 1" />
    <polyline points="210,670 210,657 850,657" style="stroke: #FE0000; stroke-width: 1" />
    <text class="taxon_text" style="font-family: Verdana; font-style: Italic" transform="rotate( 850 657.894736842105)" x="856" y="665">Anolis carolinensis *</text>
    <polyline points="156,655 156,670 210,670" style="stroke: #0000FE; stroke-width: 1" />
    <polyline points="156,655 156,640 850,640" style="stroke: #0100FD; stroke-width: 1" />
    <text class="taxon_text" style="font-family: Verdana; font-style: Italic" transform="rotate( 850 640.526315789474)" x="856" y="648">Gallus gallus **</text>
    <polyline points="103,639 103,655 156,655" style="stroke: #FE0000; stroke-width: 1" />
    <polyline points="103,639 103,623 850,623" style="stroke: #0200FC; stroke-width: 1" />
    <text class="taxon_text" style="font-family: Verdana; font-style: Italic" transform="rotate( 850 623.157894736842)" x="856" y="631">Xenopus (Silurana) tropicalis</text>
    <polyline points="50,306 50,639 103,639" style="stroke: #FE0000; stroke-width: 1" />
    <text class="node_text" style="font-family: Verdana; font-style: Italic" transform="rotate( 103.333333333333 639.440789473684)" x="109" y="647"> **</text>
    <polyline points="50,306 50,230 103,230" style="stroke: #0200FC; stroke-width: 1" />
    <polyline points="50,306 50,50 850,50" style="stroke: #0000FE; stroke-width: 1" />
    <text class="taxon_text" style="font-family: Verdana; font-style: Italic" transform="rotate( 850 50)" x="856" y="58">Salmo salar</text>
    <text class="node_text" style="font-family: Verdana; font-style: Italic" transform="rotate( 50 306.542872378701)" x="56" y="314"> **</text>
</svg>