<svg height="2000" width="1500" xmlns="http://www.w3.org/2000/svg" xmlns:svg="http://www.w3.org/2000/svg" xmlns:xlink="http://www.w3.org/1999/xlink">
    <style type="text/css"><![CDATA[
	polyline { fill: none; stroke: black; stroke-width: 1 }
	path { fill: none; stroke: black; stroke-width: 1 }
	line { fill: none; stroke: black; stroke-width: 1 }
	circle.node_circle  {}
	circle.taxon_circle {}
	text.node_text      {}
	text.taxon_text     {}
	line.scale_bar      {}
	text.scale_label    {}
	line.scale_major    {}
	line.scale_minor    {}
]]></style>
    <polyline points="1216,263 1216,287 1220,287" style="stroke: black; stroke-width: 1" />
    <text class="taxon_text" style="" transform="rotate( 1220.64461519635 287.5)" x="1226" y="291">P troglodytes 332868495 XM 52787</text>
    <polyline points="1216,263 1216,240 1218,240" style="stroke: black; stroke-width: 1" />
    <text class="taxon_text" style="" transform="rotate( 1218.57102213614 240)" x="1224" y="244">H sapiens 85396870 BC104790</text>
    <polyline points="1213,299 1213,335 1221,335" style="stroke: black; stroke-width: 1" />
    <text class="taxon_text" style="" transform="rotate( 1221.31943030143 335)" x="1227" y="339">P abelii 297681389 XM 002818390</text>
    <polyline points="1213,299 1213,263 1216,263" style="stroke: black; stroke-width: 1" />
    <text class="node_text" style="" transform="rotate( 1216.44165466873 263.75)" x="1222" y="267">1.00</text>
    <polyline points="1204,245 1204,299 1213,299" style="stroke: black; stroke-width: 1" />
    <text class="node_text" style="" transform="rotate( 1213.70484316237 299.375)" x="1219" y="303">1.00</text>
    <polyline points="1204,245 1204,192 1228,192" style="stroke: black; stroke-width: 1" />
    <text class="taxon_text" style="" transform="rotate( 1228.22883013347 192.5)" x="1234" y="196">C jacchus 296210740 XM 002752058</text>
    <polyline points="1183,300 1183,430 1300,430" style="stroke: black; stroke-width: 1" />
    <text class="taxon_text" style="" transform="rotate( 1300 430)" x="1306" y="434">Rattus norvegicus 213688328 NM 0</text>
    <polyline points="1183,300 1183,382 1235,382" style="stroke: black; stroke-width: 1" />
    <text class="taxon_text" style="" transform="rotate( 1235.16031883964 382.5)" x="1241" y="386">Oryctolagus cuniculus 291391182 </text>
    <polyline points="1183,300 1183,245 1204,245" style="stroke: black; stroke-width: 1" />
    <text class="node_text" style="" transform="rotate( 1204.37339828051 245.9375)" x="1210" y="249">1.00</text>
    <polyline points="1183,300 1183,145 1217,145" style="stroke: black; stroke-width: 1" />
    <text class="taxon_text" style="" transform="rotate( 1217.76753933918 145)" x="1223" y="149">E caballus 149705827 XM 00150238</text>
    <polyline points="1119,199 1119,300 1183,300" style="stroke: black; stroke-width: 1" />
    <text class="node_text" style="" transform="rotate( 1183.39559450659 300.859375)" x="1189" y="304">1.00</text>
    <polyline points="1119,199 1119,97 1194,97" style="stroke: black; stroke-width: 1" />
    <text class="taxon_text" style="" transform="rotate( 1194.10925068796 97.5)" x="1200" y="101">M domestica 126340736 XM 0013706</text>
    <polyline points="1130,501 1130,525 1228,525" style="stroke: black; stroke-width: 1" />
    <text class="taxon_text" style="" transform="rotate( 1228.20950236859 525)" x="1234" y="529">Oh s1163 gene1 hyal4</text>
    <polyline points="1130,501 1130,477 1222,477" style="stroke: black; stroke-width: 1" />
    <text class="taxon_text" style="" transform="rotate( 1222.848532614 477.5)" x="1228" y="481">A carolinensis 327273198 XM 0032</text>
    <polyline points="1034,350 1034,501 1130,501" style="stroke: black; stroke-width: 1" />
    <text class="node_text" style="" transform="rotate( 1130.95495062474 501.25)" x="1136" y="505">1.00</text>
    <polyline points="1034,350 1034,199 1119,199" style="stroke: black; stroke-width: 1" />
    <text class="node_text" style="" transform="rotate( 1119.92984131795 199.1796875)" x="1125" y="203">1.00</text>
    <polyline points="837,596 837,620 889,620" style="stroke: black; stroke-width: 1" />
    <text class="taxon_text" style="" transform="rotate( 889.838874916449 620)" x="895" y="624">A carolinensis 327273200 XM 0032</text>
    <polyline points="837,596 837,572 924,572" style="stroke: black; stroke-width: 1" />
    <text class="taxon_text" style="" transform="rotate( 924.756967162238 572.5)" x="930" y="576">A carolinensis 327273202 XM 0032</text>
    <polyline points="1018,691 1018,715 1109,715" style="stroke: black; stroke-width: 1" />
    <text class="taxon_text" style="" transform="rotate( 1109.66127595056 715)" x="1115" y="719">Liophis poecilogyrus 156485819 E</text>
    <polyline points="1018,691 1018,667 1033,667" style="stroke: black; stroke-width: 1" />
    <text class="taxon_text" style="" transform="rotate( 1033.64186336441 667.5)" x="1039" y="671">Oh s1163 gene2</text>
    <polyline points="1003,726 1003,762 1035,762" style="stroke: black; stroke-width: 1" />
    <text class="taxon_text" style="" transform="rotate( 1035.59175872941 762.5)" x="1041" y="766">Thamnophis elegans contig23410</text>
    <polyline points="1003,726 1003,691 1018,691" style="stroke: black; stroke-width: 1" />
    <text class="node_text" style="" transform="rotate( 1018.7302166521 691.25)" x="1024" y="695">0.93</text>
    <polyline points="1030,833 1030,857 1050,857" style="stroke: black; stroke-width: 1" />
    <text class="taxon_text" style="" transform="rotate( 1050.52328542846 857.5)" x="1056" y="861">C adamanteus 338855293 HQ414098</text>
    <polyline points="1030,833 1030,810 1083,810" style="stroke: black; stroke-width: 1" />
    <text class="taxon_text" style="" transform="rotate( 1083.02430262111 810)" x="1089" y="814">B neuwiedi pauloensis 224579038 </text>
    <polyline points="1042,928 1042,952 1043,952" style="stroke: black; stroke-width: 1" />
    <text class="taxon_text" style="" transform="rotate( 1043.75525439094 952.5)" x="1049" y="956">Bitis arietans 113203680 DQ84025</text>
    <polyline points="1042,928 1042,905 1043,905" style="stroke: black; stroke-width: 1" />
    <text class="taxon_text" style="" transform="rotate( 1043.85907209941 905)" x="1049" y="909">Bitis arietans 113203684 DQ84025</text>
    <polyline points="1046,1071 1046,1095 1047,1095" style="stroke: black; stroke-width: 1" />
    <text class="taxon_text" style="" transform="rotate( 1047.46011080663 1095)" x="1053" y="1099">Cerastes cerastes 113203672 DQ84</text>
    <polyline points="1046,1071 1046,1047 1048,1047" style="stroke: black; stroke-width: 1" />
    <text class="taxon_text" style="" transform="rotate( 1048.61425448062 1047.5)" x="1054" y="1051">E car sochureki 113203692 DQ8402</text>
    <polyline points="1046,1166 1046,1190 1047,1190" style="stroke: black; stroke-width: 1" />
    <text class="taxon_text" style="" transform="rotate( 1047.24308761817 1190)" x="1053" y="1194">Cerastes cerastes 113203668 DQ84</text>
    <polyline points="1046,1166 1046,1142 1048,1142" style="stroke: black; stroke-width: 1" />
    <text class="taxon_text" style="" transform="rotate( 1048.31771134524 1142.5)" x="1054" y="1146">E pyr leakeyi 113203674 DQ840253</text>
    <polyline points="1045,1118 1045,1166 1046,1166" style="stroke: black; stroke-width: 1" />
    <text class="node_text" style="" transform="rotate( 1046.70798464205 1166.25)" x="1052" y="1170">0.58</text>
    <polyline points="1045,1118 1045,1071 1046,1071" style="stroke: black; stroke-width: 1" />
    <text class="node_text" style="" transform="rotate( 1046.87420341998 1071.25)" x="1052" y="1075">0.54</text>
    <polyline points="1032,1059 1032,1118 1045,1118" style="stroke: black; stroke-width: 1" />
    <text class="node_text" style="" transform="rotate( 1045.82332523261 1118.75)" x="1051" y="1122">1.00</text>
    <polyline points="1032,1059 1032,1000 1051,1000" style="stroke: black; stroke-width: 1" />
    <text class="taxon_text" style="" transform="rotate( 1051.97728556894 1000)" x="1057" y="1004">Echis ocellatus 113203666 DQ8402</text>
    <polyline points="1029,994 1029,1059 1032,1059" style="stroke: black; stroke-width: 1" />
    <text class="node_text" style="" transform="rotate( 1032.83120168335 1059.375)" x="1038" y="1063">0.57</text>
    <polyline points="1029,994 1029,928 1042,928" style="stroke: black; stroke-width: 1" />
    <text class="node_text" style="" transform="rotate( 1042.78279170678 928.75)" x="1048" y="932">1.00</text>
    <polyline points="1020,913 1020,994 1029,994" style="stroke: black; stroke-width: 1" />
    <text class="node_text" style="" transform="rotate( 1029.70452154836 994.0625)" x="1035" y="998">1.00</text>
    <polyline points="1020,913 1020,833 1030,833" style="stroke: black; stroke-width: 1" />
    <text class="node_text" style="" transform="rotate( 1030.24514674302 833.75)" x="1036" y="837">1.00</text>
    <polyline points="992,820 992,913 1020,913" style="stroke: black; stroke-width: 1" />
    <text class="node_text" style="" transform="rotate( 1020.50726657693 913.90625)" x="1026" y="917">1.00</text>
    <polyline points="992,820 992,726 1003,726" style="stroke: black; stroke-width: 1" />
    <text class="node_text" style="" transform="rotate( 1003.98478871771 726.875)" x="1009" y="730">0.76</text>
    <polyline points="889,1261 889,1285 913,1285" style="stroke: black; stroke-width: 1" />
    <text class="taxon_text" style="" transform="rotate( 913.087967174166 1285)" x="919" y="1289">Gerrhonotus infernalis 300872854</text>
    <polyline points="889,1261 889,1237 933,1237" style="stroke: black; stroke-width: 1" />
    <text class="taxon_text" style="" transform="rotate( 933.734437835944 1237.5)" x="939" y="1241">H suspectum cinctum 190700984 EU</text>
    <polyline points="822,1040 822,1261 889,1261" style="stroke: black; stroke-width: 1" />
    <text class="node_text" style="" transform="rotate( 889.663820588863 1261.25)" x="895" y="1265">1.00</text>
    <polyline points="822,1040 822,820 992,820" style="stroke: black; stroke-width: 1" />
    <text class="node_text" style="" transform="rotate( 992.784072861477 820.390625)" x="998" y="824">1.00</text>
    <polyline points="778,818 778,1040 822,1040" style="stroke: black; stroke-width: 1" />
    <text class="node_text" style="" transform="rotate( 822.065239048005 1040.8203125)" x="828" y="1044">0.99</text>
    <polyline points="778,818 778,596 837,596" style="stroke: black; stroke-width: 1" />
    <text class="node_text" style="" transform="rotate( 837.514197623856 596.25)" x="843" y="600">1.00</text>
    <polyline points="761,1356 761,1380 830,1380" style="stroke: black; stroke-width: 1" />
    <text class="taxon_text" style="" transform="rotate( 830.000114862145 1380)" x="836" y="1384">Taeniopygia guttata 224093516 XM</text>
    <polyline points="761,1356 761,1332 813,1332" style="stroke: black; stroke-width: 1" />
    <text class="taxon_text" style="" transform="rotate( 813.546664734626 1332.5)" x="819" y="1336">Gallus gallus 118082225 XM 00123</text>
    <polyline points="673,1087 673,1356 761,1356" style="stroke: black; stroke-width: 1" />
    <text class="node_text" style="" transform="rotate( 761.251255200273 1356.25)" x="767" y="1360">1.00</text>
    <polyline points="673,1087 673,818 778,818" style="stroke: black; stroke-width: 1" />
    <text class="node_text" style="" transform="rotate( 778.983098918838 818.53515625)" x="784" y="822">1.00</text>
    <polyline points="583,1257 583,1427 829,1427" style="stroke: black; stroke-width: 1" />
    <text class="taxon_text" style="" transform="rotate( 829.107172124901 1427.5)" x="835" y="1431">Xenopus tropicalis 148234653 NM </text>
    <polyline points="583,1257 583,1087 673,1087" style="stroke: black; stroke-width: 1" />
    <text class="node_text" style="" transform="rotate( 673.480561569865 1087.392578125)" x="679" y="1091">1.00</text>
    <polyline points="494,1366 494,1475 749,1475" style="stroke: black; stroke-width: 1" />
    <text class="taxon_text" style="" transform="rotate( 749.915244989912 1475)" x="755" y="1479">Danio rerio 123703072 NM 0010806</text>
    <polyline points="494,1366 494,1257 583,1257" style="stroke: black; stroke-width: 1" />
    <text class="node_text" style="" transform="rotate( 583.750584802943 1257.4462890625)" x="589" y="1261">0.72</text>
    <polyline points="386,858 386,1366 494,1366" style="stroke: black; stroke-width: 1" />
    <text class="node_text" style="" transform="rotate( 494.873790799807 1366.22314453125)" x="500" y="1370">0.61</text>
    <polyline points="386,858 386,350 1034,350" style="stroke: black; stroke-width: 1" />
    <text class="node_text" style="" transform="rotate( 1034.38515397933 350.21484375)" x="1040" y="354">1.00</text>
    <polyline points="724,1546 724,1570 908,1570" style="stroke: black; stroke-width: 1" />
    <text class="taxon_text" style="" transform="rotate( 908.701668991153 1570)" x="914" y="1574">Thamnophis elegans contig09079</text>
    <polyline points="724,1546 724,1522 877,1522" style="stroke: black; stroke-width: 1" />
    <text class="taxon_text" style="" transform="rotate( 877.72809744551 1522.5)" x="883" y="1526">A carolinensis 327265744 XM 0032</text>
    <polyline points="404,1581 404,1617 1178,1617" style="stroke: black; stroke-width: 1" />
    <text class="taxon_text" style="" transform="rotate( 1178.90823972437 1617.5)" x="1184" y="1621">A carolinensis 327265740 XM 0032</text>
    <polyline points="404,1581 404,1546 724,1546" style="stroke: black; stroke-width: 1" />
    <text class="node_text" style="" transform="rotate( 724.968070532426 1546.25)" x="730" y="1550">1.00</text>
    <polyline points="280,1220 280,1581 404,1581" style="stroke: black; stroke-width: 1" />
    <text class="node_text" style="" transform="rotate( 404.100114729612 1581.875)" x="410" y="1585">1.00</text>
    <polyline points="280,1220 280,858 386,858" style="stroke: black; stroke-width: 1" />
    <text class="node_text" style="" transform="rotate( 386.463805391717 858.218994140625)" x="392" y="862">0.54</text>
    <polyline points="181,1442 181,1665 755,1665" style="stroke: black; stroke-width: 1" />
    <text class="taxon_text" style="" transform="rotate( 755.296094731229 1665)" x="761" y="1669">A carolinensis 327265868 XM 0032</text>
    <polyline points="181,1442 181,1220 280,1220" style="stroke: black; stroke-width: 1" />
    <text class="node_text" style="" transform="rotate( 280.245036298647 1220.04699707031)" x="286" y="1224">1.00</text>
    <polyline points="500,1736 500,1760 558,1760" style="stroke: black; stroke-width: 1" />
    <text class="taxon_text" style="" transform="rotate( 558.706219299226 1760)" x="564" y="1764">Thamnophis elegans contig26789</text>
    <polyline points="500,1736 500,1712 513,1712" style="stroke: black; stroke-width: 1" />
    <text class="taxon_text" style="" transform="rotate( 513.781867066505 1712.5)" x="519" y="1716">Python molurus contig04514</text>
    <polyline points="391,1771 391,1807 516,1807" style="stroke: black; stroke-width: 1" />
    <text class="taxon_text" style="" transform="rotate( 516.591571857537 1807.5)" x="522" y="1811">A carolinensis 327265746 XM 0032</text>
    <polyline points="391,1771 391,1736 500,1736" style="stroke: black; stroke-width: 1" />
    <text class="node_text" style="" transform="rotate( 500.993513381219 1736.25)" x="506" y="1740">1.00</text>
    <polyline points="286,1813 286,1855 546,1855" style="stroke: black; stroke-width: 1" />
    <text class="taxon_text" style="" transform="rotate( 546.029414428364 1855)" x="552" y="1859">Gallus gallus 118112382 XM 41425</text>
    <polyline points="286,1813 286,1771 391,1771" style="stroke: black; stroke-width: 1" />
    <text class="node_text" style="" transform="rotate( 391.861774010496 1771.875)" x="397" y="1775">1.00</text>
    <polyline points="199,1857 199,1902 494,1902" style="stroke: black; stroke-width: 1" />
    <text class="taxon_text" style="" transform="rotate( 494.821329723717 1902.5)" x="500" y="1906">Xenopus tropicalis 187607883 NM </text>
    <polyline points="199,1857 199,1813 286,1813" style="stroke: black; stroke-width: 1" />
    <text class="node_text" style="" transform="rotate( 286.039500208298 1813.4375)" x="292" y="1817">1.00</text>
    <polyline points="50,1116 50,1857 199,1857" style="stroke: black; stroke-width: 1" />
    <text class="node_text" style="" transform="rotate( 199.016514967642 1857.96875)" x="205" y="1861">1.00</text>
    <polyline points="50,1116 50,1442 181,1442" style="stroke: black; stroke-width: 1" />
    <text class="node_text" style="" transform="rotate( 181.524887755386 1442.52349853516)" x="187" y="1446">1.00</text>
    <polyline points="50,1116 50,50 478,50" style="stroke: black; stroke-width: 1" />
    <text class="taxon_text" style="" transform="rotate( 478.122140871353 50)" x="484" y="54">Salmo salar 209148015 BT044655</text>
</svg>