<svg height="3800" width="1500" xmlns="http://www.w3.org/2000/svg" xmlns:svg="http://www.w3.org/2000/svg" xmlns:xlink="http://www.w3.org/1999/xlink">
    <style type="text/css"><![CDATA[
	polyline { fill: none; stroke: black; stroke-width: 1 }
	path { fill: none; stroke: black; stroke-width: 1 }
	line { fill: none; stroke: black; stroke-width: 1 }
	circle.node_circle  {}
	circle.taxon_circle {}
	text.node_text      {}
	text.taxon_text     {}
	line.scale_bar      {}
	text.scale_label    {}
	line.scale_major    {}
	line.scale_minor    {}
]]></style>
    <polyline points="1132,171 1132,196 1154,196" style="stroke: black; stroke-width: 1" />
    <text class="taxon_text" style="" transform="rotate( 1154.05489555663 196.052631578947)" x="1160" y="200">A carolinensis 327285999 XM 0032</text>
    <polyline points="1132,171 1132,147 1148,147" style="stroke: black; stroke-width: 1" />
    <text class="taxon_text" style="" transform="rotate( 1148.13241599266 147.368421052632)" x="1154" y="151">A carolinensis 327286011 XM 0032</text>
    <polyline points="1240,269 1240,293 1269,293" style="stroke: black; stroke-width: 1" />
    <text class="taxon_text" style="" transform="rotate( 1269.05630361475 293.421052631579)" x="1275" y="297">V acanthurus 73347633 DQ139914</text>
    <polyline points="1240,269 1240,244 1273,244" style="stroke: black; stroke-width: 1" />
    <text class="taxon_text" style="" transform="rotate( 1273.58451778927 244.736842105263)" x="1279" y="248">V scalaris 300872874 GU441486</text>
    <polyline points="1265,415 1265,439 1276,439" style="stroke: black; stroke-width: 1" />
    <text class="taxon_text" style="" transform="rotate( 1276.07200718086 439.473684210526)" x="1282" y="443">V panoptes 300872882 GU441490</text>
    <polyline points="1265,415 1265,390 1275,390" style="stroke: black; stroke-width: 1" />
    <text class="taxon_text" style="" transform="rotate( 1275.69420623662 390.789473684211)" x="1281" y="394">V gouldii 300872868 GU441483</text>
    <polyline points="1251,378 1251,415 1265,415" style="stroke: black; stroke-width: 1" />
    <text class="node_text" style="" transform="rotate( 1265.62251281045 415.131578947368)" x="1271" y="419">1.00</text>
    <polyline points="1251,378 1251,342 1265,342" style="stroke: black; stroke-width: 1" />
    <text class="taxon_text" style="" transform="rotate( 1265.71846225661 342.105263157895)" x="1271" y="346">V mertensi 300872870 GU441484</text>
    <polyline points="1232,418 1232,536 1249,536" style="stroke: black; stroke-width: 1" />
    <text class="taxon_text" style="" transform="rotate( 1249.18637268396 536.842105263158)" x="1255" y="540">V gilleni 300872862 GU441480</text>
    <polyline points="1232,418 1232,488 1253,488" style="stroke: black; stroke-width: 1" />
    <text class="taxon_text" style="" transform="rotate( 1253.02495021423 488.157894736842)" x="1259" y="492">V glauerti 300872864 GU441481</text>
    <polyline points="1232,418 1232,378 1251,378" style="stroke: black; stroke-width: 1" />
    <text class="node_text" style="" transform="rotate( 1251.44898056112 378.618421052632)" x="1257" y="382">1.00</text>
    <polyline points="1232,418 1232,269 1240,269" style="stroke: black; stroke-width: 1" />
    <text class="node_text" style="" transform="rotate( 1240.35122774513 269.078947368421)" x="1246" y="273">0.50</text>
    <polyline points="1290,707 1290,731 1293,731" style="stroke: black; stroke-width: 1" />
    <text class="taxon_text" style="" transform="rotate( 1293.5174155441 731.578947368421)" x="1299" y="735">V gouldii 300872886 GU441492</text>
    <polyline points="1290,707 1290,682 1291,682" style="stroke: black; stroke-width: 1" />
    <text class="taxon_text" style="" transform="rotate( 1291.76753751983 682.894736842105)" x="1297" y="686">V gouldii 300872880 GU441489</text>
    <polyline points="1282,670 1282,707 1290,707" style="stroke: black; stroke-width: 1" />
    <text class="node_text" style="" transform="rotate( 1290.89619661193 707.236842105263)" x="1296" y="711">1.00</text>
    <polyline points="1282,670 1282,634 1291,634" style="stroke: black; stroke-width: 1" />
    <text class="taxon_text" style="" transform="rotate( 1291.03352425674 634.210526315789)" x="1297" y="638">V gouldii 300872872 GU441485</text>
    <polyline points="1291,901 1291,926 1295,926" style="stroke: black; stroke-width: 1" />
    <text class="taxon_text" style="" transform="rotate( 1295.62230651914 926.315789473684)" x="1301" y="930">V tristis 300872878 GU441488</text>
    <polyline points="1291,901 1291,877 1295,877" style="stroke: black; stroke-width: 1" />
    <text class="taxon_text" style="" transform="rotate( 1295.66428440183 877.631578947368)" x="1301" y="881">V glauerti 300872876 GU441487</text>
    <polyline points="1284,865 1284,901 1291,901" style="stroke: black; stroke-width: 1" />
    <text class="node_text" style="" transform="rotate( 1291.24461303828 901.973684210526)" x="1297" y="905">1.00</text>
    <polyline points="1284,865 1284,828 1300,828" style="stroke: black; stroke-width: 1" />
    <text class="taxon_text" style="" transform="rotate( 1300 828.947368421053)" x="1306" y="832">V scalaris 300872884 GU441491</text>
    <polyline points="1265,822 1265,865 1284,865" style="stroke: black; stroke-width: 1" />
    <text class="node_text" style="" transform="rotate( 1284.40461689545 865.460526315789)" x="1290" y="869">1.00</text>
    <polyline points="1265,822 1265,780 1288,780" style="stroke: black; stroke-width: 1" />
    <text class="taxon_text" style="" transform="rotate( 1288.20721338341 780.263157894737)" x="1294" y="784">V indicus 300872866 GU441482</text>
    <polyline points="1249,746 1249,822 1265,822" style="stroke: black; stroke-width: 1" />
    <text class="node_text" style="" transform="rotate( 1265.81860949103 822.861842105263)" x="1271" y="826">1.00</text>
    <polyline points="1249,746 1249,670 1282,670" style="stroke: black; stroke-width: 1" />
    <text class="node_text" style="" transform="rotate( 1282.67632749657 670.723684210526)" x="1288" y="674">1.00</text>
    <polyline points="1234,666 1234,746 1249,746" style="stroke: black; stroke-width: 1" />
    <text class="node_text" style="" transform="rotate( 1249.91678784282 746.792763157895)" x="1255" y="750">1.00</text>
    <polyline points="1234,666 1234,585 1265,585" style="stroke: black; stroke-width: 1" />
    <text class="taxon_text" style="" transform="rotate( 1265.62551123064 585.526315789474)" x="1271" y="589">V mitchelli 73347670 Q2XXN0</text>
    <polyline points="1213,542 1213,666 1234,666" style="stroke: black; stroke-width: 1" />
    <text class="node_text" style="" transform="rotate( 1234.98945275713 666.159539473684)" x="1240" y="670">1.00</text>
    <polyline points="1213,542 1213,418 1232,418" style="stroke: black; stroke-width: 1" />
    <text class="node_text" style="" transform="rotate( 1232.94512986997 418.174342105263)" x="1238" y="422">1.00</text>
    <polyline points="1254,1096 1254,1121 1275,1121" style="stroke: black; stroke-width: 1" />
    <text class="taxon_text" style="" transform="rotate( 1275.08012978122 1121.05263157895)" x="1281" y="1125">V gouldii 300872858 GU441478</text>
    <polyline points="1254,1096 1254,1072 1270,1072" style="stroke: black; stroke-width: 1" />
    <text class="taxon_text" style="" transform="rotate( 1270.36241545055 1072.36842105263)" x="1276" y="1076">V komodoensis 166798237 B6CJU5</text>
    <polyline points="1235,1060 1235,1096 1254,1096" style="stroke: black; stroke-width: 1" />
    <text class="node_text" style="" transform="rotate( 1254.0827928581 1096.71052631579)" x="1260" y="1100">0.94</text>
    <polyline points="1235,1060 1235,1023 1270,1023" style="stroke: black; stroke-width: 1" />
    <text class="taxon_text" style="" transform="rotate( 1270.73901702671 1023.68421052632)" x="1276" y="1027">V indicus 300872860 GU441479</text>
    <polyline points="1178,1017 1178,1060 1235,1060" style="stroke: black; stroke-width: 1" />
    <text class="node_text" style="" transform="rotate( 1235.11478672117 1060.19736842105)" x="1241" y="1064">1.00</text>
    <polyline points="1178,1017 1178,975 1290,975" style="stroke: black; stroke-width: 1" />
    <text class="taxon_text" style="" transform="rotate( 1290.26532900345 975)" x="1296" y="979">V komodoensis 166798239 B6CJU6</text>
    <polyline points="1149,779 1149,1017 1178,1017" style="stroke: black; stroke-width: 1" />
    <text class="node_text" style="" transform="rotate( 1178.8374381306 1017.59868421053)" x="1184" y="1021">0.94</text>
    <polyline points="1149,779 1149,542 1213,542" style="stroke: black; stroke-width: 1" />
    <text class="node_text" style="" transform="rotate( 1213.30727666207 542.166940789474)" x="1219" y="546">1.00</text>
    <polyline points="997,974 997,1169 1128,1169" style="stroke: black; stroke-width: 1" />
    <text class="taxon_text" style="" transform="rotate( 1128.09097542687 1169.73684210526)" x="1134" y="1173">G infernalis 300872894 GU441496</text>
    <polyline points="997,974 997,779 1149,779" style="stroke: black; stroke-width: 1" />
    <text class="node_text" style="" transform="rotate( 1149.76775436558 779.8828125)" x="1155" y="783">1.00</text>
    <polyline points="1145,1291 1145,1315 1170,1315" style="stroke: black; stroke-width: 1" />
    <text class="taxon_text" style="" transform="rotate( 1170.2319721785 1315.78947368421)" x="1176" y="1319">C warreni 300872898 GU441498</text>
    <polyline points="1145,1291 1145,1267 1166,1267" style="stroke: black; stroke-width: 1" />
    <text class="taxon_text" style="" transform="rotate( 1166.51932829631 1267.10526315789)" x="1172" y="1271">C warreni 300872896 GU441497</text>
    <polyline points="1047,1254 1047,1291 1145,1291" style="stroke: black; stroke-width: 1" />
    <text class="node_text" style="" transform="rotate( 1145.50699927222 1291.44736842105)" x="1151" y="1295">1.00</text>
    <polyline points="1047,1254 1047,1218 1133,1218" style="stroke: black; stroke-width: 1" />
    <text class="taxon_text" style="" transform="rotate( 1133.16790049659 1218.42105263158)" x="1139" y="1222">G infernalis 300872892 GU441495</text>
    <polyline points="1083,1388 1083,1413 1120,1413" style="stroke: black; stroke-width: 1" />
    <text class="taxon_text" style="" transform="rotate( 1120.8389963496 1413.15789473684)" x="1126" y="1417">H susp cinc 190700986 EU790962</text>
    <polyline points="1083,1388 1083,1364 1175,1364" style="stroke: black; stroke-width: 1" />
    <text class="taxon_text" style="" transform="rotate( 1175.77185332592 1364.47368421053)" x="1181" y="1368">H horridum 301071100 HM437246</text>
    <polyline points="998,1321 998,1388 1083,1388" style="stroke: black; stroke-width: 1" />
    <text class="node_text" style="" transform="rotate( 1083.32396227076 1388.81578947368)" x="1089" y="1392">1.00</text>
    <polyline points="998,1321 998,1254 1047,1254" style="stroke: black; stroke-width: 1" />
    <text class="node_text" style="" transform="rotate( 1047.69733322907 1254.93421052632)" x="1053" y="1258">1.00</text>
    <polyline points="978,1148 978,1321 998,1321" style="stroke: black; stroke-width: 1" />
    <text class="node_text" style="" transform="rotate( 998.320548869212 1321.875)" x="1004" y="1325">0.94</text>
    <polyline points="978,1148 978,974 997,974" style="stroke: black; stroke-width: 1" />
    <text class="node_text" style="" transform="rotate( 997.119981424187 974.809827302632)" x="1003" y="978">0.64</text>
    <polyline points="931,660 931,1148 978,1148" style="stroke: black; stroke-width: 1" />
    <text class="node_text" style="" transform="rotate( 978.983737048624 1148.34241365132)" x="984" y="1152">1.00</text>
    <polyline points="931,660 931,171 1132,171" style="stroke: black; stroke-width: 1" />
    <text class="node_text" style="" transform="rotate( 1132.93642245774 171.710526315789)" x="1138" y="175">1.00</text>
    <polyline points="1126,1534 1126,1559 1129,1559" style="stroke: black; stroke-width: 1" />
    <text class="taxon_text" style="" transform="rotate( 1129.98117951614 1559.21052631579)" x="1135" y="1563">N atra 126035655 EF080834</text>
    <polyline points="1126,1534 1126,1510 1129,1510" style="stroke: black; stroke-width: 1" />
    <text class="taxon_text" style="" transform="rotate( 1129.30893370901 1510.52631578947)" x="1135" y="1514">B multicinctus 126035671 EF08083</text>
    <polyline points="1099,1498 1099,1534 1126,1534" style="stroke: black; stroke-width: 1" />
    <text class="node_text" style="" transform="rotate( 1126.97616279934 1534.86842105263)" x="1132" y="1538">1.00</text>
    <polyline points="1099,1498 1099,1461 1123,1461" style="stroke: black; stroke-width: 1" />
    <text class="taxon_text" style="" transform="rotate( 1123.67610153562 1461.84210526316)" x="1129" y="1465">Oh gene1 s235</text>
    <polyline points="1126,1778 1126,1802 1128,1802" style="stroke: black; stroke-width: 1" />
    <text class="taxon_text" style="" transform="rotate( 1128.58511507457 1802.63157894737)" x="1134" y="1806">O hannah 126035667 EF080837</text>
    <polyline points="1126,1778 1126,1753 1127,1753" style="stroke: black; stroke-width: 1" />
    <text class="taxon_text" style="" transform="rotate( 1127.60223293551 1753.94736842105)" x="1133" y="1757">Oh VG contig51552</text>
    <polyline points="1121,1713 1121,1778 1126,1778" style="stroke: black; stroke-width: 1" />
    <text class="node_text" style="" transform="rotate( 1126.17018745164 1778.28947368421)" x="1132" y="1782">0.57</text>
    <polyline points="1121,1713 1121,1705 1126,1705" style="stroke: black; stroke-width: 1" />
    <text class="taxon_text" style="" transform="rotate( 1126.2085672301 1705.26315789474)" x="1132" y="1709">Oh VG contig51250</text>
    <polyline points="1121,1713 1121,1656 1130,1656" style="stroke: black; stroke-width: 1" />
    <text class="taxon_text" style="" transform="rotate( 1130.42734444076 1656.57894736842)" x="1136" y="1660">Oh VG contig33924</text>
    <polyline points="1108,1660 1108,1713 1121,1713" style="stroke: black; stroke-width: 1" />
    <text class="node_text" style="" transform="rotate( 1121.66116316635 1713.37719298246)" x="1127" y="1717">0.85</text>
    <polyline points="1108,1660 1108,1607 1172,1607" style="stroke: black; stroke-width: 1" />
    <text class="taxon_text" style="" transform="rotate( 1172.98032412682 1607.89473684211)" x="1178" y="1611">Oh gene4 s526380</text>
    <polyline points="1088,1755 1088,1851 1114,1851" style="stroke: black; stroke-width: 1" />
    <text class="taxon_text" style="" transform="rotate( 1114.77739008871 1851.31578947368)" x="1120" y="1855">L hardwickii 56566178 Q5MCS0</text>
    <polyline points="1088,1755 1088,1660 1108,1660" style="stroke: black; stroke-width: 1" />
    <text class="node_text" style="" transform="rotate( 1108.33018699108 1660.63596491228)" x="1114" y="1664">0.98</text>
    <polyline points="1080,1627 1080,1755 1088,1755" style="stroke: black; stroke-width: 1" />
    <text class="node_text" style="" transform="rotate( 1088.56520076702 1755.97587719298)" x="1094" y="1759">0.96</text>
    <polyline points="1080,1627 1080,1498 1099,1498" style="stroke: black; stroke-width: 1" />
    <text class="node_text" style="" transform="rotate( 1099.08066038166 1498.35526315789)" x="1105" y="1502">0.99</text>
    <polyline points="1126,2070 1126,2094 1127,2094" style="stroke: black; stroke-width: 1" />
    <text class="taxon_text" style="" transform="rotate( 1127.18005537243 2094.73684210526)" x="1133" y="2098">P olfersii 73348246 DQ139919</text>
    <polyline points="1126,2070 1126,2046 1130,2046" style="stroke: black; stroke-width: 1" />
    <text class="taxon_text" style="" transform="rotate( 1130.95506639462 2046.05263157895)" x="1136" y="2050">P olfersii 73348349 DQ139921</text>
    <polyline points="1124,2033 1124,2070 1126,2070" style="stroke: black; stroke-width: 1" />
    <text class="node_text" style="" transform="rotate( 1126.18877765683 2070.3947368421)" x="1132" y="2074">0.92</text>
    <polyline points="1124,2033 1124,1997 1125,1997" style="stroke: black; stroke-width: 1" />
    <text class="taxon_text" style="" transform="rotate( 1125.303044332 1997.36842105263)" x="1131" y="2001">P olfersii 73348307 DQ139920</text>
    <polyline points="1114,2088 1114,2143 1144,2143" style="stroke: black; stroke-width: 1" />
    <text class="taxon_text" style="" transform="rotate( 1144.15471176546 2143.42105263158)" x="1150" y="2147">P olfersii 73348403 DQ139923</text>
    <polyline points="1114,2088 1114,2033 1124,2033" style="stroke: black; stroke-width: 1" />
    <text class="node_text" style="" transform="rotate( 1124.24640105621 2033.88157894737)" x="1130" y="2037">1.00</text>
    <polyline points="1098,2018 1098,2088 1114,2088" style="stroke: black; stroke-width: 1" />
    <text class="node_text" style="" transform="rotate( 1114.47215091313 2088.65131578947)" x="1120" y="2092">0.86</text>
    <polyline points="1098,2018 1098,1948 1099,1948" style="stroke: black; stroke-width: 1" />
    <text class="taxon_text" style="" transform="rotate( 1099.80088091187 1948.68421052632)" x="1105" y="1952">P olfersii 114438238 DQ912657</text>
    <polyline points="1093,2105 1093,2192 1100,2192" style="stroke: black; stroke-width: 1" />
    <text class="taxon_text" style="" transform="rotate( 1100.14629891803 2192.10526315789)" x="1106" y="2196">P olfersii 73348383 DQ139922</text>
    <polyline points="1093,2105 1093,2018 1098,2018" style="stroke: black; stroke-width: 1" />
    <text class="node_text" style="" transform="rotate( 1098.62490051242 2018.66776315789)" x="1104" y="2022">1.00</text>
    <polyline points="1060,2002 1060,2105 1093,2105" style="stroke: black; stroke-width: 1" />
    <text class="node_text" style="" transform="rotate( 1093.46461936135 2105.38651315789)" x="1099" y="2109">1.00</text>
    <polyline points="1060,2002 1060,1900 1096,1900" style="stroke: black; stroke-width: 1" />
    <text class="taxon_text" style="" transform="rotate( 1096.65553813007 1900)" x="1102" y="1904">T elegans contig77142</text>
    <polyline points="1048,1814 1048,2002 1060,2002" style="stroke: black; stroke-width: 1" />
    <text class="node_text" style="" transform="rotate( 1060.09160293624 2002.69325657895)" x="1066" y="2006">0.65</text>
    <polyline points="1048,1814 1048,1627 1080,1627" style="stroke: black; stroke-width: 1" />
    <text class="node_text" style="" transform="rotate( 1080.16302770396 1627.16557017544)" x="1086" y="1631">1.00</text>
    <polyline points="1140,2313 1140,2338 1183,2338" style="stroke: black; stroke-width: 1" />
    <text class="taxon_text" style="" transform="rotate( 1183.64330601493 2338.15789473684)" x="1189" y="2342">B jararaca 6691472 Q9PTU8</text>
    <polyline points="1140,2313 1140,2289 1258,2289" style="stroke: black; stroke-width: 1" />
    <text class="taxon_text" style="" transform="rotate( 1258.21101777895 2289.47368421053)" x="1264" y="2293">D acutus 57791680 Q5I2B6</text>
    <polyline points="1144,2411 1144,2435 1211,2435" style="stroke: black; stroke-width: 1" />
    <text class="taxon_text" style="" transform="rotate( 1211.3079300778 2435.52631578947)" x="1217" y="2439">M lebetina 22417111 Q8JH85</text>
    <polyline points="1144,2411 1144,2386 1225,2386" style="stroke: black; stroke-width: 1" />
    <text class="taxon_text" style="" transform="rotate( 1225.0041138325 2386.84210526316)" x="1231" y="2390">c cerastes 32329781 Q7SYF1</text>
    <polyline points="1126,2362 1126,2411 1144,2411" style="stroke: black; stroke-width: 1" />
    <text class="node_text" style="" transform="rotate( 1144.33881476528 2411.18421052632)" x="1150" y="2415">1.00</text>
    <polyline points="1126,2362 1126,2313 1140,2313" style="stroke: black; stroke-width: 1" />
    <text class="node_text" style="" transform="rotate( 1140.56440342712 2313.81578947368)" x="1146" y="2317">0.97</text>
    <polyline points="1171,2557 1171,2581 1183,2581" style="stroke: black; stroke-width: 1" />
    <text class="taxon_text" style="" transform="rotate( 1183.18394804146 2581.57894736842)" x="1189" y="2585">G ussuriensis 2407644 O42207</text>
    <polyline points="1171,2557 1171,2532 1180,2532" style="stroke: black; stroke-width: 1" />
    <text class="taxon_text" style="" transform="rotate( 1180.19392342563 2532.8947368421)" x="1186" y="2536">G halys 29293674 QB02F0</text>
    <polyline points="1137,2520 1137,2557 1171,2557" style="stroke: black; stroke-width: 1" />
    <text class="node_text" style="" transform="rotate( 1171.35877848679 2557.23684210526)" x="1177" y="2561">1.00</text>
    <polyline points="1137,2520 1137,2484 1178,2484" style="stroke: black; stroke-width: 1" />
    <text class="taxon_text" style="" transform="rotate( 1178.76847446617 2484.21052631579)" x="1184" y="2488">P flavoviridis 2114117 O13058</text>
    <polyline points="1121,2441 1121,2520 1137,2520" style="stroke: black; stroke-width: 1" />
    <text class="node_text" style="" transform="rotate( 1137.26973931975 2520.72368421053)" x="1143" y="2524">1.00</text>
    <polyline points="1121,2441 1121,2362 1126,2362" style="stroke: black; stroke-width: 1" />
    <text class="node_text" style="" transform="rotate( 1126.69371161722 2362.5)" x="1132" y="2366">0.56</text>
    <polyline points="1150,2654 1150,2678 1198,2678" style="stroke: black; stroke-width: 1" />
    <text class="taxon_text" style="" transform="rotate( 1198.63540697677 2678.94736842105)" x="1204" y="2682">C adamanteus 18072834 Q98UUK2</text>
    <polyline points="1150,2654 1150,2630 1179,2630" style="stroke: black; stroke-width: 1" />
    <text class="taxon_text" style="" transform="rotate( 1179.46590700292 2630.26315789474)" x="1185" y="2634">P mucrosquamatus 602601 Q91510</text>
    <polyline points="1125,2691 1125,2727 1164,2727" style="stroke: black; stroke-width: 1" />
    <text class="taxon_text" style="" transform="rotate( 1164.61653084223 2727.63157894737)" x="1170" y="2731">V stejnegeri 33307100 Q71QH6</text>
    <polyline points="1125,2691 1125,2654 1150,2654" style="stroke: black; stroke-width: 1" />
    <text class="node_text" style="" transform="rotate( 1150.60431359925 2654.60526315789)" x="1156" y="2658">1.00</text>
    <polyline points="1113,2566 1113,2691 1125,2691" style="stroke: black; stroke-width: 1" />
    <text class="node_text" style="" transform="rotate( 1125.16571668719 2691.11842105263)" x="1131" y="2695">1.00</text>
    <polyline points="1113,2566 1113,2441 1121,2441" style="stroke: black; stroke-width: 1" />
    <text class="node_text" style="" transform="rotate( 1121.94781213674 2441.61184210526)" x="1127" y="2445">0.98</text>
    <polyline points="1153,2800 1153,2825 1164,2825" style="stroke: black; stroke-width: 1" />
    <text class="taxon_text" style="" transform="rotate( 1164.32808281972 2825)" x="1170" y="2829">T gramineus 2114121 O13060</text>
    <polyline points="1153,2800 1153,2776 1182,2776" style="stroke: black; stroke-width: 1" />
    <text class="taxon_text" style="" transform="rotate( 1182.38576858625 2776.31578947368)" x="1188" y="2780">P jerdonii 9988778 Q9DF68</text>
    <polyline points="1141,2898 1141,2922 1162,2922" style="stroke: black; stroke-width: 1" />
    <text class="taxon_text" style="" transform="rotate( 1162.63457509507 2922.36842105263)" x="1168" y="2926">B jararacussu 32396013 Q7T229</text>
    <polyline points="1141,2898 1141,2873 1165,2873" style="stroke: black; stroke-width: 1" />
    <text class="taxon_text" style="" transform="rotate( 1165.34214852878 2873.68421052632)" x="1171" y="2877">G ussuriensis 18389602 Q8UVX1</text>
    <polyline points="1132,2849 1132,2898 1141,2898" style="stroke: black; stroke-width: 1" />
    <text class="node_text" style="" transform="rotate( 1141.80574938676 2898.02631578947)" x="1147" y="2902">1.00</text>
    <polyline points="1132,2849 1132,2800 1153,2800" style="stroke: black; stroke-width: 1" />
    <text class="node_text" style="" transform="rotate( 1153.35626365181 2800.65789473684)" x="1159" y="2804">1.00</text>
    <polyline points="1149,2995 1149,3019 1175,3019" style="stroke: black; stroke-width: 1" />
    <text class="taxon_text" style="" transform="rotate( 1175.28251115052 3019.73684210526)" x="1181" y="3023">M lebetina 6562943 Q9PT40</text>
    <polyline points="1149,2995 1149,2971 1185,2971" style="stroke: black; stroke-width: 1" />
    <text class="taxon_text" style="" transform="rotate( 1185.7517950942 2971.05263157895)" x="1191" y="2975">B gabonica 38570059 Q6T6S7</text>
    <polyline points="1123,2922 1123,2995 1149,2995" style="stroke: black; stroke-width: 1" />
    <text class="node_text" style="" transform="rotate( 1149.33178406961 2995.3947368421)" x="1155" y="2999">1.00</text>
    <polyline points="1123,2922 1123,2849 1132,2849" style="stroke: black; stroke-width: 1" />
    <text class="node_text" style="" transform="rotate( 1132.66236685215 2849.34210526316)" x="1138" y="2853">1.00</text>
    <polyline points="1134,3092 1134,3117 1192,3117" style="stroke: black; stroke-width: 1" />
    <text class="taxon_text" style="" transform="rotate( 1192.32733057607 3117.10526315789)" x="1198" y="3121">C atrox 18652952 Q8QHK2</text>
    <polyline points="1134,3092 1134,3068 1175,3068" style="stroke: black; stroke-width: 1" />
    <text class="taxon_text" style="" transform="rotate( 1175.25132758052 3068.42105263158)" x="1181" y="3072">L muta 88861963 Q27J47</text>
    <polyline points="1110,3007 1110,3092 1134,3092" style="stroke: black; stroke-width: 1" />
    <text class="node_text" style="" transform="rotate( 1134.86920411374 3092.76315789474)" x="1140" y="3096">1.00</text>
    <polyline points="1110,3007 1110,2922 1123,2922" style="stroke: black; stroke-width: 1" />
    <text class="node_text" style="" transform="rotate( 1123.1645710508 2922.36842105263)" x="1129" y="2926">1.00</text>
    <polyline points="1106,2786 1106,3007 1110,3007" style="stroke: black; stroke-width: 1" />
    <text class="node_text" style="" transform="rotate( 1110.71153230786 3007.56578947368)" x="1116" y="3011">0.70</text>
    <polyline points="1106,2786 1106,2566 1113,2566" style="stroke: black; stroke-width: 1" />
    <text class="node_text" style="" transform="rotate( 1113.96181979639 2566.36513157895)" x="1119" y="2570">0.94</text>
    <polyline points="1061,2513 1061,2786 1106,2786" style="stroke: black; stroke-width: 1" />
    <text class="node_text" style="" transform="rotate( 1106.62348621758 2786.96546052632)" x="1112" y="2790">1.00</text>
    <polyline points="1061,2513 1061,2240 1121,2240" style="stroke: black; stroke-width: 1" />
    <text class="taxon_text" style="" transform="rotate( 1121.38231008846 2240.78947368421)" x="1127" y="2244">P molurus contig02483</text>
    <polyline points="1031,2164 1031,2513 1061,2513" style="stroke: black; stroke-width: 1" />
    <text class="node_text" style="" transform="rotate( 1061.78930844916 2513.87746710526)" x="1067" y="2517">0.88</text>
    <polyline points="1031,2164 1031,1814 1048,1814" style="stroke: black; stroke-width: 1" />
    <text class="node_text" style="" transform="rotate( 1048.82114111717 1814.92941337719)" x="1054" y="1818">0.59</text>
    <polyline points="887,1412 887,2164 1031,2164" style="stroke: black; stroke-width: 1" />
    <text class="node_text" style="" transform="rotate( 1031.9442332224 2164.40344024123)" x="1037" y="2168">1.00</text>
    <polyline points="887,1412 887,660 931,660" style="stroke: black; stroke-width: 1" />
    <text class="node_text" style="" transform="rotate( 931.18532107803 660.026469983553)" x="937" y="664">0.94</text>
    <polyline points="743,3190 743,3214 1021,3214" style="stroke: black; stroke-width: 1" />
    <text class="taxon_text" style="" transform="rotate( 1021.32562795314 3214.47368421053)" x="1027" y="3218">H sapiens 3649790 Q9UBX7</text>
    <polyline points="743,3190 743,3165 1202,3165" style="stroke: black; stroke-width: 1" />
    <text class="taxon_text" style="" transform="rotate( 1202.97412099513 3165.78947368421)" x="1208" y="3169">H sapiens 2558911 O43240</text>
    <polyline points="688,3255 688,3311 1062,3311" style="stroke: black; stroke-width: 1" />
    <text class="taxon_text" style="" transform="rotate( 1062.37639912283 3311.84210526316)" x="1068" y="3315">M musculus 12834990 Q9D140</text>
    <polyline points="688,3255 688,3263 1081,3263" style="stroke: black; stroke-width: 1" />
    <text class="taxon_text" style="" transform="rotate( 1081.79416828861 3263.15789473684)" x="1087" y="3267">M fascicularis 293140 Q07276</text>
    <polyline points="688,3255 688,3190 743,3190" style="stroke: black; stroke-width: 1" />
    <text class="node_text" style="" transform="rotate( 743.772665058234 3190.13157894737)" x="749" y="3194">0.53</text>
    <polyline points="611,2333 611,3255 688,3255" style="stroke: black; stroke-width: 1" />
    <text class="node_text" style="" transform="rotate( 688.672496235184 3255.04385964912)" x="694" y="3259">0.94</text>
    <polyline points="611,2333 611,1412 887,1412" style="stroke: black; stroke-width: 1" />
    <text class="node_text" style="" transform="rotate( 887.175708862514 1412.21495511239)" x="893" y="1416">1.00</text>
    <polyline points="849,3433 849,3457 975,3457" style="stroke: black; stroke-width: 1" />
    <text class="taxon_text" style="" transform="rotate( 975.255501381432 3457.8947368421)" x="981" y="3461">G gallus 603902 Q90627</text>
    <polyline points="849,3433 849,3409 939,3409" style="stroke: black; stroke-width: 1" />
    <text class="taxon_text" style="" transform="rotate( 939.799182606668 3409.21052631579)" x="945" y="3413">T elegans contig75937</text>
    <polyline points="806,3397 806,3433 849,3433" style="stroke: black; stroke-width: 1" />
    <text class="node_text" style="" transform="rotate( 849.787807799826 3433.55263157895)" x="855" y="3437">0.94</text>
    <polyline points="806,3397 806,3360 905,3360" style="stroke: black; stroke-width: 1" />
    <text class="taxon_text" style="" transform="rotate( 905.319149446539 3360.52631578947)" x="911" y="3364">A carolinensis 327285807 XM 0032</text>
    <polyline points="737,3451 737,3506 876,3506" style="stroke: black; stroke-width: 1" />
    <text class="taxon_text" style="" transform="rotate( 876.599081475952 3506.57894736842)" x="882" y="3510">H sapiens 3928429 P35030</text>
    <polyline points="737,3451 737,3397 806,3397" style="stroke: black; stroke-width: 1" />
    <text class="node_text" style="" transform="rotate( 806.049852453739 3397.03947368421)" x="812" y="3401">1.00</text>
    <polyline points="691,3503 691,3555 913,3555" style="stroke: black; stroke-width: 1" />
    <text class="taxon_text" style="" transform="rotate( 913.296146526318 3555.26315789474)" x="919" y="3559">T elegans contig78952</text>
    <polyline points="691,3503 691,3451 737,3451" style="stroke: black; stroke-width: 1" />
    <text class="node_text" style="" transform="rotate( 737.767429096957 3451.80921052632)" x="743" y="3455">0.64</text>
    <polyline points="557,2918 557,3503 691,3503" style="stroke: black; stroke-width: 1" />
    <text class="node_text" style="" transform="rotate( 691.449033333317 3503.53618421053)" x="697" y="3507">1.00</text>
    <polyline points="557,2918 557,2333 611,2333" style="stroke: black; stroke-width: 1" />
    <text class="node_text" style="" transform="rotate( 611.825385440919 2333.62940738076)" x="617" y="2337">0.51</text>
    <polyline points="534,3628 534,3652 1006,3652" style="stroke: black; stroke-width: 1" />
    <text class="taxon_text" style="" transform="rotate( 1006.30654120957 3652.63157894737)" x="1012" y="3656">R norvegicus 5295889 Q9R0W3</text>
    <polyline points="534,3628 534,3603 1112,3603" style="stroke: black; stroke-width: 1" />
    <text class="taxon_text" style="" transform="rotate( 1112.40084224424 3603.94736842105)" x="1118" y="3607">H sapiens 77863172 P03952</text>
    <polyline points="428,3273 428,3628 534,3628" style="stroke: black; stroke-width: 1" />
    <text class="node_text" style="" transform="rotate( 534.410973546258 3628.28947368421)" x="540" y="3632">0.87</text>
    <polyline points="428,3273 428,2918 557,2918" style="stroke: black; stroke-width: 1" />
    <text class="node_text" style="" transform="rotate( 557.470024193653 2918.58279579564)" x="563" y="2922">0.97</text>
    <polyline points="134,3487 134,3701 495,3701" style="stroke: black; stroke-width: 1" />
    <text class="taxon_text" style="" transform="rotate( 495.400927159498 3701.31578947368)" x="501" y="3705">H sapiens 1015996 P49863</text>
    <polyline points="134,3487 134,3273 428,3273" style="stroke: black; stroke-width: 1" />
    <text class="node_text" style="" transform="rotate( 428.678881670825 3273.43613473993)" x="434" y="3277">1.00</text>
    <polyline points="50,1212 50,3487 134,3487" style="stroke: black; stroke-width: 1" />
    <text class="node_text" style="" transform="rotate( 134.199836789992 3487.3759621068)" x="140" y="3491">0.74</text>
    <polyline points="50,1212 50,98 400,98" style="stroke: black; stroke-width: 1" />
    <text class="taxon_text" style="" transform="rotate( 400.051165042163 98.6842105263158)" x="406" y="102">T elegans contig69375</text>
    <polyline points="50,1212 50,50 321,50" style="stroke: black; stroke-width: 1" />
    <text class="taxon_text" style="" transform="rotate( 321.389410347476 50)" x="327" y="54">G gallus 32169281 Q7SZC3</text>
</svg>