<svg height="1380" width="1200" xmlns="http://www.w3.org/2000/svg" xmlns:svg="http://www.w3.org/2000/svg" xmlns:xlink="http://www.w3.org/1999/xlink">
    <style type="text/css"><![CDATA[
	polyline { fill: none; stroke: black; stroke-width: 1 }
	path { fill: none; stroke: black; stroke-width: 1 }
	line { fill: none; stroke: black; stroke-width: 1 }
	circle.node_circle  {}
	circle.taxon_circle {}
	text.node_text      {}
	text.taxon_text     {}
	line.scale_bar      {}
	text.scale_label    {}
	line.scale_major    {}
	line.scale_minor    {}
]]></style>
    <polyline points="316,114 316,124 850,124" style="stroke: #0700F7; stroke-width: 1" />
    <text class="taxon_text" style="font-family: Verdana; font-style: Italic" transform="rotate( 850 124.202898550725)" x="856" y="132">Mus musculus</text>
    <polyline points="316,114 316,105 850,105" style="stroke: #0000FE; stroke-width: 1" />
    <text class="taxon_text" style="font-family: Verdana; font-style: Italic" transform="rotate( 850 105.652173913043)" x="856" y="113">Homo sapiens</text>
    <polyline points="250,101 250,114 316,114" style="stroke: #0000FE; stroke-width: 1" />
    <polyline points="250,101 250,87 850,87" style="stroke: #0000FE; stroke-width: 1" />
    <text class="taxon_text" style="font-family: Verdana; font-style: Italic" transform="rotate( 850 87.1014492753623)" x="856" y="95">Macaca fascicularis</text>
    <polyline points="383,189 383,198 850,198" style="stroke: #0000FE; stroke-width: 1" />
    <text class="taxon_text" style="font-family: Verdana; font-style: Italic" transform="rotate( 850 198.405797101449)" x="856" y="206">Anolis carolinensis</text>
    <polyline points="383,189 383,179 850,179" style="stroke: #0000FE; stroke-width: 1" />
    <text class="taxon_text" style="font-family: Verdana; font-style: Italic" transform="rotate( 850 179.855072463768)" x="856" y="187">Gallus gallus</text>
    <polyline points="316,175 316,189 383,189" style="stroke: #0000FE; stroke-width: 1" />
    <polyline points="316,175 316,161 850,161" style="stroke: #1B00E3; stroke-width: 1" />
    <text class="taxon_text" style="font-family: Verdana; font-style: Italic" transform="rotate( 850 161.304347826087)" x="856" y="169">Thamnophis elegans</text>
    <polyline points="250,158 250,175 316,175" style="stroke: #FE0000; stroke-width: 1" />
    <polyline points="250,158 250,142 850,142" style="stroke: #0000FE; stroke-width: 1" />
    <text class="taxon_text" style="font-family: Verdana; font-style: Italic" transform="rotate( 850 142.753623188406)" x="856" y="150">Homo sapiens</text>
    <polyline points="183,130 183,158 250,158" style="stroke: #0000FE; stroke-width: 1" />
    <text class="node_text" style="font-family: Verdana; font-style: Italic" transform="rotate( 250 158.985507246377)" x="256" y="166"> **</text>
    <polyline points="183,130 183,101 250,101" style="stroke: #0300FB; stroke-width: 1" />
    <polyline points="316,226 316,235 850,235" style="stroke: #3400CA; stroke-width: 1" />
    <text class="taxon_text" style="font-family: Verdana; font-style: Italic" transform="rotate( 850 235.507246376812)" x="856" y="243">Anolis carolinensis</text>
    <polyline points="316,226 316,216 850,216" style="stroke: #0100FD; stroke-width: 1" />
    <text class="taxon_text" style="font-family: Verdana; font-style: Italic" transform="rotate( 850 216.95652173913)" x="856" y="224">Anolis carolinensis</text>
    <polyline points="516,281 516,291 850,291" style="stroke: #2D00D1; stroke-width: 1" />
    <text class="taxon_text" style="font-family: Verdana; font-style: Italic; fill: red" transform="rotate( 850 291.159420289855)" x="856" y="299">Heloderma horridum **</text>
    <polyline points="516,281 516,272 850,272" style="stroke: #FE0000; stroke-width: 1" />
    <text class="taxon_text" style="font-family: Verdana; font-style: Italic; fill: red" transform="rotate( 850 272.608695652174)" x="856" y="280">Heloderma suspectum cinctum **</text>
    <polyline points="450,267 450,281 516,281" style="stroke: #0000FE; stroke-width: 1" />
    <polyline points="450,267 450,254 850,254" style="stroke: #0000FE; stroke-width: 1" />
    <text class="taxon_text" style="font-family: Verdana; font-style: Italic; fill: red" transform="rotate( 850 254.057971014493)" x="856" y="262">Gerrhonotus infernalis</text>
    <polyline points="516,337 516,346 850,346" style="stroke: #0000FE; stroke-width: 1" />
    <text class="taxon_text" style="font-family: Verdana; font-style: Italic; fill: red" transform="rotate( 850 346.811594202899)" x="856" y="354">Celestus warreni</text>
    <polyline points="516,337 516,328 850,328" style="stroke: #FE0000; stroke-width: 1" />
    <text class="taxon_text" style="font-family: Verdana; font-style: Italic; fill: red" transform="rotate( 850 328.260869565217)" x="856" y="336">Celestus warreni **</text>
    <polyline points="450,323 450,337 516,337" style="stroke: #0000FE; stroke-width: 1" />
    <polyline points="450,323 450,309 850,309" style="stroke: #0000FE; stroke-width: 1" />
    <text class="taxon_text" style="font-family: Verdana; font-style: Italic; fill: red" transform="rotate( 850 309.710144927536)" x="856" y="317">Gerrhonotus infernalis</text>
    <polyline points="383,295 383,323 450,323" style="stroke: #0000FE; stroke-width: 1" />
    <polyline points="383,295 383,267 450,267" style="stroke: #0000FE; stroke-width: 1" />
    <polyline points="716,411 716,421 850,421" style="stroke: #0100FD; stroke-width: 1" />
    <text class="taxon_text" style="font-family: Verdana; font-style: Italic; fill: red" transform="rotate( 850 421.014492753623)" x="856" y="429">Varanus acanthurus</text>
    <polyline points="716,411 716,402 850,402" style="stroke: #0000FE; stroke-width: 1" />
    <text class="taxon_text" style="font-family: Verdana; font-style: Italic; fill: red" transform="rotate( 850 402.463768115942)" x="856" y="410">Varanus gilleni</text>
    <polyline points="650,397 650,411 716,411" style="stroke: #0000FE; stroke-width: 1" />
    <polyline points="650,397 650,383 850,383" style="stroke: #0000FE; stroke-width: 1" />
    <text class="taxon_text" style="font-family: Verdana; font-style: Italic; fill: red" transform="rotate( 850 383.913043478261)" x="856" y="391">Varanus glauerti</text>
    <polyline points="583,381 583,397 650,397" style="stroke: #FE0000; stroke-width: 1" />
    <polyline points="583,381 583,365 850,365" style="stroke: #0000FE; stroke-width: 1" />
    <text class="taxon_text" style="font-family: Verdana; font-style: Italic; fill: red" transform="rotate( 850 365.36231884058)" x="856" y="373">Varanus scalaris</text>
    <polyline points="650,467 650,476 850,476" style="stroke: #0000FE; stroke-width: 1" />
    <text class="taxon_text" style="font-family: Verdana; font-style: Italic; fill: red" transform="rotate( 850 476.666666666667)" x="856" y="484">Varanus gouldii</text>
    <polyline points="650,467 650,458 850,458" style="stroke: #1000EE; stroke-width: 1" />
    <text class="taxon_text" style="font-family: Verdana; font-style: Italic; fill: red" transform="rotate( 850 458.115942028986)" x="856" y="466">Varanus panoptes **</text>
    <polyline points="583,453 583,467 650,467" style="stroke: #0400FA; stroke-width: 1" />
    <text class="node_text" style="font-family: Verdana; font-style: Italic" transform="rotate( 650 467.391304347826)" x="656" y="475"> **</text>
    <polyline points="583,453 583,439 850,439" style="stroke: #0000FE; stroke-width: 1" />
    <text class="taxon_text" style="font-family: Verdana; font-style: Italic; fill: red" transform="rotate( 850 439.565217391304)" x="856" y="447">Varanus mertensi</text>
    <polyline points="516,417 516,453 583,453" style="stroke: #0000FE; stroke-width: 1" />
    <polyline points="516,417 516,381 583,381" style="stroke: #0000FE; stroke-width: 1" />
    <polyline points="783,560 783,569 850,569" style="stroke: #0000FE; stroke-width: 1" />
    <text class="taxon_text" style="font-family: Verdana; font-style: Italic; fill: red" transform="rotate( 850 569.420289855072)" x="856" y="577">Varanus glauerti</text>
    <polyline points="783,560 783,550 850,550" style="stroke: #0000FE; stroke-width: 1" />
    <text class="taxon_text" style="font-family: Verdana; font-style: Italic; fill: red" transform="rotate( 850 550.869565217391)" x="856" y="558">Varanus tristis</text>
    <polyline points="716,546 716,560 783,560" style="stroke: #0000FE; stroke-width: 1" />
    <polyline points="716,546 716,532 850,532" style="stroke: #0100FD; stroke-width: 1" />
    <text class="taxon_text" style="font-family: Verdana; font-style: Italic; fill: red" transform="rotate( 850 532.31884057971)" x="856" y="540">Varanus scalaris</text>
    <polyline points="650,530 650,546 716,546" style="stroke: #0000FE; stroke-width: 1" />
    <polyline points="650,530 650,513 850,513" style="stroke: #0000FE; stroke-width: 1" />
    <text class="taxon_text" style="font-family: Verdana; font-style: Italic; fill: red" transform="rotate( 850 513.768115942029)" x="856" y="521">Varanus indicus</text>
    <polyline points="583,512 583,530 650,530" style="stroke: #1E00E0; stroke-width: 1" />
    <text class="node_text" style="font-family: Verdana; font-style: Italic" transform="rotate( 650 530)" x="656" y="538"> *</text>
    <polyline points="583,512 583,495 850,495" style="stroke: #0100FD; stroke-width: 1" />
    <text class="taxon_text" style="font-family: Verdana; font-style: Italic; fill: red" transform="rotate( 850 495.217391304348)" x="856" y="503">Varanus mitchelli</text>
    <polyline points="650,615 650,625 850,625" style="stroke: #0000FE; stroke-width: 1" />
    <text class="taxon_text" style="font-family: Verdana; font-style: Italic; fill: red" transform="rotate( 850 625.072463768116)" x="856" y="633">Varanus gouldii</text>
    <polyline points="650,615 650,606 850,606" style="stroke: #F90005; stroke-width: 1" />
    <text class="taxon_text" style="font-family: Verdana; font-style: Italic; fill: red" transform="rotate( 850 606.521739130435)" x="856" y="614">Varanus gouldii</text>
    <polyline points="583,601 583,615 650,615" style="stroke: #0000FE; stroke-width: 1" />
    <polyline points="583,601 583,587 850,587" style="stroke: #0000FE; stroke-width: 1" />
    <text class="taxon_text" style="font-family: Verdana; font-style: Italic; fill: red" transform="rotate( 850 587.971014492754)" x="856" y="595">Varanus gouldii</text>
    <polyline points="516,557 516,601 583,601" style="stroke: #1100ED; stroke-width: 1" />
    <polyline points="516,557 516,512 583,512" style="stroke: #FE0000; stroke-width: 1" />
    <polyline points="450,487 450,557 516,557" style="stroke: #0100FD; stroke-width: 1" />
    <polyline points="450,487 450,417 516,417" style="stroke: #0000FE; stroke-width: 1" />
    <polyline points="516,671 516,680 850,680" style="stroke: #0000FE; stroke-width: 1" />
    <text class="taxon_text" style="font-family: Verdana; font-style: Italic; fill: red" transform="rotate( 850 680.724637681159)" x="856" y="688">Varanus indicus **</text>
    <polyline points="516,671 516,662 850,662" style="stroke: #1000EE; stroke-width: 1" />
    <text class="taxon_text" style="font-family: Verdana; font-style: Italic; fill: red" transform="rotate( 850 662.173913043478)" x="856" y="670">Varanus komodoensis</text>
    <polyline points="450,657 450,671 516,671" style="stroke: #0000FE; stroke-width: 1" />
    <polyline points="450,657 450,643 850,643" style="stroke: #2500D9; stroke-width: 1" />
    <text class="taxon_text" style="font-family: Verdana; font-style: Italic; fill: red" transform="rotate( 850 643.623188405797)" x="856" y="651">Varanus komodoensis</text>
    <polyline points="383,572 383,657 450,657" style="stroke: #0000FE; stroke-width: 1" />
    <polyline points="383,572 383,487 450,487" style="stroke: #0000FE; stroke-width: 1" />
    <polyline points="316,434 316,572 383,572" style="stroke: #0000FE; stroke-width: 1" />
    <polyline points="316,434 316,295 383,295" style="stroke: #0000FE; stroke-width: 1" />
    <polyline points="250,330 250,434 316,434" style="stroke: #0000FE; stroke-width: 1" />
    <polyline points="250,330 250,226 316,226" style="stroke: #0000FE; stroke-width: 1" />
    <polyline points="516,727 516,736 850,736" style="stroke: #0000FE; stroke-width: 1" />
    <text class="taxon_text" style="font-family: Verdana; font-style: Italic; fill: red" transform="rotate( 850 736.376811594203)" x="856" y="744">Bungarus multicinctus</text>
    <polyline points="516,727 516,717 850,717" style="stroke: #0000FE; stroke-width: 1" />
    <text class="taxon_text" style="font-family: Verdana; font-style: Italic; fill: red" transform="rotate( 850 717.826086956522)" x="856" y="725">Naja atra</text>
    <polyline points="450,713 450,727 516,727" style="stroke: #0000FE; stroke-width: 1" />
    <polyline points="450,713 450,699 850,699" style="stroke: #0000FE; stroke-width: 1" />
    <text class="taxon_text" style="font-family: Verdana; font-style: Italic; fill: red" transform="rotate( 850 699.275362318841)" x="856" y="707">Ophiophagus hannah</text>
    <polyline points="716,838 716,847 850,847" style="stroke: #0000FE; stroke-width: 1" />
    <text class="taxon_text" style="font-family: Verdana; font-style: Italic; fill: red" transform="rotate( 850 847.68115942029)" x="856" y="855">Ophiophagus hannah</text>
    <polyline points="716,838 716,829 850,829" style="stroke: #0000FE; stroke-width: 1" />
    <text class="taxon_text" style="font-family: Verdana; font-style: Italic; fill: red" transform="rotate( 850 829.130434782609)" x="856" y="837">Ophiophagus hannah</text>
    <polyline points="650,824 650,838 716,838" style="stroke: #0000FE; stroke-width: 1" />
    <polyline points="650,824 650,810 850,810" style="stroke: #0000FE; stroke-width: 1" />
    <text class="taxon_text" style="font-family: Verdana; font-style: Italic; fill: red" transform="rotate( 850 810.579710144928)" x="856" y="818">Ophiophagus hannah</text>
    <polyline points="583,808 583,824 650,824" style="stroke: #FE0000; stroke-width: 1" />
    <polyline points="583,808 583,792 850,792" style="stroke: #FE0000; stroke-width: 1" />
    <text class="taxon_text" style="font-family: Verdana; font-style: Italic; fill: red" transform="rotate( 850 792.028985507246)" x="856" y="800">Ophiophagus hannah</text>
    <polyline points="516,790 516,808 583,808" style="stroke: #FE0000; stroke-width: 1" />
    <polyline points="516,790 516,773 850,773" style="stroke: #0100FD; stroke-width: 1" />
    <text class="taxon_text" style="font-family: Verdana; font-style: Italic; fill: red" transform="rotate( 850 773.478260869565)" x="856" y="781">Ophiophagus hannah *</text>
    <polyline points="450,772 450,790 516,790" style="stroke: #0000FE; stroke-width: 1" />
    <polyline points="450,772 450,754 850,754" style="stroke: #0000FE; stroke-width: 1" />
    <text class="taxon_text" style="font-family: Verdana; font-style: Italic; fill: red" transform="rotate( 850 754.927536231884)" x="856" y="762">Lapemis hardwickii</text>
    <polyline points="383,743 383,772 450,772" style="stroke: #FE0000; stroke-width: 1" />
    <polyline points="383,743 383,713 450,713" style="stroke: #0000FE; stroke-width: 1" />
    <polyline points="650,949 650,958 850,958" style="stroke: #0000FE; stroke-width: 1" />
    <text class="taxon_text" style="font-family: Verdana; font-style: Italic; fill: red" transform="rotate( 850 958.985507246377)" x="856" y="966">Philodryas olfersii</text>
    <polyline points="650,949 650,940 850,940" style="stroke: #0000FE; stroke-width: 1" />
    <text class="taxon_text" style="font-family: Verdana; font-style: Italic; fill: red" transform="rotate( 850 940.434782608696)" x="856" y="948">Philodryas olfersii</text>
    <polyline points="583,935 583,949 650,949" style="stroke: #0000FE; stroke-width: 1" />
    <polyline points="583,935 583,921 850,921" style="stroke: #0000FE; stroke-width: 1" />
    <text class="taxon_text" style="font-family: Verdana; font-style: Italic; fill: red" transform="rotate( 850 921.884057971014)" x="856" y="929">Philodryas olfersii</text>
    <polyline points="516,919 516,935 583,935" style="stroke: #0100FD; stroke-width: 1" />
    <text class="node_text" style="font-family: Verdana; font-style: Italic" transform="rotate( 583.333333333333 935.797101449275)" x="589" y="943"> *</text>
    <polyline points="516,919 516,903 850,903" style="stroke: #0000FE; stroke-width: 1" />
    <text class="taxon_text" style="font-family: Verdana; font-style: Italic; fill: red" transform="rotate( 850 903.333333333333)" x="856" y="911">Philodryas olfersii</text>
    <polyline points="450,902 450,919 516,919" style="stroke: #0000FE; stroke-width: 1" />
    <polyline points="450,902 450,884 850,884" style="stroke: #FE0000; stroke-width: 1" />
    <text class="taxon_text" style="font-family: Verdana; font-style: Italic; fill: red" transform="rotate( 850 884.782608695652)" x="856" y="892">Philodryas olfersii **</text>
    <polyline points="383,884 383,902 450,902" style="stroke: #0000FE; stroke-width: 1" />
    <polyline points="383,884 383,866 850,866" style="stroke: #0000FE; stroke-width: 1" />
    <text class="taxon_text" style="font-family: Verdana; font-style: Italic; fill: red" transform="rotate( 850 866.231884057971)" x="856" y="874">Philodryas olfersii</text>
    <polyline points="316,813 316,884 383,884" style="stroke: #0100FD; stroke-width: 1" />
    <text class="node_text" style="font-family: Verdana; font-style: Italic" transform="rotate( 383.333333333333 884.202898550725)" x="389" y="892"> **</text>
    <polyline points="316,813 316,743 383,743" style="stroke: #0500F9; stroke-width: 1" />
    <polyline points="650,1005 650,1014 850,1014" style="stroke: #0200FC; stroke-width: 1" />
    <text class="taxon_text" style="font-family: Verdana; font-style: Italic; fill: red" transform="rotate( 850 1014.63768115942)" x="856" y="1022">Protobothrops jerdonii</text>
    <polyline points="650,1005 650,996 850,996" style="stroke: #0000FE; stroke-width: 1" />
    <text class="taxon_text" style="font-family: Verdana; font-style: Italic; fill: red" transform="rotate( 850 996.086956521739)" x="856" y="1004">Trimeresurus gramineus</text>
    <polyline points="650,1042 650,1051 850,1051" style="stroke: #0000FE; stroke-width: 1" />
    <text class="taxon_text" style="font-family: Verdana; font-style: Italic; fill: red" transform="rotate( 850 1051.73913043478)" x="856" y="1059">Gloydius ussuriensis</text>
    <polyline points="650,1042 650,1033 850,1033" style="stroke: #0000FE; stroke-width: 1" />
    <text class="taxon_text" style="font-family: Verdana; font-style: Italic; fill: red" transform="rotate( 850 1033.1884057971)" x="856" y="1041">Bothrops jararacussu</text>
    <polyline points="583,1023 583,1042 650,1042" style="stroke: #0600F8; stroke-width: 1" />
    <polyline points="583,1023 583,1005 650,1005" style="stroke: #0000FE; stroke-width: 1" />
    <polyline points="583,1079 583,1088 850,1088" style="stroke: #0000FE; stroke-width: 1" />
    <text class="taxon_text" style="font-family: Verdana; font-style: Italic; fill: red" transform="rotate( 850 1088.84057971014)" x="856" y="1096">Bitis gabonica</text>
    <polyline points="583,1079 583,1070 850,1070" style="stroke: #0000FE; stroke-width: 1" />
    <text class="taxon_text" style="font-family: Verdana; font-style: Italic; fill: red" transform="rotate( 850 1070.28985507246)" x="856" y="1078">Macrovipera lebetina</text>
    <polyline points="516,1051 516,1079 583,1079" style="stroke: #0000FE; stroke-width: 1" />
    <polyline points="516,1051 516,1023 583,1023" style="stroke: #0000FE; stroke-width: 1" />
    <polyline points="516,1116 516,1125 850,1125" style="stroke: #0100FD; stroke-width: 1" />
    <text class="taxon_text" style="font-family: Verdana; font-style: Italic; fill: red" transform="rotate( 850 1125.94202898551)" x="856" y="1133">Lachesis muta</text>
    <polyline points="516,1116 516,1107 850,1107" style="stroke: #0000FE; stroke-width: 1" />
    <text class="taxon_text" style="font-family: Verdana; font-style: Italic; fill: red" transform="rotate( 850 1107.39130434783)" x="856" y="1115">Crotalus atrox</text>
    <polyline points="450,1084 450,1116 516,1116" style="stroke: #0000FE; stroke-width: 1" />
    <polyline points="450,1084 450,1051 516,1051" style="stroke: #FE0000; stroke-width: 1" />
    <polyline points="650,1153 650,1163 850,1163" style="stroke: #0000FE; stroke-width: 1" />
    <text class="taxon_text" style="font-family: Verdana; font-style: Italic; fill: red" transform="rotate( 850 1163.04347826087)" x="856" y="1171">Deinagkistrodon acutus **</text>
    <polyline points="650,1153 650,1144 850,1144" style="stroke: #0000FE; stroke-width: 1" />
    <text class="taxon_text" style="font-family: Verdana; font-style: Italic; fill: red" transform="rotate( 850 1144.49275362319)" x="856" y="1152">Bothrops jararaca</text>
    <polyline points="716,1209 716,1218 850,1218" style="stroke: #0500F9; stroke-width: 1" />
    <text class="taxon_text" style="font-family: Verdana; font-style: Italic; fill: red" transform="rotate( 850 1218.69565217391)" x="856" y="1226">Gloydius halys *</text>
    <polyline points="716,1209 716,1200 850,1200" style="stroke: #0100FD; stroke-width: 1" />
    <text class="taxon_text" style="font-family: Verdana; font-style: Italic; fill: red" transform="rotate( 850 1200.14492753623)" x="856" y="1208">Gloydius ussuriensis</text>
    <polyline points="650,1195 650,1209 716,1209" style="stroke: #0000FE; stroke-width: 1" />
    <polyline points="650,1195 650,1181 850,1181" style="stroke: #0000FE; stroke-width: 1" />
    <text class="taxon_text" style="font-family: Verdana; font-style: Italic; fill: red" transform="rotate( 850 1181.59420289855)" x="856" y="1189">Trimeresurus flavoviridis *</text>
    <polyline points="583,1174 583,1195 650,1195" style="stroke: #FE0000; stroke-width: 1" />
    <polyline points="583,1174 583,1153 650,1153" style="stroke: #0000FE; stroke-width: 1" />
    <polyline points="583,1246 583,1255 850,1255" style="stroke: #0000FE; stroke-width: 1" />
    <text class="taxon_text" style="font-family: Verdana; font-style: Italic; fill: red" transform="rotate( 850 1255.79710144928)" x="856" y="1263">Cerastes cerastes **</text>
    <polyline points="583,1246 583,1237 850,1237" style="stroke: #0000FE; stroke-width: 1" />
    <text class="taxon_text" style="font-family: Verdana; font-style: Italic; fill: red" transform="rotate( 850 1237.24637681159)" x="856" y="1245">Macrovipera lebetina **</text>
    <polyline points="516,1210 516,1246 583,1246" style="stroke: #0800F6; stroke-width: 1" />
    <text class="node_text" style="font-family: Verdana; font-style: Italic" transform="rotate( 583.333333333333 1246.52173913043)" x="589" y="1254"> *</text>
    <polyline points="516,1210 516,1174 583,1174" style="stroke: #0000FE; stroke-width: 1" />
    <polyline points="583,1302 583,1311 850,1311" style="stroke: #0000FE; stroke-width: 1" />
    <text class="taxon_text" style="font-family: Verdana; font-style: Italic; fill: red" transform="rotate( 850 1311.44927536232)" x="856" y="1319">Protobothrops mucrosquamatus</text>
    <polyline points="583,1302 583,1292 850,1292" style="stroke: #0100FD; stroke-width: 1" />
    <text class="taxon_text" style="font-family: Verdana; font-style: Italic; fill: red" transform="rotate( 850 1292.89855072464)" x="856" y="1300">Crotalus adamanteus</text>
    <polyline points="516,1288 516,1302 583,1302" style="stroke: #0000FE; stroke-width: 1" />
    <polyline points="516,1288 516,1274 850,1274" style="stroke: #0000FE; stroke-width: 1" />
    <text class="taxon_text" style="font-family: Verdana; font-style: Italic; fill: red" transform="rotate( 850 1274.34782608696)" x="856" y="1282">Viridovipera stejnegeri</text>
    <polyline points="450,1249 450,1288 516,1288" style="stroke: #0800F6; stroke-width: 1" />
    <polyline points="450,1249 450,1210 516,1210" style="stroke: #FE0000; stroke-width: 1" />
    <polyline points="383,1166 383,1249 450,1249" style="stroke: #F80006; stroke-width: 1" />
    <polyline points="383,1166 383,1084 450,1084" style="stroke: #0200FC; stroke-width: 1" />
    <polyline points="316,1072 316,1166 383,1166" style="stroke: #FE0000; stroke-width: 1" />
    <text class="node_text" style="font-family: Verdana; font-style: Italic" transform="rotate( 383.333333333333 1166.8115942029)" x="389" y="1174"> **</text>
    <polyline points="316,1072 316,977 850,977" style="stroke: #0000FE; stroke-width: 1" />
    <text class="taxon_text" style="font-family: Verdana; font-style: Italic" transform="rotate( 850 977.536231884058)" x="856" y="985">Python molurus</text>
    <polyline points="250,942 250,1072 316,1072" style="stroke: #0000FE; stroke-width: 1" />
    <polyline points="250,942 250,813 316,813" style="stroke: #0000FE; stroke-width: 1" />
    <polyline points="183,636 183,942 250,942" style="stroke: #0000FE; stroke-width: 1" />
    <polyline points="183,636 183,330 250,330" style="stroke: #0000FE; stroke-width: 1" />
    <polyline points="116,383 116,636 183,636" style="stroke: #0100FD; stroke-width: 1" />
    <polyline points="116,383 116,130 183,130" style="stroke: #0000FE; stroke-width: 1" />
    <polyline points="50,167 50,383 116,383" style="stroke: #0000FE; stroke-width: 1" />
    <polyline points="50,167 50,68 850,68" style="stroke: #0000FE; stroke-width: 1" />
    <text class="taxon_text" style="font-family: Verdana; font-style: Italic" transform="rotate( 850 68.5507246376812)" x="856" y="76">Gallus gallus</text>
    <polyline points="50,167 50,50 850,50" style="stroke: #0900F5; stroke-width: 1" />
    <text class="taxon_text" style="font-family: Verdana; font-style: Italic" transform="rotate( 850 50)" x="856" y="58">Homo sapiens</text>
    <text class="node_text" style="font-family: Verdana; font-style: Italic" transform="rotate( 50 167.273550724638)" x="56" y="175"> **</text>
</svg>