<svg height="640" width="1200" xmlns="http://www.w3.org/2000/svg" xmlns:svg="http://www.w3.org/2000/svg" xmlns:xlink="http://www.w3.org/1999/xlink">
    <style type="text/css"><![CDATA[
	polyline { fill: none; stroke: black; stroke-width: 1 }
	path { fill: none; stroke: black; stroke-width: 1 }
	line { fill: none; stroke: black; stroke-width: 1 }
	circle.node_circle  {}
	circle.taxon_circle {}
	text.node_text      {}
	text.taxon_text     {}
	line.scale_bar      {}
	text.scale_label    {}
	line.scale_major    {}
	line.scale_minor    {}
]]></style>
    <polyline points="370,75 370,83 850,83" style="stroke: #0000FE; stroke-width: 1" />
    <text class="taxon_text" style="font-family: Verdana; font-style: Italic; fill: red" transform="rotate( 850 83.75)" x="856" y="91">Ophiophagus hannah</text>
    <polyline points="370,75 370,66 850,66" style="stroke: #0000FE; stroke-width: 1" />
    <text class="taxon_text" style="font-family: Verdana; font-style: Italic; fill: red" transform="rotate( 850 66.875)" x="856" y="74">Naja atra</text>
    <polyline points="450,109 450,117 850,117" style="stroke: #0000FE; stroke-width: 1" />
    <text class="taxon_text" style="font-family: Verdana; font-style: Italic; fill: red" transform="rotate( 850 117.5)" x="856" y="125">Bungarus multicinctus</text>
    <polyline points="450,109 450,100 850,100" style="stroke: #0000FE; stroke-width: 1" />
    <text class="taxon_text" style="font-family: Verdana; font-style: Italic; fill: red" transform="rotate( 850 100.625)" x="856" y="108">Bungarus fasciatus</text>
    <polyline points="530,142 530,151 850,151" style="stroke: #0000FE; stroke-width: 1" />
    <text class="taxon_text" style="font-family: Verdana; font-style: Italic; fill: red" transform="rotate( 850 151.25)" x="856" y="159">Notechis scutatus</text>
    <polyline points="530,142 530,134 850,134" style="stroke: #0000FE; stroke-width: 1" />
    <text class="taxon_text" style="font-family: Verdana; font-style: Italic; fill: red" transform="rotate( 850 134.375)" x="856" y="142">Oxyuranus scutellatus</text>
    <polyline points="530,176 530,185 850,185" style="stroke: #0000FE; stroke-width: 1" />
    <text class="taxon_text" style="font-family: Verdana; font-style: Italic; fill: red" transform="rotate( 850 185)" x="856" y="193">Pseudechis australis</text>
    <polyline points="530,176 530,168 850,168" style="stroke: #0000FE; stroke-width: 1" />
    <text class="taxon_text" style="font-family: Verdana; font-style: Italic; fill: red" transform="rotate( 850 168.125)" x="856" y="176">Demansia vestigiata *</text>
    <polyline points="450,159 450,176 530,176" style="stroke: #FE0000; stroke-width: 1" />
    <polyline points="450,159 450,142 530,142" style="stroke: #3900C5; stroke-width: 1" />
    <text class="node_text" style="font-family: Verdana; font-style: Italic" transform="rotate( 530 142.8125)" x="536" y="150"> *</text>
    <polyline points="370,134 370,159 450,159" style="stroke: #0000FE; stroke-width: 1" />
    <polyline points="370,134 370,109 450,109" style="stroke: #0000FE; stroke-width: 1" />
    <polyline points="290,104 290,134 370,134" style="stroke: #0000FE; stroke-width: 1" />
    <polyline points="290,104 290,75 370,75" style="stroke: #FE0000; stroke-width: 1" />
    <polyline points="370,210 370,218 850,218" style="stroke: #0000FE; stroke-width: 1" />
    <text class="taxon_text" style="font-family: Verdana; font-style: Italic; fill: red" transform="rotate( 850 218.75)" x="856" y="226">Echis ocellatus</text>
    <polyline points="370,210 370,201 850,201" style="stroke: #0000FE; stroke-width: 1" />
    <text class="taxon_text" style="font-family: Verdana; font-style: Italic; fill: red" transform="rotate( 850 201.875)" x="856" y="209">Daboia russellii</text>
    <polyline points="690,277 690,286 850,286" style="stroke: #FE0000; stroke-width: 1" />
    <text class="taxon_text" style="font-family: Verdana; font-style: Italic; fill: red" transform="rotate( 850 286.25)" x="856" y="294">Bothrops moojeni **</text>
    <polyline points="690,277 690,269 850,269" style="stroke: #2100DD; stroke-width: 1" />
    <text class="taxon_text" style="font-family: Verdana; font-style: Italic; fill: red" transform="rotate( 850 269.375)" x="856" y="277">Bothrops jararacussu **</text>
    <polyline points="610,265 610,277 690,277" style="stroke: #3700C7; stroke-width: 1" />
    <text class="node_text" style="font-family: Verdana; font-style: Italic" transform="rotate( 690 277.8125)" x="696" y="285"> **</text>
    <polyline points="610,265 610,252 850,252" style="stroke: #0000FE; stroke-width: 1" />
    <text class="taxon_text" style="font-family: Verdana; font-style: Italic; fill: red" transform="rotate( 850 252.5)" x="856" y="260">Bothropoides pauloensis</text>
    <polyline points="770,345 770,353 850,353" style="stroke: #0000FE; stroke-width: 1" />
    <text class="taxon_text" style="font-family: Verdana; font-style: Italic; fill: red" transform="rotate( 850 353.75)" x="856" y="361">Crotalus adamanteus</text>
    <polyline points="770,345 770,336 850,336" style="stroke: #0000FE; stroke-width: 1" />
    <text class="taxon_text" style="font-family: Verdana; font-style: Italic; fill: red" transform="rotate( 850 336.875)" x="856" y="344">Crotalus atrox</text>
    <polyline points="690,332 690,345 770,345" style="stroke: #0000FE; stroke-width: 1" />
    <polyline points="690,332 690,320 850,320" style="stroke: #0000FE; stroke-width: 1" />
    <text class="taxon_text" style="font-family: Verdana; font-style: Italic; fill: red" transform="rotate( 850 320)" x="856" y="328">Crotalus adamanteus</text>
    <polyline points="610,317 610,332 690,332" style="stroke: #FE0000; stroke-width: 1" />
    <polyline points="610,317 610,303 850,303" style="stroke: #0000FE; stroke-width: 1" />
    <text class="taxon_text" style="font-family: Verdana; font-style: Italic; fill: red" transform="rotate( 850 303.125)" x="856" y="311">Sistrurus catenatus edwardsi</text>
    <polyline points="530,291 530,317 610,317" style="stroke: #0000FE; stroke-width: 1" />
    <text class="node_text" style="font-family: Verdana; font-style: Italic" transform="rotate( 610 317.890625)" x="616" y="325"> *</text>
    <polyline points="530,291 530,265 610,265" style="stroke: #0100FD; stroke-width: 1" />
    <text class="node_text" style="font-family: Verdana; font-style: Italic" transform="rotate( 610 265.15625)" x="616" y="273"> **</text>
    <polyline points="610,379 610,387 850,387" style="stroke: #0000FE; stroke-width: 1" />
    <text class="taxon_text" style="font-family: Verdana; font-style: Italic; fill: red" transform="rotate( 850 387.5)" x="856" y="395">Viridovipera stejnegeri</text>
    <polyline points="610,379 610,370 850,370" style="stroke: #0000FE; stroke-width: 1" />
    <text class="taxon_text" style="font-family: Verdana; font-style: Italic; fill: red" transform="rotate( 850 370.625)" x="856" y="378">Viridovipera stejnegeri</text>
    <polyline points="610,412 610,421 850,421" style="stroke: #0000FE; stroke-width: 1" />
    <text class="taxon_text" style="font-family: Verdana; font-style: Italic; fill: red" transform="rotate( 850 421.25)" x="856" y="429">Gloydius halys</text>
    <polyline points="610,412 610,404 850,404" style="stroke: #0000FE; stroke-width: 1" />
    <text class="taxon_text" style="font-family: Verdana; font-style: Italic; fill: red" transform="rotate( 850 404.375)" x="856" y="412">Gloydius blomhoffi</text>
    <polyline points="530,395 530,412 610,412" style="stroke: #FE0000; stroke-width: 1" />
    <text class="node_text" style="font-family: Verdana; font-style: Italic" transform="rotate( 610 412.8125)" x="616" y="420"> **</text>
    <polyline points="530,395 530,379 610,379" style="stroke: #0000FE; stroke-width: 1" />
    <polyline points="450,343 450,395 530,395" style="stroke: #FE0000; stroke-width: 1" />
    <polyline points="450,343 450,291 530,291" style="stroke: #0000FE; stroke-width: 1" />
    <polyline points="370,289 370,343 450,343" style="stroke: #0000FE; stroke-width: 1" />
    <polyline points="370,289 370,235 850,235" style="stroke: #0000FE; stroke-width: 1" />
    <text class="taxon_text" style="font-family: Verdana; font-style: Italic; fill: red" transform="rotate( 850 235.625)" x="856" y="243">Calloselasma rhodostoma</text>
    <polyline points="290,249 290,289 370,289" style="stroke: #FE0000; stroke-width: 1" />
    <text class="node_text" style="font-family: Verdana; font-style: Italic" transform="rotate( 370 289.677734375)" x="376" y="297"> **</text>
    <polyline points="290,249 290,210 370,210" style="stroke: #0000FE; stroke-width: 1" />
    <polyline points="210,177 210,249 290,249" style="stroke: #0000FE; stroke-width: 1" />
    <polyline points="210,177 210,104 290,104" style="stroke: #0000FE; stroke-width: 1" />
    <polyline points="290,463 290,471 850,471" style="stroke: #FE0000; stroke-width: 1" />
    <text class="taxon_text" style="font-family: Verdana; font-style: Italic" transform="rotate( 850 471.875)" x="856" y="479">Anolis carolinensis</text>
    <polyline points="290,463 290,455 850,455" style="stroke: #0000FE; stroke-width: 1" />
    <text class="taxon_text" style="font-family: Verdana; font-style: Italic" transform="rotate( 850 455)" x="856" y="463">Anolis carolinensis</text>
    <polyline points="210,450 210,463 290,463" style="stroke: #FE0000; stroke-width: 1" />
    <polyline points="210,450 210,438 850,438" style="stroke: #0000FE; stroke-width: 1" />
    <text class="taxon_text" style="font-family: Verdana; font-style: Italic" transform="rotate( 850 438.125)" x="856" y="446">Anolis carolinensis</text>
    <polyline points="130,314 130,450 210,450" style="stroke: #0000FE; stroke-width: 1" />
    <polyline points="130,314 130,177 210,177" style="stroke: #0000FE; stroke-width: 1" />
    <polyline points="290,497 290,505 850,505" style="stroke: #0000FE; stroke-width: 1" />
    <text class="taxon_text" style="font-family: Verdana; font-style: Italic; fill: red" transform="rotate( 850 505.625)" x="856" y="513">Ophiophagus hannah</text>
    <polyline points="290,497 290,488 850,488" style="stroke: #F50009; stroke-width: 1" />
    <text class="taxon_text" style="font-family: Verdana; font-style: Italic; fill: red" transform="rotate( 850 488.75)" x="856" y="496">Ophiophagus hannah</text>
    <polyline points="290,530 290,539 850,539" style="stroke: #0000FE; stroke-width: 1" />
    <text class="taxon_text" style="font-family: Verdana; font-style: Italic" transform="rotate( 850 539.375)" x="856" y="547">Anolis carolinensis</text>
    <polyline points="290,530 290,522 850,522" style="stroke: #0000FE; stroke-width: 1" />
    <text class="taxon_text" style="font-family: Verdana; font-style: Italic" transform="rotate( 850 522.5)" x="856" y="530">Anolis carolinensis</text>
    <polyline points="210,514 210,530 290,530" style="stroke: #0000FE; stroke-width: 1" />
    <text class="node_text" style="font-family: Verdana; font-style: Italic" transform="rotate( 290 530.9375)" x="296" y="538"> *</text>
    <polyline points="210,514 210,497 290,497" style="stroke: #0000FE; stroke-width: 1" />
    <polyline points="210,564 210,573 850,573" style="stroke: #0000FE; stroke-width: 1" />
    <text class="taxon_text" style="font-family: Verdana; font-style: Italic" transform="rotate( 850 573.125)" x="856" y="581">Meleagris gallopavo</text>
    <polyline points="210,564 210,556 850,556" style="stroke: #0100FD; stroke-width: 1" />
    <text class="taxon_text" style="font-family: Verdana; font-style: Italic" transform="rotate( 850 556.25)" x="856" y="564">Gallus gallus **</text>
    <polyline points="130,539 130,564 210,564" style="stroke: #0000FE; stroke-width: 1" />
    <polyline points="130,539 130,514 210,514" style="stroke: #2D00D1; stroke-width: 1" />
    <polyline points="50,301 50,539 130,539" style="stroke: #FE0000; stroke-width: 1" />
    <polyline points="50,301 50,314 130,314" style="stroke: #0100FD; stroke-width: 1" />
    <polyline points="50,301 50,50 850,50" style="stroke: #1E00E0; stroke-width: 1" />
    <text class="taxon_text" style="font-family: Verdana; font-style: Italic" transform="rotate( 850 50)" x="856" y="58">Xenopus (Silurana) tropicalis</text>
    <text class="node_text" style="font-family: Verdana; font-style: Italic" transform="rotate( 50 301.158447265625)" x="56" y="309"> **</text>
</svg>