<svg height="1650" width="1500" xmlns="http://www.w3.org/2000/svg" xmlns:svg="http://www.w3.org/2000/svg" xmlns:xlink="http://www.w3.org/1999/xlink">
    <style type="text/css"><![CDATA[
	polyline { fill: none; stroke: black; stroke-width: 1 }
	path { fill: none; stroke: black; stroke-width: 1 }
	line { fill: none; stroke: black; stroke-width: 1 }
	circle.node_circle  {}
	circle.taxon_circle {}
	text.node_text      {}
	text.taxon_text     {}
	line.scale_bar      {}
	text.scale_label    {}
	line.scale_major    {}
	line.scale_minor    {}
]]></style>
    <polyline points="910,120 910,143 978,143" style="stroke: black; stroke-width: 1" />
    <text class="taxon_text" style="" transform="rotate( 978.40775678165 143.939393939394)" x="984" y="147">N atra 126035676 EF080839</text>
    <polyline points="910,120 910,96 964,96" style="stroke: black; stroke-width: 1" />
    <text class="taxon_text" style="" transform="rotate( 964.636596861605 96.969696969697)" x="970" y="100">Oh s1289 gene1</text>
    <polyline points="961,214 961,237 974,237" style="stroke: black; stroke-width: 1" />
    <text class="taxon_text" style="" transform="rotate( 974.761141775911 237.878787878788)" x="980" y="241">B fasciatus 126035652 EF080833</text>
    <polyline points="961,214 961,190 992,190" style="stroke: black; stroke-width: 1" />
    <text class="taxon_text" style="" transform="rotate( 992.687861614419 190.909090909091)" x="998" y="194">B multicinctus 126035648 EF08083</text>
    <polyline points="936,308 936,331 965,331" style="stroke: black; stroke-width: 1" />
    <text class="taxon_text" style="" transform="rotate( 965.186718547204 331.818181818182)" x="971" y="335">O scutellatus 68304015 DQ088990</text>
    <polyline points="936,308 936,284 963,284" style="stroke: black; stroke-width: 1" />
    <text class="taxon_text" style="" transform="rotate( 963.610471681581 284.848484848485)" x="969" y="288">N scutatus 68304017 DQ088991</text>
    <polyline points="944,402 944,425 1067,425" style="stroke: black; stroke-width: 1" />
    <text class="taxon_text" style="" transform="rotate( 1067.23264415494 425.757575757576)" x="1073" y="429">D vestigiata 118151719 DQ917521</text>
    <polyline points="944,402 944,378 992,378" style="stroke: black; stroke-width: 1" />
    <text class="taxon_text" style="" transform="rotate( 992.458918757239 378.787878787879)" x="998" y="382">P australis 68304019 DQ088992</text>
    <polyline points="930,355 930,402 944,402" style="stroke: black; stroke-width: 1" />
    <text class="node_text" style="" transform="rotate( 944.863510527419 402.272727272727)" x="950" y="406">1.00</text>
    <polyline points="930,355 930,308 936,308" style="stroke: black; stroke-width: 1" />
    <text class="node_text" style="" transform="rotate( 936.521096343107 308.333333333333)" x="942" y="312">0.99</text>
    <polyline points="910,284 910,355 930,355" style="stroke: black; stroke-width: 1" />
    <text class="node_text" style="" transform="rotate( 930.305050710019 355.30303030303)" x="936" y="359">1.00</text>
    <polyline points="910,284 910,214 961,214" style="stroke: black; stroke-width: 1" />
    <text class="node_text" style="" transform="rotate( 961.055864692466 214.393939393939)" x="967" y="218">1.00</text>
    <polyline points="899,202 899,284 910,284" style="stroke: black; stroke-width: 1" />
    <text class="node_text" style="" transform="rotate( 910.571494077792 284.848484848485)" x="916" y="288">0.83</text>
    <polyline points="899,202 899,120 910,120" style="stroke: black; stroke-width: 1" />
    <text class="node_text" style="" transform="rotate( 910.66373004903 120.454545454545)" x="916" y="124">0.99</text>
    <polyline points="999,496 999,519 1010,519" style="stroke: black; stroke-width: 1" />
    <text class="taxon_text" style="" transform="rotate( 1010.99834897611 519.69696969697)" x="1016" y="523">D russellii 70797644 DQ104365</text>
    <polyline points="999,496 999,472 1010,472" style="stroke: black; stroke-width: 1" />
    <text class="taxon_text" style="" transform="rotate( 1010.7990533954 472.727272727273)" x="1016" y="476">D russelii 194400544 EU663622</text>
    <polyline points="957,531 957,566 1034,566" style="stroke: black; stroke-width: 1" />
    <text class="taxon_text" style="" transform="rotate( 1034.71287600982 566.666666666667)" x="1040" y="570">E ocellatus 205275158 FM177950</text>
    <polyline points="957,531 957,496 999,496" style="stroke: black; stroke-width: 1" />
    <text class="node_text" style="" transform="rotate( 999.717560279502 496.212121212121)" x="1005" y="500">1.00</text>
    <polyline points="1035,684 1035,707 1058,707" style="stroke: black; stroke-width: 1" />
    <text class="taxon_text" style="" transform="rotate( 1058.41916768895 707.575757575758)" x="1064" y="711">B jararacussu 39841343 AY398691</text>
    <polyline points="1035,684 1035,660 1047,660" style="stroke: black; stroke-width: 1" />
    <text class="taxon_text" style="" transform="rotate( 1047.04284887927 660.606060606061)" x="1053" y="664">B moojeni 39841345 AY398692</text>
    <polyline points="999,648 999,684 1035,684" style="stroke: black; stroke-width: 1" />
    <text class="node_text" style="" transform="rotate( 1035.17735000784 684.090909090909)" x="1041" y="688">1.00</text>
    <polyline points="999,648 999,613 1007,613" style="stroke: black; stroke-width: 1" />
    <text class="taxon_text" style="" transform="rotate( 1007.2331448645 613.636363636364)" x="1013" y="617">B neuwiedi 195927837 EU870608</text>
    <polyline points="1036,778 1036,801 1039,801" style="stroke: black; stroke-width: 1" />
    <text class="taxon_text" style="" transform="rotate( 1039.49102873414 801.515151515152)" x="1045" y="805">C atrox 5565691 AF093248</text>
    <polyline points="1036,778 1036,754 1039,754" style="stroke: black; stroke-width: 1" />
    <text class="taxon_text" style="" transform="rotate( 1039.45479317401 754.545454545455)" x="1045" y="758">C adamanteus 338855295 HQ414099</text>
    <polyline points="1024,813 1024,848 1031,848" style="stroke: black; stroke-width: 1" />
    <text class="taxon_text" style="" transform="rotate( 1031.44838145635 848.484848484848)" x="1037" y="852">C adamanteus 3426323 AF071564</text>
    <polyline points="1024,813 1024,778 1036,778" style="stroke: black; stroke-width: 1" />
    <text class="node_text" style="" transform="rotate( 1036.98253973064 778.030303030303)" x="1042" y="782">1.00</text>
    <polyline points="1012,854 1012,895 1036,895" style="stroke: black; stroke-width: 1" />
    <text class="taxon_text" style="" transform="rotate( 1036.49171259798 895.454545454545)" x="1042" y="899">S catenatus 109254995 DQ464267</text>
    <polyline points="1012,854 1012,813 1024,813" style="stroke: black; stroke-width: 1" />
    <text class="node_text" style="" transform="rotate( 1024.8617448674 813.257575757576)" x="1030" y="817">1.00</text>
    <polyline points="962,751 962,854 1012,854" style="stroke: black; stroke-width: 1" />
    <text class="node_text" style="" transform="rotate( 1012.82495062081 854.356060606061)" x="1018" y="858">1.00</text>
    <polyline points="962,751 962,648 999,648" style="stroke: black; stroke-width: 1" />
    <text class="node_text" style="" transform="rotate( 999.969562129491 648.863636363636)" x="1005" y="652">1.00</text>
    <polyline points="996,965 996,989 1004,989" style="stroke: black; stroke-width: 1" />
    <text class="taxon_text" style="" transform="rotate( 1004.31453520318 989.393939393939)" x="1010" y="993">V stejnegeri 34014952 AY277739</text>
    <polyline points="996,965 996,942 1006,942" style="stroke: black; stroke-width: 1" />
    <text class="taxon_text" style="" transform="rotate( 1006.80161228478 942.424242424242)" x="1012" y="946">V stejnegeri 33355626 AY338966</text>
    <polyline points="976,1059 976,1083 980,1083" style="stroke: black; stroke-width: 1" />
    <text class="taxon_text" style="" transform="rotate( 980.92777528155 1083.33333333333)" x="986" y="1087">G blomhoffi 15887053 AB072392</text>
    <polyline points="976,1059 976,1036 988,1036" style="stroke: black; stroke-width: 1" />
    <text class="taxon_text" style="" transform="rotate( 988.308300051521 1036.36363636364)" x="994" y="1040">G halys 38426270 AY450403</text>
    <polyline points="951,1012 951,1059 976,1059" style="stroke: black; stroke-width: 1" />
    <text class="node_text" style="" transform="rotate( 976.86609840524 1059.84848484848)" x="982" y="1063">1.00</text>
    <polyline points="951,1012 951,965 996,965" style="stroke: black; stroke-width: 1" />
    <text class="node_text" style="" transform="rotate( 996.914245582226 965.909090909091)" x="1002" y="969">1.00</text>
    <polyline points="942,882 942,1012 951,1012" style="stroke: black; stroke-width: 1" />
    <text class="node_text" style="" transform="rotate( 951.542383087612 1012.87878787879)" x="957" y="1016">0.97</text>
    <polyline points="942,882 942,751 962,751" style="stroke: black; stroke-width: 1" />
    <text class="node_text" style="" transform="rotate( 962.378462637184 751.609848484848)" x="968" y="755">1.00</text>
    <polyline points="933,1006 933,1130 1008,1130" style="stroke: black; stroke-width: 1" />
    <text class="taxon_text" style="" transform="rotate( 1008.31032924289 1130.30303030303)" x="1014" y="1134">C rhodostoma 6850959 AJ271725</text>
    <polyline points="933,1006 933,882 942,882" style="stroke: black; stroke-width: 1" />
    <text class="node_text" style="" transform="rotate( 942.664670855937 882.244318181818)" x="948" y="886">0.96</text>
    <polyline points="908,768 908,1006 933,1006" style="stroke: black; stroke-width: 1" />
    <text class="node_text" style="" transform="rotate( 933.742487709557 1006.27367424242)" x="939" y="1010">1.00</text>
    <polyline points="908,768 908,531 957,531" style="stroke: black; stroke-width: 1" />
    <text class="node_text" style="" transform="rotate( 957.961018443241 531.439393939394)" x="963" y="535">1.00</text>
    <polyline points="821,485 821,768 908,768" style="stroke: black; stroke-width: 1" />
    <text class="node_text" style="" transform="rotate( 908.753127787668 768.856534090909)" x="914" y="772">1.00</text>
    <polyline points="821,485 821,202 899,202" style="stroke: black; stroke-width: 1" />
    <text class="node_text" style="" transform="rotate( 899.582236933128 202.651515151515)" x="905" y="206">1.00</text>
    <polyline points="1110,1200 1110,1224 1111,1224" style="stroke: black; stroke-width: 1" />
    <text class="taxon_text" style="" transform="rotate( 1111.90614858161 1224.24242424242)" x="1117" y="1228">A carolinensis 327266255 XM 0032</text>
    <polyline points="1110,1200 1110,1177 1115,1177" style="stroke: black; stroke-width: 1" />
    <text class="taxon_text" style="" transform="rotate( 1115.1409958586 1177.27272727273)" x="1121" y="1181">A carolinensis 327266257 XM 0032</text>
    <polyline points="1102,1235 1102,1271 1105,1271" style="stroke: black; stroke-width: 1" />
    <text class="taxon_text" style="" transform="rotate( 1105.05103943351 1271.21212121212)" x="1111" y="1275">A carolinensis 327266253 XM 0032</text>
    <polyline points="1102,1235 1102,1200 1110,1200" style="stroke: black; stroke-width: 1" />
    <text class="node_text" style="" transform="rotate( 1110.67743367904 1200.75757575758)" x="1116" y="1204">0.96</text>
    <polyline points="506,860 506,1235 1102,1235" style="stroke: black; stroke-width: 1" />
    <text class="node_text" style="" transform="rotate( 1102.56890356466 1235.98484848485)" x="1108" y="1239">1.00</text>
    <polyline points="506,860 506,485 821,485" style="stroke: black; stroke-width: 1" />
    <text class="node_text" style="" transform="rotate( 821.908019654168 485.754024621212)" x="827" y="489">1.00</text>
    <polyline points="1146,1341 1146,1365 1154,1365" style="stroke: black; stroke-width: 1" />
    <text class="taxon_text" style="" transform="rotate( 1154.67399195966 1365.15151515152)" x="1160" y="1369">O hannah 126035643 EF080831</text>
    <polyline points="1146,1341 1146,1318 1153,1318" style="stroke: black; stroke-width: 1" />
    <text class="taxon_text" style="" transform="rotate( 1153.09609802312 1318.18181818182)" x="1159" y="1322">Oh s11029 gene2</text>
    <polyline points="793,1435 793,1459 1010,1459" style="stroke: black; stroke-width: 1" />
    <text class="taxon_text" style="" transform="rotate( 1010.6557582258 1459.09090909091)" x="1016" y="1463">A carolinensis 327266285 XM 0032</text>
    <polyline points="793,1435 793,1412 1210,1412" style="stroke: black; stroke-width: 1" />
    <text class="taxon_text" style="" transform="rotate( 1210.8769927911 1412.12121212121)" x="1216" y="1416">A carolinensis 327266287 XM 0032</text>
    <polyline points="490,1388 490,1435 793,1435" style="stroke: black; stroke-width: 1" />
    <text class="node_text" style="" transform="rotate( 793.883108035993 1435.60606060606)" x="799" y="1439">1.00</text>
    <polyline points="490,1388 490,1341 1146,1341" style="stroke: black; stroke-width: 1" />
    <text class="node_text" style="" transform="rotate( 1146.18992967666 1341.66666666667)" x="1152" y="1345">1.00</text>
    <polyline points="1019,1529 1019,1553 1110,1553" style="stroke: black; stroke-width: 1" />
    <text class="taxon_text" style="" transform="rotate( 1110.45178496369 1553.0303030303)" x="1116" y="1557">G gallus 363740242 XR 140281</text>
    <polyline points="1019,1529 1019,1506 1099,1506" style="stroke: black; stroke-width: 1" />
    <text class="taxon_text" style="" transform="rotate( 1099.26817345106 1506.06060606061)" x="1105" y="1510">M gallopavo 326930091 XM 0032111</text>
    <polyline points="223,1459 223,1529 1019,1529" style="stroke: black; stroke-width: 1" />
    <text class="node_text" style="" transform="rotate( 1019.45770519539 1529.54545454545)" x="1025" y="1533">1.00</text>
    <polyline points="223,1459 223,1388 490,1388" style="stroke: black; stroke-width: 1" />
    <text class="node_text" style="" transform="rotate( 490.03146564276 1388.63636363636)" x="496" y="1392">1.00</text>
    <polyline points="50,789 50,1459 223,1459" style="stroke: black; stroke-width: 1" />
    <text class="node_text" style="" transform="rotate( 223.40856714054 1459.09090909091)" x="229" y="1463">1.00</text>
    <polyline points="50,789 50,860 506,860" style="stroke: black; stroke-width: 1" />
    <text class="node_text" style="" transform="rotate( 506.161231113038 860.86943655303)" x="512" y="864">1.00</text>
    <polyline points="50,789 50,50 1300,50" style="stroke: black; stroke-width: 1" />
    <text class="taxon_text" style="" transform="rotate( 1300 50)" x="1306" y="54">X tropicalis 301618495 XM 002938</text>
</svg>