<svg height="2150" width="1500" xmlns="http://www.w3.org/2000/svg" xmlns:svg="http://www.w3.org/2000/svg" xmlns:xlink="http://www.w3.org/1999/xlink">
    <style type="text/css"><![CDATA[
	polyline { fill: none; stroke: black; stroke-width: 1 }
	path { fill: none; stroke: black; stroke-width: 1 }
	line { fill: none; stroke: black; stroke-width: 1 }
	circle.node_circle  {}
	circle.taxon_circle {}
	text.node_text      {}
	text.taxon_text     {}
	line.scale_bar      {}
	text.scale_label    {}
	line.scale_major    {}
	line.scale_minor    {}
]]></style>
    <polyline points="713,169 713,193 788,193" style="stroke: black; stroke-width: 1" />
    <text class="taxon_text" style="" transform="rotate( 788.203360429619 193.023255813953)" x="794" y="197">Thamnophis elegans contig10774</text>
    <polyline points="713,169 713,145 742,145" style="stroke: black; stroke-width: 1" />
    <text class="taxon_text" style="" transform="rotate( 742.469239372434 145.348837209302)" x="748" y="149">Oh gene1 3522 PT</text>
    <polyline points="693,204 693,240 741,240" style="stroke: black; stroke-width: 1" />
    <text class="taxon_text" style="" transform="rotate( 741.873370368776 240.697674418605)" x="747" y="244">Thrasops jacksoni 156485269 EU02</text>
    <polyline points="693,204 693,169 713,169" style="stroke: black; stroke-width: 1" />
    <text class="node_text" style="" transform="rotate( 713.334326274261 169.186046511628)" x="719" y="173">0.92</text>
    <polyline points="773,312 773,336 826,336" style="stroke: black; stroke-width: 1" />
    <text class="taxon_text" style="" transform="rotate( 826.112327103987 336.046511627907)" x="832" y="340">Pseudo textilis 145699566 EF1947</text>
    <polyline points="773,312 773,288 798,288" style="stroke: black; stroke-width: 1" />
    <text class="taxon_text" style="" transform="rotate( 798.1550516949 288.372093023256)" x="804" y="292">Oh gene2 3522 unknown</text>
    <polyline points="752,407 752,431 836,431" style="stroke: black; stroke-width: 1" />
    <text class="taxon_text" style="" transform="rotate( 836.010228266396 431.395348837209)" x="842" y="435">Bitis gabonica 37993390 Q6T7B7</text>
    <polyline points="752,407 752,383 807,383" style="stroke: black; stroke-width: 1" />
    <text class="taxon_text" style="" transform="rotate( 807.063319411271 383.720930232558)" x="813" y="387">Trimeresurus stejnegeri 4325093 </text>
    <polyline points="710,359 710,407 752,407" style="stroke: black; stroke-width: 1" />
    <text class="node_text" style="" transform="rotate( 752.000010026893 407.558139534884)" x="758" y="411">0.98</text>
    <polyline points="710,359 710,312 773,312" style="stroke: black; stroke-width: 1" />
    <text class="node_text" style="" transform="rotate( 773.749489777374 312.209302325581)" x="779" y="316">1.00</text>
    <polyline points="737,502 737,526 776,526" style="stroke: black; stroke-width: 1" />
    <text class="taxon_text" style="" transform="rotate( 776.983684991788 526.744186046512)" x="782" y="530">Oh gene7 7459 unknown</text>
    <polyline points="737,502 737,479 790,479" style="stroke: black; stroke-width: 1" />
    <text class="taxon_text" style="" transform="rotate( 790.670393885601 479.069767441861)" x="796" y="483">Oh gene4 7459 unknown</text>
    <polyline points="1191,598 1191,622 1195,622" style="stroke: black; stroke-width: 1" />
    <text class="taxon_text" style="" transform="rotate( 1195.68271234139 622.093023255814)" x="1201" y="626">Enhydris polylepis 156485821 EU0</text>
    <polyline points="1191,598 1191,574 1196,574" style="stroke: black; stroke-width: 1" />
    <text class="taxon_text" style="" transform="rotate( 1196.84154960617 574.418604651163)" x="1202" y="578">Enhydris polylepis 156485825 EU0</text>
    <polyline points="703,550 703,598 1191,598" style="stroke: black; stroke-width: 1" />
    <text class="node_text" style="" transform="rotate( 1191.09070870497 598.255813953488)" x="1197" y="602">1.00</text>
    <polyline points="703,550 703,502 737,502" style="stroke: black; stroke-width: 1" />
    <text class="node_text" style="" transform="rotate( 737.798900634744 502.906976744186)" x="743" y="506">0.50</text>
    <polyline points="667,645 667,717 706,717" style="stroke: black; stroke-width: 1" />
    <text class="taxon_text" style="" transform="rotate( 706.841913081043 717.441860465116)" x="712" y="721">Austr superbus 184128090 EU44536</text>
    <polyline points="667,645 667,669 752,669" style="stroke: black; stroke-width: 1" />
    <text class="taxon_text" style="" transform="rotate( 752.103412360569 669.767441860465)" x="758" y="673">Mic corallinus 241995596 GQ13959</text>
    <polyline points="667,645 667,550 703,550" style="stroke: black; stroke-width: 1" />
    <text class="node_text" style="" transform="rotate( 703.236409486611 550.581395348837)" x="709" y="554">0.54</text>
    <polyline points="683,836 683,860 763,860" style="stroke: black; stroke-width: 1" />
    <text class="taxon_text" style="" transform="rotate( 763.80876542627 860.46511627907)" x="769" y="864">Thamnophis elegans contig03054</text>
    <polyline points="683,836 683,812 755,812" style="stroke: black; stroke-width: 1" />
    <text class="taxon_text" style="" transform="rotate( 755.121924929488 812.790697674419)" x="761" y="816">Oh gene6 7459 unknown</text>
    <polyline points="1005,1027 1005,1051 1077,1051" style="stroke: black; stroke-width: 1" />
    <text class="taxon_text" style="" transform="rotate( 1077.45258846331 1051.16279069767)" x="1083" y="1055">M lebetina 158906244 EU085465</text>
    <polyline points="1005,1027 1005,1003 1042,1003" style="stroke: black; stroke-width: 1" />
    <text class="taxon_text" style="" transform="rotate( 1042.03937811539 1003.48837209302)" x="1048" y="1007">Protobothrops flavoviridis 1402641</text>
    <polyline points="1031,1122 1031,1146 1084,1146" style="stroke: black; stroke-width: 1" />
    <text class="taxon_text" style="" transform="rotate( 1084.90121212602 1146.51162790698)" x="1090" y="1150">D acutus 20562932 AY091755</text>
    <polyline points="1031,1122 1031,1098 1091,1098" style="stroke: black; stroke-width: 1" />
    <text class="taxon_text" style="" transform="rotate( 1091.37221372489 1098.83720930233)" x="1097" y="1102">C albolabris 15149983 EF690368</text>
    <polyline points="977,1075 977,1122 1031,1122" style="stroke: black; stroke-width: 1" />
    <text class="node_text" style="" transform="rotate( 1031.88871569288 1122.67441860465)" x="1037" y="1126">1.00</text>
    <polyline points="977,1075 977,1027 1005,1027" style="stroke: black; stroke-width: 1" />
    <text class="node_text" style="" transform="rotate( 1005.27149274951 1027.32558139535)" x="1011" y="1031">0.93</text>
    <polyline points="886,1075 886,1194 1064,1194" style="stroke: black; stroke-width: 1" />
    <text class="taxon_text" style="" transform="rotate( 1064.42546112218 1194.18604651163)" x="1070" y="1198">M lebetina 50980284 AY578116</text>
    <polyline points="886,1075 886,1075 977,1075" style="stroke: black; stroke-width: 1" />
    <text class="node_text" style="" transform="rotate( 977.570112004572 1075)" x="983" y="1079">1.00</text>
    <polyline points="886,1075 886,955 1300,955" style="stroke: black; stroke-width: 1" />
    <text class="taxon_text" style="" transform="rotate( 1300 955.813953488372)" x="1306" y="959">Thamnophis elegans FS3E17002JWJ3Z</text>
    <polyline points="831,991 831,1075 886,1075" style="stroke: black; stroke-width: 1" />
    <text class="node_text" style="" transform="rotate( 886.118059144464 1075)" x="892" y="1079">0.79</text>
    <polyline points="831,991 831,908 923,908" style="stroke: black; stroke-width: 1" />
    <text class="taxon_text" style="" transform="rotate( 923.429590113149 908.139534883721)" x="929" y="912">Oh gene8 8157 VG AG</text>
    <polyline points="881,1265 881,1289 913,1289" style="stroke: black; stroke-width: 1" />
    <text class="taxon_text" style="" transform="rotate( 913.227748757814 1289.53488372093)" x="919" y="1293">Hoplo stephensii 145699620 EF194</text>
    <polyline points="881,1265 881,1241 909,1241" style="stroke: black; stroke-width: 1" />
    <text class="taxon_text" style="" transform="rotate( 909.430063048268 1241.86046511628)" x="915" y="1245">Oh gene9 8808 AG</text>
    <polyline points="833,1301 833,1337 931,1337" style="stroke: black; stroke-width: 1" />
    <text class="taxon_text" style="" transform="rotate( 931.534139690495 1337.20930232558)" x="937" y="1341">Liophis poecilogyrus 156485271 E</text>
    <polyline points="833,1301 833,1265 881,1265" style="stroke: black; stroke-width: 1" />
    <text class="node_text" style="" transform="rotate( 881.925564524519 1265.6976744186)" x="887" y="1269">1.00</text>
    <polyline points="804,1146 804,1301 833,1301" style="stroke: black; stroke-width: 1" />
    <text class="node_text" style="" transform="rotate( 833.561473000711 1301.45348837209)" x="839" y="1305">0.81</text>
    <polyline points="804,1146 804,991 831,991" style="stroke: black; stroke-width: 1" />
    <text class="node_text" style="" transform="rotate( 831.313255594275 991.569767441861)" x="837" y="995">0.65</text>
    <polyline points="873,1408 873,1432 929,1432" style="stroke: black; stroke-width: 1" />
    <text class="taxon_text" style="" transform="rotate( 929.241010159331 1432.55813953488)" x="935" y="1436">Leioheterodon madagascariensis 156485275</text>
    <polyline points="873,1408 873,1384 1000,1384" style="stroke: black; stroke-width: 1" />
    <text class="taxon_text" style="" transform="rotate( 1000.41628317283 1384.88372093023)" x="1006" y="1388">Oh gene10 8808 VG AG</text>
    <polyline points="793,1277 793,1408 873,1408" style="stroke: black; stroke-width: 1" />
    <text class="node_text" style="" transform="rotate( 873.91710600473 1408.72093023256)" x="879" y="1412">1.00</text>
    <polyline points="793,1277 793,1146 804,1146" style="stroke: black; stroke-width: 1" />
    <text class="node_text" style="" transform="rotate( 804.823979982979 1146.51162790698)" x="810" y="1150">0.59</text>
    <polyline points="886,1504 886,1527 973,1527" style="stroke: black; stroke-width: 1" />
    <text class="taxon_text" style="" transform="rotate( 973.157756867064 1527.90697674419)" x="979" y="1531">Liophis poecilogyrus 156485281 E</text>
    <polyline points="886,1504 886,1480 923,1480" style="stroke: black; stroke-width: 1" />
    <text class="taxon_text" style="" transform="rotate( 923.061415137183 1480.23255813954)" x="929" y="1484">Philodryas olfersii 156485277 EU</text>
    <polyline points="771,1390 771,1504 886,1504" style="stroke: black; stroke-width: 1" />
    <text class="node_text" style="" transform="rotate( 886.71758378618 1504.06976744186)" x="892" y="1508">0.89</text>
    <polyline points="771,1390 771,1277 793,1277" style="stroke: black; stroke-width: 1" />
    <text class="node_text" style="" transform="rotate( 793.26067456758 1277.61627906977)" x="799" y="1281">0.82</text>
    <polyline points="694,1483 694,1575 845,1575" style="stroke: black; stroke-width: 1" />
    <text class="taxon_text" style="" transform="rotate( 845.942074639356 1575.58139534884)" x="851" y="1579">Thamnophis elegans contig03053</text>
    <polyline points="694,1483 694,1390 771,1390" style="stroke: black; stroke-width: 1" />
    <text class="node_text" style="" transform="rotate( 771.927415321844 1390.84302325581)" x="777" y="1394">0.85</text>
    <polyline points="650,715 650,1483 694,1483" style="stroke: black; stroke-width: 1" />
    <text class="node_text" style="" transform="rotate( 694.891110031363 1483.21220930233)" x="700" y="1487">0.69</text>
    <polyline points="650,715 650,836 683,836" style="stroke: black; stroke-width: 1" />
    <text class="node_text" style="" transform="rotate( 683.467241096223 836.627906976744)" x="689" y="840">1.00</text>
    <polyline points="650,715 650,765 753,765" style="stroke: black; stroke-width: 1" />
    <text class="taxon_text" style="" transform="rotate( 753.700926192459 765.116279069768)" x="759" y="769">Oh gene5 7459 unknown</text>
    <polyline points="650,715 650,645 667,645" style="stroke: black; stroke-width: 1" />
    <text class="node_text" style="" transform="rotate( 667.690029466532 645.93023255814)" x="673" y="649">0.67</text>
    <polyline points="650,715 650,359 710,359" style="stroke: black; stroke-width: 1" />
    <text class="node_text" style="" transform="rotate( 710.70070016958 359.883720930233)" x="716" y="363">0.93</text>
    <polyline points="650,715 650,204 693,204" style="stroke: black; stroke-width: 1" />
    <text class="node_text" style="" transform="rotate( 693.778751593336 204.941860465116)" x="699" y="208">1.00</text>
    <polyline points="546,1169 546,1623 747,1623" style="stroke: black; stroke-width: 1" />
    <text class="taxon_text" style="" transform="rotate( 747.40226181638 1623.25581395349)" x="753" y="1627">Varanus indicus 300872914 GU4415</text>
    <polyline points="546,1169 546,715 650,715" style="stroke: black; stroke-width: 1" />
    <text class="node_text" style="" transform="rotate( 650.888194712234 715.952034883721)" x="656" y="719">0.99</text>
    <polyline points="588,1742 588,1766 644,1766" style="stroke: black; stroke-width: 1" />
    <text class="taxon_text" style="" transform="rotate( 644.853780744438 1766.27906976744)" x="650" y="1770">A carolinensis 327278211 XM 0032</text>
    <polyline points="588,1742 588,1718 635,1718" style="stroke: black; stroke-width: 1" />
    <text class="taxon_text" style="" transform="rotate( 635.670295705607 1718.60465116279)" x="641" y="1722">A carolinensis 327278213 XM 0032</text>
    <polyline points="498,1706 498,1742 588,1742" style="stroke: black; stroke-width: 1" />
    <text class="node_text" style="" transform="rotate( 588.571054950298 1742.44186046512)" x="594" y="1746">1.00</text>
    <polyline points="498,1706 498,1670 624,1670" style="stroke: black; stroke-width: 1" />
    <text class="taxon_text" style="" transform="rotate( 624.420330695286 1670.93023255814)" x="630" y="1674">Ophisaurus apodus 300872912 GU44</text>
    <polyline points="404,1438 404,1706 498,1706" style="stroke: black; stroke-width: 1" />
    <text class="node_text" style="" transform="rotate( 498.59065752604 1706.68604651163)" x="504" y="1710">1.00</text>
    <polyline points="404,1438 404,1169 546,1169" style="stroke: black; stroke-width: 1" />
    <text class="node_text" style="" transform="rotate( 546.204821013694 1169.6039244186)" x="552" y="1173">0.99</text>
    <polyline points="775,1885 775,1909 816,1909" style="stroke: black; stroke-width: 1" />
    <text class="taxon_text" style="" transform="rotate( 816.064544781148 1909.3023255814)" x="822" y="1913">Homo sapiens 226823231 NP 114433</text>
    <polyline points="775,1885 775,1861 842,1861" style="stroke: black; stroke-width: 1" />
    <text class="taxon_text" style="" transform="rotate( 842.633722195739 1861.62790697674)" x="848" y="1865">Sus scrofa 298228990 NP 00117718</text>
    <polyline points="731,1849 731,1885 775,1885" style="stroke: black; stroke-width: 1" />
    <text class="node_text" style="" transform="rotate( 775.342303503188 1885.46511627907)" x="781" y="1889">0.99</text>
    <polyline points="731,1849 731,1813 803,1813" style="stroke: black; stroke-width: 1" />
    <text class="taxon_text" style="" transform="rotate( 803.346579973036 1813.95348837209)" x="809" y="1817">Rattus norvegicus 51854250 NP 00</text>
    <polyline points="483,1903 483,1956 622,1956" style="stroke: black; stroke-width: 1" />
    <text class="taxon_text" style="" transform="rotate( 622.214936477544 1956.97674418605)" x="628" y="1960">Xenopus laevis 148237086 NP 0010</text>
    <polyline points="483,1903 483,1849 731,1849" style="stroke: black; stroke-width: 1" />
    <text class="node_text" style="" transform="rotate( 731.785898261295 1849.70930232558)" x="737" y="1853">1.00</text>
    <polyline points="507,2028 507,2052 592,2052" style="stroke: black; stroke-width: 1" />
    <text class="taxon_text" style="" transform="rotate( 592.024588448267 2052.32558139535)" x="598" y="2056">Xenopus tropicalis 301610174 XP </text>
    <polyline points="507,2028 507,2004 744,2004" style="stroke: black; stroke-width: 1" />
    <text class="taxon_text" style="" transform="rotate( 744.038030333858 2004.6511627907)" x="750" y="2008">Xenopus tropicalis 301610172 XP </text>
    <polyline points="427,1965 427,2028 507,2028" style="stroke: black; stroke-width: 1" />
    <text class="node_text" style="" transform="rotate( 507.513025560639 2028.48837209302)" x="513" y="2032">0.92</text>
    <polyline points="427,1965 427,1903 483,1903" style="stroke: black; stroke-width: 1" />
    <text class="node_text" style="" transform="rotate( 483.736233389303 1903.34302325581)" x="489" y="1907">0.59</text>
    <polyline points="296,1702 296,1965 427,1965" style="stroke: black; stroke-width: 1" />
    <text class="node_text" style="" transform="rotate( 427.539676206559 1965.91569767442)" x="433" y="1969">0.94</text>
    <polyline points="296,1702 296,1438 404,1438" style="stroke: black; stroke-width: 1" />
    <text class="node_text" style="" transform="rotate( 404.270495491449 1438.14498546512)" x="410" y="1442">0.93</text>
    <polyline points="50,616 50,1702 296,1702" style="stroke: black; stroke-width: 1" />
    <text class="node_text" style="" transform="rotate( 296.640155283149 1702.03034156977)" x="302" y="1706">1.00</text>
    <polyline points="50,616 50,97 332,97" style="stroke: black; stroke-width: 1" />
    <text class="taxon_text" style="" transform="rotate( 332.211080301626 97.6744186046512)" x="338" y="101">Danio rerio 292609495 XP 0026604</text>
    <polyline points="50,616 50,50 405,50" style="stroke: black; stroke-width: 1" />
    <text class="taxon_text" style="" transform="rotate( 405.965144848913 50)" x="411" y="54">Spirinchus lanceolatus 76559861 </text>
</svg>