<svg height="800" width="1200" xmlns="http://www.w3.org/2000/svg" xmlns:svg="http://www.w3.org/2000/svg" xmlns:xlink="http://www.w3.org/1999/xlink">
    <style type="text/css"><![CDATA[
	polyline { fill: none; stroke: black; stroke-width: 1 }
	path { fill: none; stroke: black; stroke-width: 1 }
	line { fill: none; stroke: black; stroke-width: 1 }
	circle.node_circle  {}
	circle.taxon_circle {}
	text.node_text      {}
	text.taxon_text     {}
	line.scale_bar      {}
	text.scale_label    {}
	line.scale_major    {}
	line.scale_minor    {}
]]></style>
    <polyline points="423,128 423,137 850,137" style="stroke: #0000FE; stroke-width: 1" />
    <text class="taxon_text" style="font-family: Verdana; font-style: Italic; fill: red" transform="rotate( 850 137.5)" x="856" y="145">Ophiophagus hannah</text>
    <polyline points="423,128 423,120 850,120" style="stroke: #0000FE; stroke-width: 1" />
    <text class="taxon_text" style="font-family: Verdana; font-style: Italic; fill: red" transform="rotate( 850 120)" x="856" y="128">Ophiophagus hannah</text>
    <polyline points="796,216 796,225 850,225" style="stroke: #0000FE; stroke-width: 1" />
    <text class="taxon_text" style="font-family: Verdana; font-style: Italic; fill: red" transform="rotate( 850 225)" x="856" y="233">Trimeresurus flavoviridis</text>
    <polyline points="796,216 796,207 850,207" style="stroke: #0000FE; stroke-width: 1" />
    <text class="taxon_text" style="font-family: Verdana; font-style: Italic; fill: red" transform="rotate( 850 207.5)" x="856" y="215">Macrovipera lebetina **</text>
    <polyline points="796,251 796,260 850,260" style="stroke: #0000FE; stroke-width: 1" />
    <text class="taxon_text" style="font-family: Verdana; font-style: Italic; fill: red" transform="rotate( 850 260)" x="856" y="268">Cryptelytrops albolabris</text>
    <polyline points="796,251 796,242 850,242" style="stroke: #0000FE; stroke-width: 1" />
    <text class="taxon_text" style="font-family: Verdana; font-style: Italic; fill: red" transform="rotate( 850 242.5)" x="856" y="250">Deinagkistrodon acutus **</text>
    <polyline points="743,233 743,251 796,251" style="stroke: #0400FA; stroke-width: 1" />
    <text class="node_text" style="font-family: Verdana; font-style: Italic" transform="rotate( 796.666666666667 251.25)" x="802" y="259"> *</text>
    <polyline points="743,233 743,216 796,216" style="stroke: #0000FE; stroke-width: 1" />
    <polyline points="690,211 690,233 743,233" style="stroke: #0300FB; stroke-width: 1" />
    <text class="node_text" style="font-family: Verdana; font-style: Italic" transform="rotate( 743.333333333333 233.75)" x="749" y="241"> **</text>
    <polyline points="690,211 690,190 850,190" style="stroke: #0000FE; stroke-width: 1" />
    <text class="taxon_text" style="font-family: Verdana; font-style: Italic; fill: red" transform="rotate( 850 190)" x="856" y="198">Macrovipera lebetina</text>
    <polyline points="636,192 636,211 690,211" style="stroke: #0000FE; stroke-width: 1" />
    <polyline points="636,192 636,172 850,172" style="stroke: #0000FE; stroke-width: 1" />
    <text class="taxon_text" style="font-family: Verdana; font-style: Italic; fill: red" transform="rotate( 850 172.5)" x="856" y="180">Ophiophagus hannah</text>
    <polyline points="690,303 690,312 850,312" style="stroke: #0000FE; stroke-width: 1" />
    <text class="taxon_text" style="font-family: Verdana; font-style: Italic; fill: red" transform="rotate( 850 312.5)" x="856" y="320">Ophiophagus hannah</text>
    <polyline points="690,303 690,295 850,295" style="stroke: #0000FE; stroke-width: 1" />
    <text class="taxon_text" style="font-family: Verdana; font-style: Italic; fill: red" transform="rotate( 850 295)" x="856" y="303">Hoplocephalus stephensii</text>
    <polyline points="636,290 636,303 690,303" style="stroke: #0000FE; stroke-width: 1" />
    <polyline points="636,290 636,277 850,277" style="stroke: #2D00D1; stroke-width: 1" />
    <text class="taxon_text" style="font-family: Verdana; font-style: Italic; fill: red" transform="rotate( 850 277.5)" x="856" y="285">Liophis poecilogyrus</text>
    <polyline points="583,241 583,290 636,290" style="stroke: #0000FE; stroke-width: 1" />
    <polyline points="583,241 583,192 636,192" style="stroke: #FE0000; stroke-width: 1" />
    <polyline points="583,338 583,347 850,347" style="stroke: #0000FE; stroke-width: 1" />
    <text class="taxon_text" style="font-family: Verdana; font-style: Italic; fill: red" transform="rotate( 850 347.5)" x="856" y="355">Ophiophagus hannah</text>
    <polyline points="583,338 583,330 850,330" style="stroke: #0000FE; stroke-width: 1" />
    <text class="taxon_text" style="font-family: Verdana; font-style: Italic; fill: red" transform="rotate( 850 330)" x="856" y="338">Leioheterodon madagascariensis **</text>
    <polyline points="530,290 530,338 583,338" style="stroke: #0100FD; stroke-width: 1" />
    <polyline points="530,290 530,241 583,241" style="stroke: #FE0000; stroke-width: 1" />
    <polyline points="530,373 530,382 850,382" style="stroke: #0000FE; stroke-width: 1" />
    <text class="taxon_text" style="font-family: Verdana; font-style: Italic; fill: red" transform="rotate( 850 382.5)" x="856" y="390">Philodryas olfersii</text>
    <polyline points="530,373 530,365 850,365" style="stroke: #0000FE; stroke-width: 1" />
    <text class="taxon_text" style="font-family: Verdana; font-style: Italic; fill: red" transform="rotate( 850 365)" x="856" y="373">Liophis poecilogyrus</text>
    <polyline points="476,331 476,373 530,373" style="stroke: #0400FA; stroke-width: 1" />
    <polyline points="476,331 476,290 530,290" style="stroke: #6B0093; stroke-width: 1" />
    <polyline points="423,243 423,331 476,331" style="stroke: #0A00F4; stroke-width: 1" />
    <text class="node_text" style="font-family: Verdana; font-style: Italic" transform="rotate( 476.666666666667 331.9140625)" x="482" y="339"> **</text>
    <polyline points="423,243 423,155 850,155" style="stroke: #0000FE; stroke-width: 1" />
    <text class="taxon_text" style="font-family: Verdana; font-style: Italic" transform="rotate( 850 155)" x="856" y="163">Thamnophis elegans</text>
    <polyline points="370,186 370,243 423,243" style="stroke: #0100FD; stroke-width: 1" />
    <polyline points="370,186 370,128 423,128" style="stroke: #FE0000; stroke-width: 1" />
    <polyline points="476,408 476,417 850,417" style="stroke: #0000FE; stroke-width: 1" />
    <text class="taxon_text" style="font-family: Verdana; font-style: Italic; fill: red" transform="rotate( 850 417.5)" x="856" y="425">Ophiophagus hannah</text>
    <polyline points="476,408 476,400 850,400" style="stroke: #0000FE; stroke-width: 1" />
    <text class="taxon_text" style="font-family: Verdana; font-style: Italic; fill: red" transform="rotate( 850 400)" x="856" y="408">Ophiophagus hannah **</text>
    <polyline points="530,443 530,452 850,452" style="stroke: #0000FE; stroke-width: 1" />
    <text class="taxon_text" style="font-family: Verdana; font-style: Italic; fill: red" transform="rotate( 850 452.5)" x="856" y="460">Ophiophagus hannah</text>
    <polyline points="530,443 530,435 850,435" style="stroke: #FE0000; stroke-width: 1" />
    <text class="taxon_text" style="font-family: Verdana; font-style: Italic; fill: red" transform="rotate( 850 435)" x="856" y="443">Pseudonaja textilis</text>
    <polyline points="583,478 583,487 850,487" style="stroke: #0000FE; stroke-width: 1" />
    <text class="taxon_text" style="font-family: Verdana; font-style: Italic; fill: red" transform="rotate( 850 487.5)" x="856" y="495">Bitis gabonica</text>
    <polyline points="583,478 583,470 850,470" style="stroke: #0000FE; stroke-width: 1" />
    <text class="taxon_text" style="font-family: Verdana; font-style: Italic; fill: red" transform="rotate( 850 470)" x="856" y="478">Viridovipera stejnegeri</text>
    <polyline points="583,513 583,522 850,522" style="stroke: #FE0000; stroke-width: 1" />
    <text class="taxon_text" style="font-family: Verdana; font-style: Italic; fill: red" transform="rotate( 850 522.5)" x="856" y="530">Enhydris polylepis</text>
    <polyline points="583,513 583,505 850,505" style="stroke: #0000FE; stroke-width: 1" />
    <text class="taxon_text" style="font-family: Verdana; font-style: Italic; fill: red" transform="rotate( 850 505)" x="856" y="513">Enhydris polylepis</text>
    <polyline points="530,496 530,513 583,513" style="stroke: #5500A9; stroke-width: 1" />
    <text class="node_text" style="font-family: Verdana; font-style: Italic" transform="rotate( 583.333333333333 513.75)" x="589" y="521"> **</text>
    <polyline points="530,496 530,478 583,478" style="stroke: #FE0000; stroke-width: 1" />
    <polyline points="476,470 476,496 530,496" style="stroke: #0000FE; stroke-width: 1" />
    <polyline points="476,470 476,443 530,443" style="stroke: #0000FE; stroke-width: 1" />
    <polyline points="423,439 423,470 476,470" style="stroke: #0000FE; stroke-width: 1" />
    <text class="node_text" style="font-family: Verdana; font-style: Italic" transform="rotate( 476.666666666667 470)" x="482" y="478"> **</text>
    <polyline points="423,439 423,408 476,408" style="stroke: #0000FE; stroke-width: 1" />
    <polyline points="476,566 476,575 850,575" style="stroke: #0000FE; stroke-width: 1" />
    <text class="taxon_text" style="font-family: Verdana; font-style: Italic; fill: red" transform="rotate( 850 575)" x="856" y="583">Ophiophagus hannah</text>
    <polyline points="476,566 476,557 850,557" style="stroke: #5400AA; stroke-width: 1" />
    <text class="taxon_text" style="font-family: Verdana; font-style: Italic; fill: red" transform="rotate( 850 557.5)" x="856" y="565">Thrasops jacksoni</text>
    <polyline points="423,553 423,566 476,566" style="stroke: #FE0000; stroke-width: 1" />
    <polyline points="423,553 423,540 850,540" style="stroke: #0500F9; stroke-width: 1" />
    <text class="taxon_text" style="font-family: Verdana; font-style: Italic; fill: red" transform="rotate( 850 540)" x="856" y="548">Austrelaps superbus</text>
    <polyline points="370,496 370,553 423,553" style="stroke: #FE0000; stroke-width: 1" />
    <polyline points="370,496 370,439 423,439" style="stroke: #0000FE; stroke-width: 1" />
    <polyline points="316,341 316,496 370,496" style="stroke: #0200FC; stroke-width: 1" />
    <polyline points="316,341 316,186 370,186" style="stroke: #FE0000; stroke-width: 1" />
    <polyline points="263,221 263,341 316,341" style="stroke: #0000FE; stroke-width: 1" />
    <polyline points="263,221 263,102 850,102" style="stroke: #0000FE; stroke-width: 1" />
    <text class="taxon_text" style="font-family: Verdana; font-style: Italic; fill: red" transform="rotate( 850 102.5)" x="856" y="110">Micrurus corallinus **</text>
    <polyline points="210,153 210,221 263,221" style="stroke: #0100FD; stroke-width: 1" />
    <polyline points="210,153 210,85 850,85" style="stroke: #0000FE; stroke-width: 1" />
    <text class="taxon_text" style="font-family: Verdana; font-style: Italic; fill: red" transform="rotate( 850 85)" x="856" y="93">Varanus indicus</text>
    <polyline points="263,618 263,627 850,627" style="stroke: #0000FE; stroke-width: 1" />
    <text class="taxon_text" style="font-family: Verdana; font-style: Italic" transform="rotate( 850 627.5)" x="856" y="635">Anolis carolinensis</text>
    <polyline points="263,618 263,610 850,610" style="stroke: #0000FE; stroke-width: 1" />
    <text class="taxon_text" style="font-family: Verdana; font-style: Italic" transform="rotate( 850 610)" x="856" y="618">Anolis carolinensis</text>
    <polyline points="210,605 210,618 263,618" style="stroke: #0000FE; stroke-width: 1" />
    <polyline points="210,605 210,592 850,592" style="stroke: #0000FE; stroke-width: 1" />
    <text class="taxon_text" style="font-family: Verdana; font-style: Italic; fill: red" transform="rotate( 850 592.5)" x="856" y="600">Pseudopus apodus</text>
    <polyline points="156,379 156,605 210,605" style="stroke: #FE0000; stroke-width: 1" />
    <polyline points="156,379 156,153 210,153" style="stroke: #0000FE; stroke-width: 1" />
    <polyline points="316,688 316,697 850,697" style="stroke: #2500D9; stroke-width: 1" />
    <text class="taxon_text" style="font-family: Verdana; font-style: Italic" transform="rotate( 850 697.5)" x="856" y="705">Sus scrofa</text>
    <polyline points="316,688 316,680 850,680" style="stroke: #0000FE; stroke-width: 1" />
    <text class="taxon_text" style="font-family: Verdana; font-style: Italic" transform="rotate( 850 680)" x="856" y="688">Homo sapiens</text>
    <polyline points="263,675 263,688 316,688" style="stroke: #0100FD; stroke-width: 1" />
    <polyline points="263,675 263,662 850,662" style="stroke: #1400EA; stroke-width: 1" />
    <text class="taxon_text" style="font-family: Verdana; font-style: Italic" transform="rotate( 850 662.5)" x="856" y="670">Rattus norvegicus</text>
    <polyline points="210,660 210,675 263,675" style="stroke: #0000FE; stroke-width: 1" />
    <polyline points="210,660 210,645 850,645" style="stroke: #0000FE; stroke-width: 1" />
    <text class="taxon_text" style="font-family: Verdana; font-style: Italic" transform="rotate( 850 645)" x="856" y="653">Xenopus laevis</text>
    <polyline points="210,723 210,732 850,732" style="stroke: #FE0000; stroke-width: 1" />
    <text class="taxon_text" style="font-family: Verdana; font-style: Italic" transform="rotate( 850 732.5)" x="856" y="740">Xenopus (Silurana) tropicalis</text>
    <polyline points="210,723 210,715 850,715" style="stroke: #FE0000; stroke-width: 1" />
    <text class="taxon_text" style="font-family: Verdana; font-style: Italic" transform="rotate( 850 715)" x="856" y="723">Xenopus (Silurana) tropicalis</text>
    <polyline points="156,692 156,723 210,723" style="stroke: #FE0000; stroke-width: 1" />
    <polyline points="156,692 156,660 210,660" style="stroke: #1600E8; stroke-width: 1" />
    <polyline points="103,535 103,692 156,692" style="stroke: #0000FE; stroke-width: 1" />
    <polyline points="103,535 103,379 156,379" style="stroke: #0000FE; stroke-width: 1" />
    <polyline points="50,217 50,535 103,535" style="stroke: #0000FE; stroke-width: 1" />
    <polyline points="50,217 50,67 850,67" style="stroke: #0000FE; stroke-width: 1" />
    <text class="taxon_text" style="font-family: Verdana; font-style: Italic" transform="rotate( 850 67.5)" x="856" y="75">Danio rerio</text>
    <polyline points="50,217 50,50 850,50" style="stroke: #0000FE; stroke-width: 1" />
    <text class="taxon_text" style="font-family: Verdana; font-style: Italic" transform="rotate( 850 50)" x="856" y="58">Spirinchus lanceolatus</text>
    <text class="node_text" style="font-family: Verdana; font-style: Italic" transform="rotate( 50 217.75889078776)" x="56" y="225"> **</text>
</svg>