<svg height="2950" width="1500" xmlns="http://www.w3.org/2000/svg" xmlns:svg="http://www.w3.org/2000/svg" xmlns:xlink="http://www.w3.org/1999/xlink">
    <style type="text/css"><![CDATA[
	polyline { fill: none; stroke: black; stroke-width: 1 }
	path { fill: none; stroke: black; stroke-width: 1 }
	line { fill: none; stroke: black; stroke-width: 1 }
	circle.node_circle  {}
	circle.taxon_circle {}
	text.node_text      {}
	text.taxon_text     {}
	line.scale_bar      {}
	text.scale_label    {}
	line.scale_major    {}
	line.scale_minor    {}
]]></style>
    <polyline points="267,122 267,146 788,146" style="stroke: black; stroke-width: 1" />
    <text class="taxon_text" style="" transform="rotate( 788.444326301338 146.610169491525)" x="794" y="150">Homo sapiens 190264 M86528</text>
    <polyline points="267,122 267,98 527,98" style="stroke: black; stroke-width: 1" />
    <text class="taxon_text" style="" transform="rotate( 527.24894461087 98.3050847457627)" x="533" y="102">Xenopus laevis 455533 Z30090</text>
    <polyline points="781,267 781,291 810,291" style="stroke: black; stroke-width: 1" />
    <text class="taxon_text" style="" transform="rotate( 810.228775420018 291.525423728814)" x="816" y="295">S catenatus 109254983 DQ464261</text>
    <polyline points="781,267 781,243 788,243" style="stroke: black; stroke-width: 1" />
    <text class="taxon_text" style="" transform="rotate( 788.674445575791 243.220338983051)" x="794" y="247">C durissus 11120559 AF306533</text>
    <polyline points="779,303 779,339 786,339" style="stroke: black; stroke-width: 1" />
    <text class="taxon_text" style="" transform="rotate( 786.907213802185 339.830508474576)" x="792" y="343">B jararacussu 15407253 AY007318</text>
    <polyline points="779,303 779,267 781,267" style="stroke: black; stroke-width: 1" />
    <text class="node_text" style="" transform="rotate( 781.470711766815 267.372881355932)" x="787" y="271">0.94</text>
    <polyline points="774,249 774,303 779,303" style="stroke: black; stroke-width: 1" />
    <text class="node_text" style="" transform="rotate( 779.629757571187 303.601694915254)" x="785" y="307">0.99</text>
    <polyline points="774,249 774,194 778,194" style="stroke: black; stroke-width: 1" />
    <text class="taxon_text" style="" transform="rotate( 778.179005623546 194.915254237288)" x="784" y="198">P flavoviridis 171854640 AB36278</text>
    <polyline points="769,318 769,388 781,388" style="stroke: black; stroke-width: 1" />
    <text class="taxon_text" style="" transform="rotate( 781.788771358965 388.135593220339)" x="787" y="392">A feae 73349374 DQ139929</text>
    <polyline points="769,318 769,249 774,249" style="stroke: black; stroke-width: 1" />
    <text class="node_text" style="" transform="rotate( 774.701940247766 249.258474576271)" x="780" y="253">0.99</text>
    <polyline points="798,460 798,484 802,484" style="stroke: black; stroke-width: 1" />
    <text class="taxon_text" style="" transform="rotate( 802.563223295948 484.745762711864)" x="808" y="488">Oh gene2 s2616 VG PT</text>
    <polyline points="798,460 798,436 818,436" style="stroke: black; stroke-width: 1" />
    <text class="taxon_text" style="" transform="rotate( 818.747401284624 436.440677966102)" x="824" y="440">N sputatrix 46411220 AY527215</text>
    <polyline points="817,557 817,581 832,581" style="stroke: black; stroke-width: 1" />
    <text class="taxon_text" style="" transform="rotate( 832.757294412388 581.35593220339)" x="838" y="585">Oh gene3 s12849 VG</text>
    <polyline points="817,557 817,533 842,533" style="stroke: black; stroke-width: 1" />
    <text class="taxon_text" style="" transform="rotate( 842.033681457631 533.050847457627)" x="848" y="537">N sputatrix 46411222 AY527216</text>
    <polyline points="806,593 806,629 826,629" style="stroke: black; stroke-width: 1" />
    <text class="taxon_text" style="" transform="rotate( 826.870559013956 629.661016949153)" x="832" y="633">B multicinctus 266298 S56212</text>
    <polyline points="806,593 806,557 817,557" style="stroke: black; stroke-width: 1" />
    <text class="node_text" style="" transform="rotate( 817.837455961384 557.203389830509)" x="823" y="561">0.97</text>
    <polyline points="840,798 840,822 844,822" style="stroke: black; stroke-width: 1" />
    <text class="taxon_text" style="" transform="rotate( 844.248513650654 822.881355932203)" x="850" y="826">T carinatus 76886042 DQ181920</text>
    <polyline points="840,798 840,774 843,774" style="stroke: black; stroke-width: 1" />
    <text class="taxon_text" style="" transform="rotate( 843.583958675001 774.576271186441)" x="849" y="778">T carinatus 76886038 DQ181918</text>
    <polyline points="837,762 837,798 840,798" style="stroke: black; stroke-width: 1" />
    <text class="node_text" style="" transform="rotate( 840.936270546965 798.728813559322)" x="846" y="802">1.00</text>
    <polyline points="837,762 837,726 840,726" style="stroke: black; stroke-width: 1" />
    <text class="taxon_text" style="" transform="rotate( 840.119004839982 726.271186440678)" x="846" y="730">N scutatus 76886022 DQ181910</text>
    <polyline points="834,720 834,762 837,762" style="stroke: black; stroke-width: 1" />
    <text class="node_text" style="" transform="rotate( 837.480795309063 762.5)" x="843" y="766">0.94</text>
    <polyline points="834,720 834,677 835,677" style="stroke: black; stroke-width: 1" />
    <text class="taxon_text" style="" transform="rotate( 835.785706191293 677.966101694915)" x="841" y="681">N scutatus 76886018 DQ181908</text>
    <polyline points="832,795 832,871 834,871" style="stroke: black; stroke-width: 1" />
    <text class="taxon_text" style="" transform="rotate( 834.218578134603 871.186440677966)" x="840" y="875">N scutatus 76886020 DQ181909</text>
    <polyline points="832,795 832,720 834,720" style="stroke: black; stroke-width: 1" />
    <text class="node_text" style="" transform="rotate( 834.942111047873 720.233050847458)" x="840" y="724">0.94</text>
    <polyline points="826,857 826,919 839,919" style="stroke: black; stroke-width: 1" />
    <text class="taxon_text" style="" transform="rotate( 839.231702832078 919.491525423729)" x="845" y="923">D coronoides 336042225 HM627208</text>
    <polyline points="826,857 826,795 832,795" style="stroke: black; stroke-width: 1" />
    <text class="node_text" style="" transform="rotate( 832.465564256673 795.709745762712)" x="838" y="799">0.99</text>
    <polyline points="820,991 820,1016 830,1016" style="stroke: black; stroke-width: 1" />
    <text class="taxon_text" style="" transform="rotate( 830.695172950695 1016.10169491525)" x="836" y="1020">R nigrescens 90103002 DQ422727</text>
    <polyline points="820,991 820,967 827,967" style="stroke: black; stroke-width: 1" />
    <text class="taxon_text" style="" transform="rotate( 827.361866297858 967.796610169491)" x="833" y="971">T carinatus 76886044 DQ181921</text>
    <polyline points="817,924 817,991 820,991" style="stroke: black; stroke-width: 1" />
    <text class="node_text" style="" transform="rotate( 820.760023405816 991.949152542373)" x="826" y="995">0.98</text>
    <polyline points="817,924 817,857 826,857" style="stroke: black; stroke-width: 1" />
    <text class="node_text" style="" transform="rotate( 826.619902779082 857.60063559322)" x="832" y="861">0.99</text>
    <polyline points="818,1088 818,1112 828,1112" style="stroke: black; stroke-width: 1" />
    <text class="taxon_text" style="" transform="rotate( 828.903718095569 1112.71186440678)" x="834" y="1116">H stephensii 76886034 DQ181916</text>
    <polyline points="818,1088 818,1064 820,1064" style="stroke: black; stroke-width: 1" />
    <text class="taxon_text" style="" transform="rotate( 820.338752422835 1064.40677966102)" x="826" y="1068">H stephensii 76886032 DQ181915</text>
    <polyline points="821,1185 821,1209 823,1209" style="stroke: black; stroke-width: 1" />
    <text class="taxon_text" style="" transform="rotate( 823.476168068586 1209.32203389831)" x="829" y="1213">T carinatus 76886040 DQ181919</text>
    <polyline points="821,1185 821,1161 822,1161" style="stroke: black; stroke-width: 1" />
    <text class="taxon_text" style="" transform="rotate( 822.826357577338 1161.01694915254)" x="828" y="1165">T carinatus 76886036 DQ181917</text>
    <polyline points="813,1066 813,1185 821,1185" style="stroke: black; stroke-width: 1" />
    <text class="node_text" style="" transform="rotate( 821.016472116705 1185.16949152542)" x="827" y="1189">1.00</text>
    <polyline points="813,1066 813,1088 818,1088" style="stroke: black; stroke-width: 1" />
    <text class="node_text" style="" transform="rotate( 818.536239204404 1088.5593220339)" x="824" y="1092">1.00</text>
    <polyline points="813,1066 813,924 817,924" style="stroke: black; stroke-width: 1" />
    <text class="node_text" style="" transform="rotate( 817.2603147147 924.774894067797)" x="823" y="928">0.93</text>
    <polyline points="836,1330 836,1354 839,1354" style="stroke: black; stroke-width: 1" />
    <text class="taxon_text" style="" transform="rotate( 839.84307234613 1354.23728813559)" x="845" y="1358">P australis 76886030 DQ181914</text>
    <polyline points="836,1330 836,1305 837,1305" style="stroke: black; stroke-width: 1" />
    <text class="taxon_text" style="" transform="rotate( 837.286484068163 1305.93220338983)" x="843" y="1309">P australis 76886026 DQ181912</text>
    <polyline points="830,1366 830,1402 836,1402" style="stroke: black; stroke-width: 1" />
    <text class="taxon_text" style="" transform="rotate( 836.565584098537 1402.54237288136)" x="842" y="1406">P australis 76886028 DQ181913</text>
    <polyline points="830,1366 830,1330 836,1330" style="stroke: black; stroke-width: 1" />
    <text class="node_text" style="" transform="rotate( 836.439729392371 1330.08474576271)" x="842" y="1334">1.00</text>
    <polyline points="820,1311 820,1366 830,1366" style="stroke: black; stroke-width: 1" />
    <text class="node_text" style="" transform="rotate( 830.401863028795 1366.31355932203)" x="836" y="1370">1.00</text>
    <polyline points="820,1311 820,1257 829,1257" style="stroke: black; stroke-width: 1" />
    <text class="taxon_text" style="" transform="rotate( 829.243894414326 1257.62711864407)" x="835" y="1261">P porphyriacus 76886024 DQ181911</text>
    <polyline points="807,1189 807,1311 820,1311" style="stroke: black; stroke-width: 1" />
    <text class="node_text" style="" transform="rotate( 820.791092140811 1311.97033898305)" x="826" y="1315">1.00</text>
    <polyline points="807,1189 807,1066 813,1066" style="stroke: black; stroke-width: 1" />
    <text class="node_text" style="" transform="rotate( 813.359872001024 1066.16790254237)" x="819" y="1070">0.99</text>
    <polyline points="802,891 802,1189 807,1189" style="stroke: black; stroke-width: 1" />
    <text class="node_text" style="" transform="rotate( 807.070822813846 1189.06912076271)" x="813" y="1193">0.90</text>
    <polyline points="802,891 802,593 806,593" style="stroke: black; stroke-width: 1" />
    <text class="node_text" style="" transform="rotate( 806.030810074611 593.432203389831)" x="812" y="597">0.84</text>
    <polyline points="809,1499 809,1547 810,1547" style="stroke: black; stroke-width: 1" />
    <text class="taxon_text" style="" transform="rotate( 810.983903657011 1547.45762711864)" x="816" y="1551">O microlepidotus 76886012 DQ1819</text>
    <polyline points="809,1499 809,1499 810,1499" style="stroke: black; stroke-width: 1" />
    <text class="taxon_text" style="" transform="rotate( 810.146100989608 1499.15254237288)" x="816" y="1503">O microlepidotus 76886010 DQ1819</text>
    <polyline points="809,1499 809,1450 811,1450" style="stroke: black; stroke-width: 1" />
    <text class="taxon_text" style="" transform="rotate( 811.895955335165 1450.84745762712)" x="817" y="1454">O scutellatus 71725726 DQ084064</text>
    <polyline points="806,1547 806,1595 811,1595" style="stroke: black; stroke-width: 1" />
    <text class="taxon_text" style="" transform="rotate( 811.011286270905 1595.76271186441)" x="817" y="1599">P textilis 76886016 DQ181907</text>
    <polyline points="806,1547 806,1499 809,1499" style="stroke: black; stroke-width: 1" />
    <text class="node_text" style="" transform="rotate( 809.297766547629 1499.15254237288)" x="815" y="1503">1.00</text>
    <polyline points="803,1595 803,1644 805,1644" style="stroke: black; stroke-width: 1" />
    <text class="taxon_text" style="" transform="rotate( 805.363095566586 1644.06779661017)" x="811" y="1648">P textilis 76886014 DQ181906</text>
    <polyline points="803,1595 803,1547 806,1547" style="stroke: black; stroke-width: 1" />
    <text class="node_text" style="" transform="rotate( 806.731173083817 1547.45762711864)" x="812" y="1551">1.00</text>
    <polyline points="820,1716 820,1740 822,1740" style="stroke: black; stroke-width: 1" />
    <text class="taxon_text" style="" transform="rotate( 822.750528800401 1740.67796610169)" x="828" y="1744">D vestigiata 118151731 DQ917527</text>
    <polyline points="820,1716 820,1692 821,1692" style="stroke: black; stroke-width: 1" />
    <text class="taxon_text" style="" transform="rotate( 821.059125803732 1692.37288135593)" x="827" y="1696">D vestigiata 118151729 DQ917526</text>
    <polyline points="818,1752 818,1788 819,1788" style="stroke: black; stroke-width: 1" />
    <text class="taxon_text" style="" transform="rotate( 819.465141721878 1788.98305084746)" x="825" y="1792">D vestigiata 118151733 DQ917528</text>
    <polyline points="818,1752 818,1716 820,1716" style="stroke: black; stroke-width: 1" />
    <text class="node_text" style="" transform="rotate( 820.181828981674 1716.52542372881)" x="826" y="1720">0.91</text>
    <polyline points="799,1674 799,1752 818,1752" style="stroke: black; stroke-width: 1" />
    <text class="node_text" style="" transform="rotate( 818.490425985005 1752.75423728814)" x="824" y="1756">1.00</text>
    <polyline points="799,1674 799,1595 803,1595" style="stroke: black; stroke-width: 1" />
    <text class="node_text" style="" transform="rotate( 803.086652492302 1595.76271186441)" x="809" y="1599">0.95</text>
    <polyline points="794,1008 794,1674 799,1674" style="stroke: black; stroke-width: 1" />
    <text class="node_text" style="" transform="rotate( 799.316277194622 1674.25847457627)" x="805" y="1678">0.98</text>
    <polyline points="794,1008 794,891 802,891" style="stroke: black; stroke-width: 1" />
    <text class="node_text" style="" transform="rotate( 802.126681239834 891.250662076271)" x="808" y="895">0.68</text>
    <polyline points="794,1008 794,460 798,460" style="stroke: black; stroke-width: 1" />
    <text class="node_text" style="" transform="rotate( 798.18411142786 460.593220338983)" x="804" y="464">0.98</text>
    <polyline points="784,1422 784,1837 889,1837" style="stroke: black; stroke-width: 1" />
    <text class="taxon_text" style="" transform="rotate( 889.111240394495 1837.28813559322)" x="895" y="1841">Thamnophis elegans FT7MHCY03HENJL</text>
    <polyline points="784,1422 784,1008 794,1008" style="stroke: black; stroke-width: 1" />
    <text class="node_text" style="" transform="rotate( 794.050389907358 1008.70078566384)" x="800" y="1012">0.52</text>
    <polyline points="767,1209 767,1885 781,1885" style="stroke: black; stroke-width: 1" />
    <text class="taxon_text" style="" transform="rotate( 781.43121761216 1885.59322033898)" x="787" y="1889">M lebetina 55774417 AY740013</text>
    <polyline points="767,1209 767,1422 784,1422" style="stroke: black; stroke-width: 1" />
    <text class="node_text" style="" transform="rotate( 784.99095741835 1422.99446062853)" x="790" y="1426">0.96</text>
    <polyline points="767,1209 767,318 769,318" style="stroke: black; stroke-width: 1" />
    <text class="node_text" style="" transform="rotate( 769.96632781033 318.697033898305)" x="775" y="322">0.73</text>
    <polyline points="740,1571 740,1933 755,1933" style="stroke: black; stroke-width: 1" />
    <text class="taxon_text" style="" transform="rotate( 755.276082045051 1933.89830508475)" x="761" y="1937">Python molurus contig15144</text>
    <polyline points="740,1571 740,1209 767,1209" style="stroke: black; stroke-width: 1" />
    <text class="node_text" style="" transform="rotate( 767.433962613885 1209.09490495527)" x="773" y="1213">0.99</text>
    <polyline points="745,2006 745,2030 746,2030" style="stroke: black; stroke-width: 1" />
    <text class="taxon_text" style="" transform="rotate( 746.466779202188 2030.50847457627)" x="752" y="2034">A carolinensis 186659764 EU43797</text>
    <polyline points="745,2006 745,1982 746,1982" style="stroke: black; stroke-width: 1" />
    <text class="taxon_text" style="" transform="rotate( 746.392003602709 1982.20338983051)" x="752" y="1986">A carolinensis 327271561 XM 0032</text>
    <polyline points="706,2102 706,2127 741,2127" style="stroke: black; stroke-width: 1" />
    <text class="taxon_text" style="" transform="rotate( 741.32306049999 2127.1186440678)" x="747" y="2131">Heloderma suspectum 190700994 EU</text>
    <polyline points="706,2102 706,2078 729,2078" style="stroke: black; stroke-width: 1" />
    <text class="taxon_text" style="" transform="rotate( 729.614360116759 2078.81355932203)" x="735" y="2082">Varanus acanthurus 73349325 DQ13</text>
    <polyline points="697,1893 697,2102 706,2102" style="stroke: black; stroke-width: 1" />
    <text class="node_text" style="" transform="rotate( 706.95735347458 2102.96610169492)" x="712" y="2106">0.56</text>
    <polyline points="697,1893 697,2006 745,2006" style="stroke: black; stroke-width: 1" />
    <text class="node_text" style="" transform="rotate( 745.454675665576 2006.35593220339)" x="751" y="2010">1.00</text>
    <polyline points="697,1893 697,1571 740,1571" style="stroke: black; stroke-width: 1" />
    <text class="node_text" style="" transform="rotate( 740.307797431005 1571.49660502001)" x="746" y="1575">1.00</text>
    <polyline points="775,2344 775,2368 790,2368" style="stroke: black; stroke-width: 1" />
    <text class="taxon_text" style="" transform="rotate( 790.637041767754 2368.64406779661)" x="796" y="2372">Mus musculus 200047 M35075</text>
    <polyline points="775,2344 775,2320 796,2320" style="stroke: black; stroke-width: 1" />
    <text class="taxon_text" style="" transform="rotate( 796.900288107225 2320.33898305085)" x="802" y="2324">Praomys natalensis 202514 M22748</text>
    <polyline points="724,2308 724,2344 775,2344" style="stroke: black; stroke-width: 1" />
    <text class="node_text" style="" transform="rotate( 775.6924536465 2344.49152542373)" x="781" y="2348">1.00</text>
    <polyline points="724,2308 724,2272 773,2272" style="stroke: black; stroke-width: 1" />
    <text class="taxon_text" style="" transform="rotate( 773.266985961987 2272.03389830508)" x="779" y="2276">Homo sapiens 29473 V01511</text>
    <polyline points="958,2441 958,2465 1270,2465" style="stroke: black; stroke-width: 1" />
    <text class="taxon_text" style="" transform="rotate( 1270.16348263037 2465.25423728814)" x="1276" y="2469">Xiphpophorus maculatus 642673 L3</text>
    <polyline points="958,2441 958,2416 1213,2416" style="stroke: black; stroke-width: 1" />
    <text class="taxon_text" style="" transform="rotate( 1213.47462621679 2416.94915254237)" x="1219" y="2420">Danio rerio 3044090 AF055906</text>
    <polyline points="597,2208 597,2441 958,2441" style="stroke: black; stroke-width: 1" />
    <text class="node_text" style="" transform="rotate( 958.83264125532 2441.10169491525)" x="964" y="2445">1.00</text>
    <polyline points="597,2208 597,2308 724,2308" style="stroke: black; stroke-width: 1" />
    <text class="node_text" style="" transform="rotate( 724.393232871438 2308.26271186441)" x="730" y="2312">1.00</text>
    <polyline points="597,2208 597,2223 742,2223" style="stroke: black; stroke-width: 1" />
    <text class="taxon_text" style="" transform="rotate( 742.553698359023 2223.72881355932)" x="748" y="2227">Gallus gallus 63697 X04003</text>
    <polyline points="597,2208 597,2175 790,2175" style="stroke: black; stroke-width: 1" />
    <text class="taxon_text" style="" transform="rotate( 790.226829148076 2175.42372881356)" x="796" y="2179">Xenopus laevis 64914 X55716</text>
    <polyline points="597,2208 597,1893 697,1893" style="stroke: black; stroke-width: 1" />
    <text class="node_text" style="" transform="rotate( 697.495080608096 1893.60621297277)" x="703" y="1897">1.00</text>
    <polyline points="744,2634 744,2658 782,2658" style="stroke: black; stroke-width: 1" />
    <text class="taxon_text" style="" transform="rotate( 782.728732239742 2658.47457627119)" x="788" y="2662">Homo sapiens 287794 X53655</text>
    <polyline points="744,2634 744,2610 777,2610" style="stroke: black; stroke-width: 1" />
    <text class="taxon_text" style="" transform="rotate( 777.746676277262 2610.16949152542)" x="783" y="2614">Rattus norvegicus 204577 M34643</text>
    <polyline points="660,2598 660,2634 744,2634" style="stroke: black; stroke-width: 1" />
    <text class="node_text" style="" transform="rotate( 744.736935228322 2634.32203389831)" x="750" y="2638">1.00</text>
    <polyline points="660,2598 660,2561 726,2561" style="stroke: black; stroke-width: 1" />
    <text class="taxon_text" style="" transform="rotate( 726.599639644801 2561.86440677966)" x="732" y="2565">Gallus gallus 212464 M83378</text>
    <polyline points="597,2555 597,2598 660,2598" style="stroke: black; stroke-width: 1" />
    <text class="node_text" style="" transform="rotate( 660.486951341938 2598.09322033898)" x="666" y="2602">0.93</text>
    <polyline points="597,2555 597,2513 732,2513" style="stroke: black; stroke-width: 1" />
    <text class="taxon_text" style="" transform="rotate( 732.40475379028 2513.5593220339)" x="738" y="2517">Xenopus laevis 1654113 U27576</text>
    <polyline points="326,2382 326,2555 597,2555" style="stroke: black; stroke-width: 1" />
    <text class="node_text" style="" transform="rotate( 597.630687737518 2555.82627118644)" x="603" y="2559">1.00</text>
    <polyline points="326,2382 326,2208 597,2208" style="stroke: black; stroke-width: 1" />
    <text class="node_text" style="" transform="rotate( 597.317367443926 2208.42463242506)" x="603" y="2212">1.00</text>
    <polyline points="579,2730 579,2755 695,2755" style="stroke: black; stroke-width: 1" />
    <text class="taxon_text" style="" transform="rotate( 695.174404080599 2755.08474576271)" x="701" y="2759">Danio rerio 4096855 U42489</text>
    <polyline points="579,2730 579,2706 681,2706" style="stroke: black; stroke-width: 1" />
    <text class="taxon_text" style="" transform="rotate( 681.072357925308 2706.77966101695)" x="687" y="2710">Xiphophorus maculatus 65275 X599</text>
    <polyline points="511,2827 511,2851 562,2851" style="stroke: black; stroke-width: 1" />
    <text class="taxon_text" style="" transform="rotate( 562.597266204083 2851.69491525424)" x="568" y="2855">Homo sapiens 179402 M37762</text>
    <polyline points="511,2827 511,2803 567,2803" style="stroke: black; stroke-width: 1" />
    <text class="taxon_text" style="" transform="rotate( 567.228614073231 2803.38983050847)" x="573" y="2807">Gallus gallus 211239 M83377</text>
    <polyline points="437,2779 437,2827 511,2827" style="stroke: black; stroke-width: 1" />
    <text class="node_text" style="" transform="rotate( 511.423900135186 2827.54237288136)" x="517" y="2831">1.00</text>
    <polyline points="437,2779 437,2730 579,2730" style="stroke: black; stroke-width: 1" />
    <text class="node_text" style="" transform="rotate( 579.730883670652 2730.93220338983)" x="585" y="2734">1.00</text>
    <polyline points="191,2580 191,2779 437,2779" style="stroke: black; stroke-width: 1" />
    <text class="node_text" style="" transform="rotate( 437.578782939705 2779.23728813559)" x="443" y="2783">1.00</text>
    <polyline points="191,2580 191,2382 326,2382" style="stroke: black; stroke-width: 1" />
    <text class="node_text" style="" transform="rotate( 326.458029403872 2382.12545180575)" x="332" y="2386">0.78</text>
    <polyline points="50,917 50,2580 191,2580" style="stroke: black; stroke-width: 1" />
    <text class="node_text" style="" transform="rotate( 191.287968627107 2580.68136997067)" x="197" y="2584">0.69</text>
    <polyline points="50,917 50,122 267,122" style="stroke: black; stroke-width: 1" />
    <text class="node_text" style="" transform="rotate( 267.385305815351 122.457627118644)" x="273" y="126">0.85</text>
    <polyline points="50,917 50,50 1300,50" style="stroke: black; stroke-width: 1" />
    <text class="taxon_text" style="" transform="rotate( 1300 50)" x="1306" y="54">Lampetra fluviatilis 4558792 AF0</text>
</svg>