<svg height="1140" width="1200" xmlns="http://www.w3.org/2000/svg" xmlns:svg="http://www.w3.org/2000/svg" xmlns:xlink="http://www.w3.org/1999/xlink">
    <style type="text/css"><![CDATA[
	polyline { fill: none; stroke: black; stroke-width: 1 }
	path { fill: none; stroke: black; stroke-width: 1 }
	line { fill: none; stroke: black; stroke-width: 1 }
	circle.node_circle  {}
	circle.taxon_circle {}
	text.node_text      {}
	text.taxon_text     {}
	line.scale_bar      {}
	text.scale_label    {}
	line.scale_major    {}
	line.scale_minor    {}
]]></style>
    <polyline points="583,278 583,287 850,287" style="stroke: #0000FE; stroke-width: 1" />
    <text class="taxon_text" style="font-family: Verdana; font-style: Italic; fill: red" transform="rotate( 850 287.19298245614)" x="856" y="295">Crotalus durissus terrificus</text>
    <polyline points="583,278 583,268 850,268" style="stroke: #0C00F2; stroke-width: 1" />
    <text class="taxon_text" style="font-family: Verdana; font-style: Italic; fill: red" transform="rotate( 850 268.947368421053)" x="856" y="276">Sistrurus catenatus edwardsi **</text>
    <polyline points="550,264 550,278 583,278" style="stroke: #FE0000; stroke-width: 1" />
    <polyline points="550,264 550,250 850,250" style="stroke: #FE0000; stroke-width: 1" />
    <text class="taxon_text" style="font-family: Verdana; font-style: Italic; fill: red" transform="rotate( 850 250.701754385965)" x="856" y="258">Bothrops jararacussu</text>
    <polyline points="516,248 516,264 550,264" style="stroke: #0000FE; stroke-width: 1" />
    <polyline points="516,248 516,232 850,232" style="stroke: #0000FE; stroke-width: 1" />
    <text class="taxon_text" style="font-family: Verdana; font-style: Italic; fill: red" transform="rotate( 850 232.456140350877)" x="856" y="240">Trimeresurus flavoviridis</text>
    <polyline points="483,231 483,248 516,248" style="stroke: #FE0000; stroke-width: 1" />
    <polyline points="483,231 483,214 850,214" style="stroke: #FE0000; stroke-width: 1" />
    <text class="taxon_text" style="font-family: Verdana; font-style: Italic; fill: red" transform="rotate( 850 214.210526315789)" x="856" y="222">Azemiops feae **</text>
    <polyline points="583,332 583,341 850,341" style="stroke: #FE0000; stroke-width: 1" />
    <text class="taxon_text" style="font-family: Verdana; font-style: Italic; fill: red" transform="rotate( 850 341.929824561404)" x="856" y="349">Naja sputatrix **</text>
    <polyline points="583,332 583,323 850,323" style="stroke: #0000FE; stroke-width: 1" />
    <text class="taxon_text" style="font-family: Verdana; font-style: Italic; fill: red" transform="rotate( 850 323.684210526316)" x="856" y="331">Ophiophagus hannah</text>
    <polyline points="716,424 716,433 850,433" style="stroke: #0000FE; stroke-width: 1" />
    <text class="taxon_text" style="font-family: Verdana; font-style: Italic; fill: red" transform="rotate( 850 433.157894736842)" x="856" y="441">Oxyuranus microlepidotus</text>
    <polyline points="716,424 716,414 850,414" style="stroke: #FE0000; stroke-width: 1" />
    <text class="taxon_text" style="font-family: Verdana; font-style: Italic; fill: red" transform="rotate( 850 414.912280701754)" x="856" y="422">Oxyuranus microlepidotus</text>
    <polyline points="683,410 683,424 716,424" style="stroke: #0000FE; stroke-width: 1" />
    <polyline points="683,410 683,396 850,396" style="stroke: #FE0000; stroke-width: 1" />
    <text class="taxon_text" style="font-family: Verdana; font-style: Italic; fill: red" transform="rotate( 850 396.666666666667)" x="856" y="404">Oxyuranus scutellatus</text>
    <polyline points="650,394 650,410 683,410" style="stroke: #FE0000; stroke-width: 1" />
    <polyline points="650,394 650,378 850,378" style="stroke: #FE0000; stroke-width: 1" />
    <text class="taxon_text" style="font-family: Verdana; font-style: Italic; fill: red" transform="rotate( 850 378.421052631579)" x="856" y="386">Pseudonaja textilis</text>
    <polyline points="616,377 616,394 650,394" style="stroke: #FE0000; stroke-width: 1" />
    <polyline points="616,377 616,360 850,360" style="stroke: #0000FE; stroke-width: 1" />
    <text class="taxon_text" style="font-family: Verdana; font-style: Italic; fill: red" transform="rotate( 850 360.175438596491)" x="856" y="368">Pseudonaja textilis</text>
    <polyline points="650,478 650,487 850,487" style="stroke: #0000FE; stroke-width: 1" />
    <text class="taxon_text" style="font-family: Verdana; font-style: Italic; fill: red" transform="rotate( 850 487.894736842105)" x="856" y="495">Demansia vestigiata</text>
    <polyline points="650,478 650,469 850,469" style="stroke: #0000FE; stroke-width: 1" />
    <text class="taxon_text" style="font-family: Verdana; font-style: Italic; fill: red" transform="rotate( 850 469.649122807018)" x="856" y="477">Demansia vestigiata</text>
    <polyline points="616,465 616,478 650,478" style="stroke: #FE0000; stroke-width: 1" />
    <polyline points="616,465 616,451 850,451" style="stroke: #0000FE; stroke-width: 1" />
    <text class="taxon_text" style="font-family: Verdana; font-style: Italic; fill: red" transform="rotate( 850 451.40350877193)" x="856" y="459">Demansia vestigiata</text>
    <polyline points="583,421 583,465 616,465" style="stroke: #0000FE; stroke-width: 1" />
    <polyline points="583,421 583,377 616,377" style="stroke: #FE0000; stroke-width: 1" />
    <polyline points="550,376 550,421 583,421" style="stroke: #0000FE; stroke-width: 1" />
    <polyline points="550,376 550,332 583,332" style="stroke: #0000FE; stroke-width: 1" />
    <polyline points="616,533 616,542 850,542" style="stroke: #0000FE; stroke-width: 1" />
    <text class="taxon_text" style="font-family: Verdana; font-style: Italic; fill: red" transform="rotate( 850 542.631578947368)" x="856" y="550">Naja sputatrix</text>
    <polyline points="616,533 616,524 850,524" style="stroke: #0000FE; stroke-width: 1" />
    <text class="taxon_text" style="font-family: Verdana; font-style: Italic; fill: red" transform="rotate( 850 524.385964912281)" x="856" y="532">Ophiophagus hannah</text>
    <polyline points="583,519 583,533 616,533" style="stroke: #0000FE; stroke-width: 1" />
    <polyline points="583,519 583,506 850,506" style="stroke: #0000FE; stroke-width: 1" />
    <text class="taxon_text" style="font-family: Verdana; font-style: Italic; fill: red" transform="rotate( 850 506.140350877193)" x="856" y="514">Bungarus multicinctus</text>
    <polyline points="683,570 683,579 850,579" style="stroke: #FE0000; stroke-width: 1" />
    <text class="taxon_text" style="font-family: Verdana; font-style: Italic; fill: red" transform="rotate( 850 579.122807017544)" x="856" y="587">Hoplocephalus stephensii</text>
    <polyline points="683,570 683,560 850,560" style="stroke: #0000FE; stroke-width: 1" />
    <text class="taxon_text" style="font-family: Verdana; font-style: Italic; fill: red" transform="rotate( 850 560.877192982456)" x="856" y="568">Hoplocephalus stephensii</text>
    <polyline points="683,606 683,615 850,615" style="stroke: #FE0000; stroke-width: 1" />
    <text class="taxon_text" style="font-family: Verdana; font-style: Italic; fill: red" transform="rotate( 850 615.614035087719)" x="856" y="623">Tropidechis carinatus</text>
    <polyline points="683,606 683,597 850,597" style="stroke: #0000FE; stroke-width: 1" />
    <text class="taxon_text" style="font-family: Verdana; font-style: Italic; fill: red" transform="rotate( 850 597.368421052632)" x="856" y="605">Tropidechis carinatus</text>
    <polyline points="650,588 650,606 683,606" style="stroke: #0000FE; stroke-width: 1" />
    <polyline points="650,588 650,570 683,570" style="stroke: #0000FE; stroke-width: 1" />
    <polyline points="816,715 816,725 850,725" style="stroke: #FE0000; stroke-width: 1" />
    <text class="taxon_text" style="font-family: Verdana; font-style: Italic; fill: red" transform="rotate( 850 725.087719298246)" x="856" y="733">Tropidechis carinatus</text>
    <polyline points="816,715 816,706 850,706" style="stroke: #0000FE; stroke-width: 1" />
    <text class="taxon_text" style="font-family: Verdana; font-style: Italic; fill: red" transform="rotate( 850 706.842105263158)" x="856" y="714">Tropidechis carinatus</text>
    <polyline points="783,702 783,715 816,715" style="stroke: #FE0000; stroke-width: 1" />
    <polyline points="783,702 783,688 850,688" style="stroke: #FE0000; stroke-width: 1" />
    <text class="taxon_text" style="font-family: Verdana; font-style: Italic; fill: red" transform="rotate( 850 688.59649122807)" x="856" y="696">Notechis scutatus</text>
    <polyline points="750,686 750,702 783,702" style="stroke: #0000FE; stroke-width: 1" />
    <polyline points="750,686 750,670 850,670" style="stroke: #0000FE; stroke-width: 1" />
    <text class="taxon_text" style="font-family: Verdana; font-style: Italic; fill: red" transform="rotate( 850 670.350877192982)" x="856" y="678">Notechis scutatus</text>
    <polyline points="716,669 716,686 750,686" style="stroke: #0000FE; stroke-width: 1" />
    <polyline points="716,669 716,652 850,652" style="stroke: #FE0000; stroke-width: 1" />
    <text class="taxon_text" style="font-family: Verdana; font-style: Italic; fill: red" transform="rotate( 850 652.105263157895)" x="856" y="660">Notechis scutatus</text>
    <polyline points="683,651 683,669 716,669" style="stroke: #0000FE; stroke-width: 1" />
    <polyline points="683,651 683,633 850,633" style="stroke: #0000FE; stroke-width: 1" />
    <text class="taxon_text" style="font-family: Verdana; font-style: Italic; fill: red" transform="rotate( 850 633.859649122807)" x="856" y="641">Drysdalia coronoides</text>
    <polyline points="683,752 683,761 850,761" style="stroke: #0000FE; stroke-width: 1" />
    <text class="taxon_text" style="font-family: Verdana; font-style: Italic; fill: red" transform="rotate( 850 761.578947368421)" x="856" y="769">Rhinoplocephalus nigrescens</text>
    <polyline points="683,752 683,743 850,743" style="stroke: #0000FE; stroke-width: 1" />
    <text class="taxon_text" style="font-family: Verdana; font-style: Italic; fill: red" transform="rotate( 850 743.333333333333)" x="856" y="751">Tropidechis carinatus</text>
    <polyline points="650,701 650,752 683,752" style="stroke: #FE0000; stroke-width: 1" />
    <polyline points="650,701 650,651 683,651" style="stroke: #0300FB; stroke-width: 1" />
    <polyline points="616,645 616,701 650,701" style="stroke: #0000FE; stroke-width: 1" />
    <polyline points="616,645 616,588 650,588" style="stroke: #0000FE; stroke-width: 1" />
    <polyline points="683,825 683,834 850,834" style="stroke: #0000FE; stroke-width: 1" />
    <text class="taxon_text" style="font-family: Verdana; font-style: Italic; fill: red" transform="rotate( 850 834.561403508772)" x="856" y="842">Pseudechis australis</text>
    <polyline points="683,825 683,816 850,816" style="stroke: #0000FE; stroke-width: 1" />
    <text class="taxon_text" style="font-family: Verdana; font-style: Italic; fill: red" transform="rotate( 850 816.315789473684)" x="856" y="824">Pseudechis australis</text>
    <polyline points="650,811 650,825 683,825" style="stroke: #0000FE; stroke-width: 1" />
    <polyline points="650,811 650,798 850,798" style="stroke: #0100FD; stroke-width: 1" />
    <text class="taxon_text" style="font-family: Verdana; font-style: Italic; fill: red" transform="rotate( 850 798.070175438596)" x="856" y="806">Pseudechis australis</text>
    <polyline points="616,795 616,811 650,811" style="stroke: #0000FE; stroke-width: 1" />
    <polyline points="616,795 616,779 850,779" style="stroke: #0000FE; stroke-width: 1" />
    <text class="taxon_text" style="font-family: Verdana; font-style: Italic; fill: red" transform="rotate( 850 779.824561403509)" x="856" y="787">Pseudechis porphyriacus</text>
    <polyline points="583,720 583,795 616,795" style="stroke: #FE0000; stroke-width: 1" />
    <polyline points="583,720 583,645 616,645" style="stroke: #0000FE; stroke-width: 1" />
    <polyline points="550,620 550,720 583,720" style="stroke: #0000FE; stroke-width: 1" />
    <polyline points="550,620 550,519 583,519" style="stroke: #0000FE; stroke-width: 1" />
    <polyline points="516,498 516,620 550,620" style="stroke: #0000FE; stroke-width: 1" />
    <polyline points="516,498 516,376 550,376" style="stroke: #FE0000; stroke-width: 1" />
    <polyline points="483,402 483,498 516,498" style="stroke: #0000FE; stroke-width: 1" />
    <polyline points="483,402 483,305 850,305" style="stroke: #0300FB; stroke-width: 1" />
    <text class="taxon_text" style="font-family: Verdana; font-style: Italic" transform="rotate( 850 305.438596491228)" x="856" y="313">Thamnophis elegans *</text>
    <polyline points="450,316 450,402 483,402" style="stroke: #0000FE; stroke-width: 1" />
    <polyline points="450,316 450,231 483,231" style="stroke: #0000FE; stroke-width: 1" />
    <polyline points="416,256 416,316 450,316" style="stroke: #FE0000; stroke-width: 1" />
    <polyline points="416,256 416,195 850,195" style="stroke: #0000FE; stroke-width: 1" />
    <text class="taxon_text" style="font-family: Verdana; font-style: Italic; fill: red" transform="rotate( 850 195.964912280702)" x="856" y="203">Macrovipera lebetina</text>
    <polyline points="383,217 383,256 416,256" style="stroke: #0000FE; stroke-width: 1" />
    <polyline points="383,217 383,177 850,177" style="stroke: #0000FE; stroke-width: 1" />
    <text class="taxon_text" style="font-family: Verdana; font-style: Italic" transform="rotate( 850 177.719298245614)" x="856" y="185">Python molurus</text>
    <polyline points="350,188 350,217 383,217" style="stroke: #0000FE; stroke-width: 1" />
    <polyline points="350,188 350,159 850,159" style="stroke: #0000FE; stroke-width: 1" />
    <text class="taxon_text" style="font-family: Verdana; font-style: Italic" transform="rotate( 850 159.473684210526)" x="856" y="167">Anolis carolinensis</text>
    <polyline points="316,164 316,188 350,188" style="stroke: #0000FE; stroke-width: 1" />
    <polyline points="316,164 316,141 850,141" style="stroke: #0000FE; stroke-width: 1" />
    <text class="taxon_text" style="font-family: Verdana; font-style: Italic; fill: red" transform="rotate( 850 141.228070175439)" x="856" y="149">Heloderma suspectum cinctum</text>
    <polyline points="283,143 283,164 316,164" style="stroke: #0000FE; stroke-width: 1" />
    <polyline points="283,143 283,122 850,122" style="stroke: #0000FE; stroke-width: 1" />
    <text class="taxon_text" style="font-family: Verdana; font-style: Italic; fill: red" transform="rotate( 850 122.982456140351)" x="856" y="130">Varanus acanthurus</text>
    <polyline points="250,124 250,143 283,143" style="stroke: #0000FE; stroke-width: 1" />
    <polyline points="250,124 250,104 850,104" style="stroke: #FE0000; stroke-width: 1" />
    <text class="taxon_text" style="font-family: Verdana; font-style: Italic" transform="rotate( 850 104.736842105263)" x="856" y="112">Xenopus laevis</text>
    <polyline points="216,105 216,124 250,124" style="stroke: #0000FE; stroke-width: 1" />
    <polyline points="216,105 216,86 850,86" style="stroke: #0000FE; stroke-width: 1" />
    <text class="taxon_text" style="font-family: Verdana; font-style: Italic" transform="rotate( 850 86.4912280701754)" x="856" y="94">Gallus gallus</text>
    <polyline points="250,880 250,889 850,889" style="stroke: #0000FE; stroke-width: 1" />
    <text class="taxon_text" style="font-family: Verdana; font-style: Italic" transform="rotate( 850 889.298245614035)" x="856" y="897">Mastomys natalensis</text>
    <polyline points="250,880 250,871 850,871" style="stroke: #0000FE; stroke-width: 1" />
    <text class="taxon_text" style="font-family: Verdana; font-style: Italic" transform="rotate( 850 871.052631578947)" x="856" y="879">Mus musculus</text>
    <polyline points="216,866 216,880 250,880" style="stroke: #0000FE; stroke-width: 1" />
    <polyline points="216,866 216,852 850,852" style="stroke: #0000FE; stroke-width: 1" />
    <text class="taxon_text" style="font-family: Verdana; font-style: Italic" transform="rotate( 850 852.80701754386)" x="856" y="860">Homo sapiens</text>
    <polyline points="183,485 183,866 216,866" style="stroke: #FE0000; stroke-width: 1" />
    <polyline points="183,485 183,105 216,105" style="stroke: #0000FE; stroke-width: 1" />
    <polyline points="183,916 183,925 850,925" style="stroke: #0000FE; stroke-width: 1" />
    <text class="taxon_text" style="font-family: Verdana; font-style: Italic" transform="rotate( 850 925.789473684211)" x="856" y="933">Danio rerio</text>
    <polyline points="183,916 183,907 850,907" style="stroke: #5500A9; stroke-width: 1" />
    <text class="taxon_text" style="font-family: Verdana; font-style: Italic" transform="rotate( 850 907.543859649123)" x="856" y="915">Xiphophorus maculatus</text>
    <polyline points="150,701 150,916 183,916" style="stroke: #0300FB; stroke-width: 1" />
    <text class="node_text" style="font-family: Verdana; font-style: Italic" transform="rotate( 183.333333333333 916.666666666667)" x="189" y="924"> *</text>
    <polyline points="150,701 150,485 183,485" style="stroke: #0000FE; stroke-width: 1" />
    <polyline points="183,953 183,962 850,962" style="stroke: #0D00F1; stroke-width: 1" />
    <text class="taxon_text" style="font-family: Verdana; font-style: Italic" transform="rotate( 850 962.280701754386)" x="856" y="970">Gallus gallus</text>
    <polyline points="183,953 183,944 850,944" style="stroke: #0700F7; stroke-width: 1" />
    <text class="taxon_text" style="font-family: Verdana; font-style: Italic" transform="rotate( 850 944.035087719298)" x="856" y="952">Xenopus laevis **</text>
    <polyline points="183,989 183,998 850,998" style="stroke: #0000FE; stroke-width: 1" />
    <text class="taxon_text" style="font-family: Verdana; font-style: Italic" transform="rotate( 850 998.771929824561)" x="856" y="1006">Rattus norvegicus</text>
    <polyline points="183,989 183,980 850,980" style="stroke: #0000FE; stroke-width: 1" />
    <text class="taxon_text" style="font-family: Verdana; font-style: Italic" transform="rotate( 850 980.526315789474)" x="856" y="988">Homo sapiens</text>
    <polyline points="150,971 150,989 183,989" style="stroke: #0000FE; stroke-width: 1" />
    <polyline points="150,971 150,953 183,953" style="stroke: #0000FE; stroke-width: 1" />
    <polyline points="116,836 116,971 150,971" style="stroke: #0000FE; stroke-width: 1" />
    <polyline points="116,836 116,701 150,701" style="stroke: #0000FE; stroke-width: 1" />
    <polyline points="150,1026 150,1035 850,1035" style="stroke: #0000FE; stroke-width: 1" />
    <text class="taxon_text" style="font-family: Verdana; font-style: Italic" transform="rotate( 850 1035.26315789474)" x="856" y="1043">Xiphophorus maculatus</text>
    <polyline points="150,1026 150,1017 850,1017" style="stroke: #0000FE; stroke-width: 1" />
    <text class="taxon_text" style="font-family: Verdana; font-style: Italic" transform="rotate( 850 1017.01754385965)" x="856" y="1025">Danio rerio</text>
    <polyline points="150,1062 150,1071 850,1071" style="stroke: #0000FE; stroke-width: 1" />
    <text class="taxon_text" style="font-family: Verdana; font-style: Italic" transform="rotate( 850 1071.75438596491)" x="856" y="1079">Gallus gallus</text>
    <polyline points="150,1062 150,1053 850,1053" style="stroke: #0000FE; stroke-width: 1" />
    <text class="taxon_text" style="font-family: Verdana; font-style: Italic" transform="rotate( 850 1053.50877192982)" x="856" y="1061">Homo sapiens</text>
    <polyline points="116,1044 116,1062 150,1062" style="stroke: #0100FD; stroke-width: 1" />
    <text class="node_text" style="font-family: Verdana; font-style: Italic" transform="rotate( 150 1062.63157894737)" x="156" y="1070"> *</text>
    <polyline points="116,1044 116,1026 150,1026" style="stroke: #5400AA; stroke-width: 1" />
    <polyline points="83,940 83,1044 116,1044" style="stroke: #0000FE; stroke-width: 1" />
    <polyline points="83,940 83,836 116,836" style="stroke: #FE0000; stroke-width: 1" />
    <polyline points="50,352 50,940 83,940" style="stroke: #0000FE; stroke-width: 1" />
    <polyline points="50,352 50,68 850,68" style="stroke: #0000FE; stroke-width: 1" />
    <text class="taxon_text" style="font-family: Verdana; font-style: Italic" transform="rotate( 850 68.2456140350877)" x="856" y="76">Xenopus laevis</text>
    <polyline points="50,352 50,50 850,50" style="stroke: #0000FE; stroke-width: 1" />
    <text class="taxon_text" style="font-family: Verdana; font-style: Italic" transform="rotate( 850 50)" x="856" y="58">Lampetra fluviatilis</text>
    <text class="node_text" style="font-family: Verdana; font-style: Italic" transform="rotate( 50 352.871892103675)" x="56" y="360"> **</text>
</svg>