<svg height="3250" width="1500" xmlns="http://www.w3.org/2000/svg" xmlns:svg="http://www.w3.org/2000/svg" xmlns:xlink="http://www.w3.org/1999/xlink">
    <style type="text/css"><![CDATA[
	polyline { fill: none; stroke: black; stroke-width: 1 }
	path { fill: none; stroke: black; stroke-width: 1 }
	line { fill: none; stroke: black; stroke-width: 1 }
	circle.node_circle  {}
	circle.taxon_circle {}
	text.node_text      {}
	text.taxon_text     {}
	line.scale_bar      {}
	text.scale_label    {}
	line.scale_major    {}
	line.scale_minor    {}
]]></style>
    <polyline points="946,219 946,243 947,243" style="stroke: black; stroke-width: 1" />
    <text class="taxon_text" style="" transform="rotate( 947.492045735116 243.846153846154)" x="953" y="247">O hannah 124007158 EF065674</text>
    <polyline points="946,219 946,195 946,195" style="stroke: black; stroke-width: 1" />
    <text class="taxon_text" style="" transform="rotate( 946.876667431304 195.384615384615)" x="952" y="199">Oh gene2 s3444 VG</text>
    <polyline points="938,316 938,340 945,340" style="stroke: black; stroke-width: 1" />
    <text class="taxon_text" style="" transform="rotate( 945.976739200424 340.769230769231)" x="951" y="344">N atra 126035682 EF080840</text>
    <polyline points="938,316 938,292 947,292" style="stroke: black; stroke-width: 1" />
    <text class="taxon_text" style="" transform="rotate( 947.112750063101 292.307692307692)" x="953" y="296">Oh gene3 s3444 AG</text>
    <polyline points="890,268 890,316 938,316" style="stroke: black; stroke-width: 1" />
    <text class="node_text" style="" transform="rotate( 938.86705602269 316.538461538462)" x="944" y="320">1.00</text>
    <polyline points="890,268 890,219 946,219" style="stroke: black; stroke-width: 1" />
    <text class="node_text" style="" transform="rotate( 946.142778773251 219.615384615385)" x="952" y="223">1.00</text>
    <polyline points="954,461 954,486 970,486" style="stroke: black; stroke-width: 1" />
    <text class="taxon_text" style="" transform="rotate( 970.421766781129 486.153846153846)" x="976" y="490">A superbus 111572526 DQ826670</text>
    <polyline points="954,461 954,437 968,437" style="stroke: black; stroke-width: 1" />
    <text class="taxon_text" style="" transform="rotate( 968.665374538998 437.692307692308)" x="974" y="441">N scutatus 145982765 EF199638</text>
    <polyline points="943,425 943,461 954,461" style="stroke: black; stroke-width: 1" />
    <text class="node_text" style="" transform="rotate( 954.955383822205 461.923076923077)" x="960" y="465">1.00</text>
    <polyline points="943,425 943,389 972,389" style="stroke: black; stroke-width: 1" />
    <text class="taxon_text" style="" transform="rotate( 972.670961973874 389.230769230769)" x="978" y="393">N mossambica 21435682 AY101383</text>
    <polyline points="929,480 929,534 982,534" style="stroke: black; stroke-width: 1" />
    <text class="taxon_text" style="" transform="rotate( 982.274365666293 534.615384615385)" x="988" y="538">A microlep 6007786 AF186368</text>
    <polyline points="929,480 929,425 943,425" style="stroke: black; stroke-width: 1" />
    <text class="node_text" style="" transform="rotate( 943.337929492155 425.576923076923)" x="949" y="429">1.00</text>
    <polyline points="1014,607 1014,631 1024,631" style="stroke: black; stroke-width: 1" />
    <text class="taxon_text" style="" transform="rotate( 1024.82896360538 631.538461538462)" x="1030" y="635">B asper 82466486 DQ247726</text>
    <polyline points="1014,607 1014,583 1024,583" style="stroke: black; stroke-width: 1" />
    <text class="taxon_text" style="" transform="rotate( 1024.65948441805 583.076923076923)" x="1030" y="587">B insularis 52426578 AY736107</text>
    <polyline points="999,704 999,728 1043,728" style="stroke: black; stroke-width: 1" />
    <text class="taxon_text" style="" transform="rotate( 1043.4316496066 728.461538461538)" x="1049" y="732">C molossus 20530312 AF378288</text>
    <polyline points="999,704 999,680 1021,680" style="stroke: black; stroke-width: 1" />
    <text class="taxon_text" style="" transform="rotate( 1021.73987708944 680)" x="1027" y="684">S catenatus 109254969 DQ464254</text>
    <polyline points="994,655 994,704 999,704" style="stroke: black; stroke-width: 1" />
    <text class="node_text" style="" transform="rotate( 999.371751284102 704.230769230769)" x="1005" y="708">0.84</text>
    <polyline points="994,655 994,607 1014,607" style="stroke: black; stroke-width: 1" />
    <text class="node_text" style="" transform="rotate( 1014.6267542972 607.307692307692)" x="1020" y="611">1.00</text>
    <polyline points="1028,849 1028,873 1051,873" style="stroke: black; stroke-width: 1" />
    <text class="taxon_text" style="" transform="rotate( 1051.14951916691 873.846153846154)" x="1057" y="877">M lebetina 66390955 AY987816</text>
    <polyline points="1028,849 1028,825 1072,825" style="stroke: black; stroke-width: 1" />
    <text class="taxon_text" style="" transform="rotate( 1072.16994147152 825.384615384615)" x="1078" y="829">B gabonica 38374139 AY442287</text>
    <polyline points="1020,813 1020,849 1028,849" style="stroke: black; stroke-width: 1" />
    <text class="node_text" style="" transform="rotate( 1028.14506467851 849.615384615385)" x="1034" y="853">0.93</text>
    <polyline points="1020,813 1020,776 1072,776" style="stroke: black; stroke-width: 1" />
    <text class="taxon_text" style="" transform="rotate( 1072.63460212165 776.923076923077)" x="1078" y="780">E ocellatus 83523629 AM039693</text>
    <polyline points="988,734 988,813 1020,813" style="stroke: black; stroke-width: 1" />
    <text class="node_text" style="" transform="rotate( 1020.34464437013 813.269230769231)" x="1026" y="817">1.00</text>
    <polyline points="988,734 988,655 994,655" style="stroke: black; stroke-width: 1" />
    <text class="node_text" style="" transform="rotate( 994.916825118242 655.769230769231)" x="1000" y="659">1.00</text>
    <polyline points="1018,946 1018,970 1022,970" style="stroke: black; stroke-width: 1" />
    <text class="taxon_text" style="" transform="rotate( 1022.14981659975 970.769230769231)" x="1028" y="974">B insularis 20069132 AF490533</text>
    <polyline points="1018,946 1018,922 1028,922" style="stroke: black; stroke-width: 1" />
    <text class="taxon_text" style="" transform="rotate( 1028.11348276353 922.307692307692)" x="1034" y="926">B jararaca 13194759 AF345931</text>
    <polyline points="1009,982 1009,1019 1035,1019" style="stroke: black; stroke-width: 1" />
    <text class="taxon_text" style="" transform="rotate( 1035.44236319277 1019.23076923077)" x="1041" y="1023">C durissus 76365439 DQ164402</text>
    <polyline points="1009,982 1009,946 1018,946" style="stroke: black; stroke-width: 1" />
    <text class="node_text" style="" transform="rotate( 1018.16768108195 946.538461538462)" x="1024" y="950">1.00</text>
    <polyline points="1006,1025 1006,1067 1021,1067" style="stroke: black; stroke-width: 1" />
    <text class="taxon_text" style="" transform="rotate( 1021.63637596212 1067.69230769231)" x="1027" y="1071">A contortix 603216 U18234</text>
    <polyline points="1006,1025 1006,982 1009,982" style="stroke: black; stroke-width: 1" />
    <text class="node_text" style="" transform="rotate( 1009.55144675189 982.884615384615)" x="1015" y="986">0.92</text>
    <polyline points="1029,1140 1029,1164 1038,1164" style="stroke: black; stroke-width: 1" />
    <text class="taxon_text" style="" transform="rotate( 1038.97453459514 1164.61538461538)" x="1044" y="1168">D acutus 7340953 AF099086</text>
    <polyline points="1029,1140 1029,1116 1037,1116" style="stroke: black; stroke-width: 1" />
    <text class="taxon_text" style="" transform="rotate( 1037.5483453453 1116.15384615385)" x="1043" y="1120">D acutus 5360902 AJ223283</text>
    <polyline points="1001,1082 1001,1140 1029,1140" style="stroke: black; stroke-width: 1" />
    <text class="node_text" style="" transform="rotate( 1029.70790043179 1140.38461538462)" x="1035" y="1144">1.00</text>
    <polyline points="1001,1082 1001,1025 1006,1025" style="stroke: black; stroke-width: 1" />
    <text class="node_text" style="" transform="rotate( 1006.38262371793 1025.28846153846)" x="1012" y="1029">1.00</text>
    <polyline points="995,1237 995,1261 1052,1261" style="stroke: black; stroke-width: 1" />
    <text class="taxon_text" style="" transform="rotate( 1052.24613080891 1261.53846153846)" x="1058" y="1265">D acutus 5802902 AF174391</text>
    <polyline points="995,1237 995,1213 1021,1213" style="stroke: black; stroke-width: 1" />
    <text class="taxon_text" style="" transform="rotate( 1021.96782972332 1213.07692307692)" x="1027" y="1217">P elegans 15991221 AB059572</text>
    <polyline points="987,1160 987,1237 995,1237" style="stroke: black; stroke-width: 1" />
    <text class="node_text" style="" transform="rotate( 995.436206908197 1237.30769230769)" x="1001" y="1241">1.00</text>
    <polyline points="987,1160 987,1082 1001,1082" style="stroke: black; stroke-width: 1" />
    <text class="node_text" style="" transform="rotate( 1001.50181073815 1082.83653846154)" x="1007" y="1086">1.00</text>
    <polyline points="983,947 983,1160 987,1160" style="stroke: black; stroke-width: 1" />
    <text class="node_text" style="" transform="rotate( 987.918147681287 1160.07211538462)" x="993" y="1164">1.00</text>
    <polyline points="983,947 983,734 988,734" style="stroke: black; stroke-width: 1" />
    <text class="node_text" style="" transform="rotate( 988.685807099915 734.519230769231)" x="994" y="738">1.00</text>
    <polyline points="974,1128 974,1310 997,1310" style="stroke: black; stroke-width: 1" />
    <text class="taxon_text" style="" transform="rotate( 997.171336078855 1310)" x="1003" y="1314">A contortrix 603214 U18233</text>
    <polyline points="974,1128 974,947 983,947" style="stroke: black; stroke-width: 1" />
    <text class="node_text" style="" transform="rotate( 983.013882784442 947.295673076923)" x="989" y="951">1.00</text>
    <polyline points="965,1243 965,1358 997,1358" style="stroke: black; stroke-width: 1" />
    <text class="taxon_text" style="" transform="rotate( 997.848002059266 1358.46153846154)" x="1003" y="1362">S catenatus 109254959 DQ464249</text>
    <polyline points="965,1243 965,1128 974,1128" style="stroke: black; stroke-width: 1" />
    <text class="node_text" style="" transform="rotate( 974.584325714233 1128.64783653846)" x="980" y="1132">0.97</text>
    <polyline points="960,1325 960,1406 1002,1406" style="stroke: black; stroke-width: 1" />
    <text class="taxon_text" style="" transform="rotate( 1002.03964136953 1406.92307692308)" x="1008" y="1410">C atrox 144905067 AB257084</text>
    <polyline points="960,1325 960,1243 965,1243" style="stroke: black; stroke-width: 1" />
    <text class="node_text" style="" transform="rotate( 965.699488760716 1243.5546875)" x="971" y="1247">0.89</text>
    <polyline points="993,1479 993,1503 1020,1503" style="stroke: black; stroke-width: 1" />
    <text class="taxon_text" style="" transform="rotate( 1020.28429477021 1503.84615384615)" x="1026" y="1507">E ocellatus 83523627 AM039692</text>
    <polyline points="993,1479 993,1455 1022,1455" style="stroke: black; stroke-width: 1" />
    <text class="taxon_text" style="" transform="rotate( 1022.00128779167 1455.38461538462)" x="1028" y="1459">E ocellatus 83523641 AM039699</text>
    <polyline points="977,1515 977,1552 1008,1552" style="stroke: black; stroke-width: 1" />
    <text class="taxon_text" style="" transform="rotate( 1008.24376785629 1552.30769230769)" x="1014" y="1556">E ocellatus 83523643 AM039700</text>
    <polyline points="977,1515 977,1479 993,1479" style="stroke: black; stroke-width: 1" />
    <text class="node_text" style="" transform="rotate( 993.902451532079 1479.61538461538)" x="999" y="1483">1.00</text>
    <polyline points="971,1558 971,1600 1007,1600" style="stroke: black; stroke-width: 1" />
    <text class="taxon_text" style="" transform="rotate( 1007.74877606008 1600.76923076923)" x="1013" y="1604">B jararaca 31742524 AF149788</text>
    <polyline points="971,1558 971,1515 977,1515" style="stroke: black; stroke-width: 1" />
    <text class="node_text" style="" transform="rotate( 977.411063451257 1515.96153846154)" x="983" y="1519">1.00</text>
    <polyline points="978,1673 978,1697 1004,1697" style="stroke: black; stroke-width: 1" />
    <text class="taxon_text" style="" transform="rotate( 1004.23192657686 1697.69230769231)" x="1010" y="1701">D russelii 71727516 DQ137798</text>
    <polyline points="978,1673 978,1649 1013,1649" style="stroke: black; stroke-width: 1" />
    <text class="taxon_text" style="" transform="rotate( 1013.84721257393 1649.23076923077)" x="1019" y="1653">E ocellatus 83523637 AM039697</text>
    <polyline points="962,1615 962,1673 978,1673" style="stroke: black; stroke-width: 1" />
    <text class="node_text" style="" transform="rotate( 978.835376547733 1673.46153846154)" x="984" y="1677">1.00</text>
    <polyline points="962,1615 962,1558 971,1558" style="stroke: black; stroke-width: 1" />
    <text class="node_text" style="" transform="rotate( 971.807618733616 1558.36538461538)" x="977" y="1562">1.00</text>
    <polyline points="988,1818 988,1843 1004,1843" style="stroke: black; stroke-width: 1" />
    <text class="taxon_text" style="" transform="rotate( 1004.47019805425 1843.07692307692)" x="1010" y="1847">D russelii 71727518 DQ137799</text>
    <polyline points="988,1818 988,1794 997,1794" style="stroke: black; stroke-width: 1" />
    <text class="taxon_text" style="" transform="rotate( 997.272022976125 1794.61538461538)" x="1003" y="1798">M lebetina 33391733 AY339162</text>
    <polyline points="977,1782 977,1818 988,1818" style="stroke: black; stroke-width: 1" />
    <text class="node_text" style="" transform="rotate( 988.715825553759 1818.84615384615)" x="994" y="1822">1.00</text>
    <polyline points="977,1782 977,1746 1013,1746" style="stroke: black; stroke-width: 1" />
    <text class="taxon_text" style="" transform="rotate( 1013.3769234637 1746.15384615385)" x="1019" y="1750">E ocellatus 83523645 AM039701</text>
    <polyline points="955,1699 955,1782 977,1782" style="stroke: black; stroke-width: 1" />
    <text class="node_text" style="" transform="rotate( 977.078046228919 1782.5)" x="983" y="1786">1.00</text>
    <polyline points="955,1699 955,1615 962,1615" style="stroke: black; stroke-width: 1" />
    <text class="node_text" style="" transform="rotate( 962.389641532132 1615.91346153846)" x="968" y="1619">1.00</text>
    <polyline points="951,1512 951,1699 955,1699" style="stroke: black; stroke-width: 1" />
    <text class="node_text" style="" transform="rotate( 955.179271457128 1699.20673076923)" x="961" y="1703">0.92</text>
    <polyline points="951,1512 951,1325 960,1325" style="stroke: black; stroke-width: 1" />
    <text class="node_text" style="" transform="rotate( 960.212678243951 1325.23888221154)" x="966" y="1329">1.00</text>
    <polyline points="962,1915 962,1940 977,1940" style="stroke: black; stroke-width: 1" />
    <text class="taxon_text" style="" transform="rotate( 977.184048894058 1940)" x="983" y="1944">M lebetina 61104774 AY835996</text>
    <polyline points="962,1915 962,1891 982,1891" style="stroke: black; stroke-width: 1" />
    <text class="taxon_text" style="" transform="rotate( 982.83814975256 1891.53846153846)" x="988" y="1895">E ocellatus 83523625 AM039691</text>
    <polyline points="966,2012 966,2036 983,2036" style="stroke: black; stroke-width: 1" />
    <text class="taxon_text" style="" transform="rotate( 983.589236483128 2036.92307692308)" x="989" y="2040">P flavoviridis 14325766 AB051849</text>
    <polyline points="966,2012 966,1988 980,1988" style="stroke: black; stroke-width: 1" />
    <text class="taxon_text" style="" transform="rotate( 980.669629154523 1988.46153846154)" x="986" y="1992">C durissus 78364923 DQ224420</text>
    <polyline points="949,1964 949,2012 966,2012" style="stroke: black; stroke-width: 1" />
    <text class="node_text" style="" transform="rotate( 966.915548833645 2012.69230769231)" x="972" y="2016">1.00</text>
    <polyline points="949,1964 949,1915 962,1915" style="stroke: black; stroke-width: 1" />
    <text class="node_text" style="" transform="rotate( 962.62822570175 1915.76923076923)" x="968" y="1919">1.00</text>
    <polyline points="939,1738 939,1964 949,1964" style="stroke: black; stroke-width: 1" />
    <text class="node_text" style="" transform="rotate( 949.261258358576 1964.23076923077)" x="955" y="1968">1.00</text>
    <polyline points="939,1738 939,1512 951,1512" style="stroke: black; stroke-width: 1" />
    <text class="node_text" style="" transform="rotate( 951.029845597581 1512.22280649038)" x="957" y="1516">1.00</text>
    <polyline points="931,1911 931,2085 995,2085" style="stroke: black; stroke-width: 1" />
    <text class="taxon_text" style="" transform="rotate( 995.842706804008 2085.38461538462)" x="1001" y="2089">B arietans 62547936 AY885661</text>
    <polyline points="931,1911 931,1738 939,1738" style="stroke: black; stroke-width: 1" />
    <text class="node_text" style="" transform="rotate( 939.998376501955 1738.22678786058)" x="945" y="1742">1.00</text>
    <polyline points="914,1195 914,1911 931,1911" style="stroke: black; stroke-width: 1" />
    <text class="node_text" style="" transform="rotate( 931.372448712846 1911.8057016226)" x="937" y="1915">1.00</text>
    <polyline points="914,1195 914,480 929,480" style="stroke: black; stroke-width: 1" />
    <text class="node_text" style="" transform="rotate( 929.107931600952 480.096153846154)" x="935" y="484">1.00</text>
    <polyline points="882,732 882,1195 914,1195" style="stroke: black; stroke-width: 1" />
    <text class="node_text" style="" transform="rotate( 914.250673101289 1195.95092773438)" x="920" y="1199">1.00</text>
    <polyline points="882,732 882,268 890,268" style="stroke: black; stroke-width: 1" />
    <text class="node_text" style="" transform="rotate( 890.767486812518 268.076923076923)" x="896" y="272">0.62</text>
    <polyline points="865,439 865,732 882,732" style="stroke: black; stroke-width: 1" />
    <text class="node_text" style="" transform="rotate( 882.737237716887 732.013925405649)" x="888" y="736">1.00</text>
    <polyline points="865,439 865,146 904,146" style="stroke: black; stroke-width: 1" />
    <text class="taxon_text" style="" transform="rotate( 904.228574516184 146.923076923077)" x="910" y="150">Oh gene1 s3444 PT</text>
    <polyline points="825,1286 825,2133 889,2133" style="stroke: black; stroke-width: 1" />
    <text class="taxon_text" style="" transform="rotate( 889.276570271574 2133.84615384615)" x="895" y="2137">A carolinensis 327284372 XM 0032</text>
    <polyline points="825,1286 825,439 865,439" style="stroke: black; stroke-width: 1" />
    <text class="node_text" style="" transform="rotate( 865.546044430814 439.468501164363)" x="871" y="443">1.00</text>
    <polyline points="825,2255 825,2279 996,2279" style="stroke: black; stroke-width: 1" />
    <text class="taxon_text" style="" transform="rotate( 996.924934603548 2279.23076923077)" x="1002" y="2283">H sapiens 223718684 NM 014479</text>
    <polyline points="825,2255 825,2230 1018,2230" style="stroke: black; stroke-width: 1" />
    <text class="taxon_text" style="" transform="rotate( 1018.2636775958 2230.76923076923)" x="1024" y="2234">H sapiens 354983502 NM 003817</text>
    <polyline points="802,2218 802,2255 825,2255" style="stroke: black; stroke-width: 1" />
    <text class="node_text" style="" transform="rotate( 825.009249436091 2255)" x="831" y="2259">0.63</text>
    <polyline points="802,2218 802,2182 925,2182" style="stroke: black; stroke-width: 1" />
    <text class="taxon_text" style="" transform="rotate( 925.561689048342 2182.30769230769)" x="931" y="2186">H sapiens 98985827 NM 014265</text>
    <polyline points="765,1752 765,2218 802,2218" style="stroke: black; stroke-width: 1" />
    <text class="node_text" style="" transform="rotate( 802.925048173365 2218.65384615385)" x="808" y="2222">0.99</text>
    <polyline points="765,1752 765,1286 825,1286" style="stroke: black; stroke-width: 1" />
    <text class="node_text" style="" transform="rotate( 825.226257842008 1286.65732750526)" x="831" y="1290">1.00</text>
    <polyline points="896,2400 896,2424 1036,2424" style="stroke: black; stroke-width: 1" />
    <text class="taxon_text" style="" transform="rotate( 1036.68031172163 2424.61538461538)" x="1042" y="2428">D rerio 326673451 XM 694823</text>
    <polyline points="896,2400 896,2376 1012,2376" style="stroke: black; stroke-width: 1" />
    <text class="taxon_text" style="" transform="rotate( 1012.17118223428 2376.15384615385)" x="1018" y="2380">A carolinensis 327277545 XM 0032</text>
    <polyline points="801,2364 801,2400 896,2400" style="stroke: black; stroke-width: 1" />
    <text class="node_text" style="" transform="rotate( 896.098889292193 2400.38461538462)" x="902" y="2404">1.00</text>
    <polyline points="801,2364 801,2327 1042,2327" style="stroke: black; stroke-width: 1" />
    <text class="taxon_text" style="" transform="rotate( 1042.40414294688 2327.69230769231)" x="1048" y="2331">H sapiens 46909599 NM 207197</text>
    <polyline points="755,2418 755,2473 977,2473" style="stroke: black; stroke-width: 1" />
    <text class="taxon_text" style="" transform="rotate( 977.580855330815 2473.07692307692)" x="983" y="2477">H sapiens 256773263 NM 001109</text>
    <polyline points="755,2418 755,2364 801,2364" style="stroke: black; stroke-width: 1" />
    <text class="node_text" style="" transform="rotate( 801.495732001248 2364.03846153846)" x="807" y="2368">0.69</text>
    <polyline points="707,2503 707,2570 932,2570" style="stroke: black; stroke-width: 1" />
    <text class="taxon_text" style="" transform="rotate( 932.32928692914 2570)" x="938" y="2574">D rerio 34785401 BC057428</text>
    <polyline points="707,2503 707,2521 984,2521" style="stroke: black; stroke-width: 1" />
    <text class="taxon_text" style="" transform="rotate( 984.673653128261 2521.53846153846)" x="990" y="2525">H sapiens 54292119 NM 003816</text>
    <polyline points="707,2503 707,2418 755,2418" style="stroke: black; stroke-width: 1" />
    <text class="node_text" style="" transform="rotate( 755.145675804201 2418.55769230769)" x="761" y="2422">0.77</text>
    <polyline points="663,2128 663,2503 707,2503" style="stroke: black; stroke-width: 1" />
    <text class="node_text" style="" transform="rotate( 707.429467265001 2503.36538461538)" x="713" y="2507">0.54</text>
    <polyline points="663,2128 663,1752 765,1752" style="stroke: black; stroke-width: 1" />
    <text class="node_text" style="" transform="rotate( 765.368522799391 1752.65558682955)" x="771" y="1756">1.00</text>
    <polyline points="920,2642 920,2666 971,2666" style="stroke: black; stroke-width: 1" />
    <text class="taxon_text" style="" transform="rotate( 971.892045635054 2666.92307692308)" x="977" y="2670">H sapiens 315434189 NM 021723</text>
    <polyline points="920,2642 920,2618 991,2618" style="stroke: black; stroke-width: 1" />
    <text class="taxon_text" style="" transform="rotate( 991.038816112205 2618.46153846154)" x="997" y="2622">A carolinensis 327274757 XM 0032</text>
    <polyline points="849,2679 849,2715 912,2715" style="stroke: black; stroke-width: 1" />
    <text class="taxon_text" style="" transform="rotate( 912.151570177767 2715.38461538462)" x="918" y="2719">D rerio 68366001 XM 690011</text>
    <polyline points="849,2679 849,2642 920,2642" style="stroke: black; stroke-width: 1" />
    <text class="node_text" style="" transform="rotate( 920.551421486359 2642.69230769231)" x="926" y="2646">1.00</text>
    <polyline points="600,2403 600,2679 849,2679" style="stroke: black; stroke-width: 1" />
    <text class="node_text" style="" transform="rotate( 849.9151853602 2679.03846153846)" x="855" y="2683">1.00</text>
    <polyline points="600,2403 600,2128 663,2128" style="stroke: black; stroke-width: 1" />
    <text class="node_text" style="" transform="rotate( 663.745737692246 2128.01048572247)" x="669" y="2132">1.00</text>
    <polyline points="1131,2788 1131,2812 1158,2812" style="stroke: black; stroke-width: 1" />
    <text class="taxon_text" style="" transform="rotate( 1158.80538811234 2812.30769230769)" x="1164" y="2816">Oh gene4 s142 coexp</text>
    <polyline points="1131,2788 1131,2763 1193,2763" style="stroke: black; stroke-width: 1" />
    <text class="taxon_text" style="" transform="rotate( 1193.85318374471 2763.84615384615)" x="1199" y="2767">A carolinensis 327286800 XM 0032</text>
    <polyline points="1102,2824 1102,2860 1150,2860" style="stroke: black; stroke-width: 1" />
    <text class="taxon_text" style="" transform="rotate( 1150.06626573686 2860.76923076923)" x="1156" y="2864">H sapiens 73747882 NM 001110</text>
    <polyline points="1102,2824 1102,2788 1131,2788" style="stroke: black; stroke-width: 1" />
    <text class="node_text" style="" transform="rotate( 1131.32286823325 2788.07692307692)" x="1137" y="2792">1.00</text>
    <polyline points="1076,2866 1076,2909 1157,2909" style="stroke: black; stroke-width: 1" />
    <text class="taxon_text" style="" transform="rotate( 1157.04555625571 2909.23076923077)" x="1163" y="2913">D rerio 226533708 NM 001159314</text>
    <polyline points="1076,2866 1076,2824 1102,2824" style="stroke: black; stroke-width: 1" />
    <text class="node_text" style="" transform="rotate( 1102.36319027122 2824.42307692308)" x="1108" y="2828">1.00</text>
    <polyline points="906,2912 906,2957 1196,2957" style="stroke: black; stroke-width: 1" />
    <text class="taxon_text" style="" transform="rotate( 1196.47760961051 2957.69230769231)" x="1202" y="2961">D rerio 326678492 XM 684373</text>
    <polyline points="906,2912 906,2866 1076,2866" style="stroke: black; stroke-width: 1" />
    <text class="node_text" style="" transform="rotate( 1076.52605689348 2866.82692307692)" x="1082" y="2870">1.00</text>
    <polyline points="1199,3030 1199,3054 1300,3054" style="stroke: black; stroke-width: 1" />
    <text class="taxon_text" style="" transform="rotate( 1300 3054.61538461538)" x="1306" y="3058">H sapiens 73747888 NM 003183</text>
    <polyline points="1199,3030 1199,3006 1297,3006" style="stroke: black; stroke-width: 1" />
    <text class="taxon_text" style="" transform="rotate( 1297.38620566994 3006.15384615385)" x="1303" y="3010">A carolinensis 327261268 XM 0032</text>
    <polyline points="1118,3066 1118,3103 1222,3103" style="stroke: black; stroke-width: 1" />
    <text class="taxon_text" style="" transform="rotate( 1222.64463328831 3103.07692307692)" x="1228" y="3107">D rerio 326677166 XM 684055</text>
    <polyline points="1118,3066 1118,3030 1199,3030" style="stroke: black; stroke-width: 1" />
    <text class="node_text" style="" transform="rotate( 1199.41472770386 3030.38461538462)" x="1205" y="3034">1.00</text>
    <polyline points="1070,3109 1070,3151 1165,3151" style="stroke: black; stroke-width: 1" />
    <text class="taxon_text" style="" transform="rotate( 1165.38505796438 3151.53846153846)" x="1171" y="3155">D rerio 41054438 NM 199673</text>
    <polyline points="1070,3109 1070,3066 1118,3066" style="stroke: black; stroke-width: 1" />
    <text class="node_text" style="" transform="rotate( 1118.61505610574 3066.73076923077)" x="1124" y="3070">0.99</text>
    <polyline points="739,3010 739,3109 1070,3109" style="stroke: black; stroke-width: 1" />
    <text class="node_text" style="" transform="rotate( 1070.52330420126 3109.13461538462)" x="1076" y="3113">1.00</text>
    <polyline points="739,3010 739,2912 906,2912" style="stroke: black; stroke-width: 1" />
    <text class="node_text" style="" transform="rotate( 906.915226135267 2912.25961538462)" x="912" y="2916">1.00</text>
    <polyline points="540,2707 540,3010 739,3010" style="stroke: black; stroke-width: 1" />
    <text class="node_text" style="" transform="rotate( 739.275919871741 3010.69711538462)" x="745" y="3014">1.00</text>
    <polyline points="540,2707 540,2403 600,2403" style="stroke: black; stroke-width: 1" />
    <text class="node_text" style="" transform="rotate( 600.437131226421 2403.52447363046)" x="606" y="2407">0.96</text>
    <polyline points="50,951 50,2707 540,2707" style="stroke: black; stroke-width: 1" />
    <text class="node_text" style="" transform="rotate( 540.944620705579 2707.11079450754)" x="546" y="2711">1.00</text>
    <polyline points="50,951 50,98 222,98" style="stroke: black; stroke-width: 1" />
    <text class="taxon_text" style="" transform="rotate( 222.991659122446 98.4615384615385)" x="228" y="102">H sapiens 56121814 NM 030957</text>
    <polyline points="50,951 50,50 143,50" style="stroke: black; stroke-width: 1" />
    <text class="taxon_text" style="" transform="rotate( 143.287348397427 50)" x="149" y="54">H sapiens OG 64276807 NM 197941</text>
</svg>