<svg height="5250" width="1500" xmlns="http://www.w3.org/2000/svg" xmlns:svg="http://www.w3.org/2000/svg" xmlns:xlink="http://www.w3.org/1999/xlink">
    <style type="text/css"><![CDATA[
	polyline { fill: none; stroke: black; stroke-width: 1 }
	path { fill: none; stroke: black; stroke-width: 1 }
	line { fill: none; stroke: black; stroke-width: 1 }
	circle.node_circle  {}
	circle.taxon_circle {}
	text.node_text      {}
	text.taxon_text     {}
	line.scale_bar      {}
	text.scale_label    {}
	line.scale_major    {}
	line.scale_minor    {}
]]></style>
    <polyline points="708,172 708,197 721,197" style="stroke: black; stroke-width: 1" />
    <text class="taxon_text" style="" transform="rotate( 721.753200708607 197.142857142857)" x="727" y="201">C oreganus 358801573</text>
    <polyline points="708,172 708,148 710,148" style="stroke: black; stroke-width: 1" />
    <text class="taxon_text" style="" transform="rotate( 710.136385160282 148.095238095238)" x="716" y="152">C oreganus 358801542</text>
    <polyline points="700,209 700,246 713,246" style="stroke: black; stroke-width: 1" />
    <text class="taxon_text" style="" transform="rotate( 713.397386231525 246.190476190476)" x="719" y="250">C atrox 28972958</text>
    <polyline points="700,209 700,172 708,172" style="stroke: black; stroke-width: 1" />
    <text class="node_text" style="" transform="rotate( 708.444790931373 172.619047619048)" x="714" y="176">1.00</text>
    <polyline points="707,319 707,344 718,344" style="stroke: black; stroke-width: 1" />
    <text class="taxon_text" style="" transform="rotate( 718.400058329454 344.285714285714)" x="724" y="348">C rhodostoma 190195316</text>
    <polyline points="707,319 707,295 713,295" style="stroke: black; stroke-width: 1" />
    <text class="taxon_text" style="" transform="rotate( 713.824040548586 295.238095238095)" x="719" y="299">C viridis 190195318</text>
    <polyline points="694,264 694,319 707,319" style="stroke: black; stroke-width: 1" />
    <text class="node_text" style="" transform="rotate( 707.599494584896 319.761904761905)" x="713" y="323">1.00</text>
    <polyline points="694,264 694,209 700,209" style="stroke: black; stroke-width: 1" />
    <text class="node_text" style="" transform="rotate( 700.390438776908 209.404761904762)" x="706" y="213">0.57</text>
    <polyline points="722,442 722,491 727,491" style="stroke: black; stroke-width: 1" />
    <text class="taxon_text" style="" transform="rotate( 727.263651535996 491.428571428571)" x="733" y="495">C horridus 190195314</text>
    <polyline points="722,442 722,442 725,442" style="stroke: black; stroke-width: 1" />
    <text class="taxon_text" style="" transform="rotate( 725.588081882375 442.380952380952)" x="731" y="446">C horridus 190195308</text>
    <polyline points="722,442 722,393 725,393" style="stroke: black; stroke-width: 1" />
    <text class="taxon_text" style="" transform="rotate( 725.637157144197 393.333333333333)" x="731" y="397">C horridus 190195312</text>
    <polyline points="721,565 721,589 726,589" style="stroke: black; stroke-width: 1" />
    <text class="taxon_text" style="" transform="rotate( 726.811958820047 589.52380952381)" x="732" y="593">C horridus 190195306</text>
    <polyline points="721,565 721,540 726,540" style="stroke: black; stroke-width: 1" />
    <text class="taxon_text" style="" transform="rotate( 726.65171306716 540.47619047619)" x="732" y="544">C horridus 190195310</text>
    <polyline points="717,503 717,565 721,565" style="stroke: black; stroke-width: 1" />
    <text class="node_text" style="" transform="rotate( 721.378626261235 565)" x="727" y="569">0.95</text>
    <polyline points="717,503 717,442 722,442" style="stroke: black; stroke-width: 1" />
    <text class="node_text" style="" transform="rotate( 722.146804339135 442.380952380952)" x="728" y="446">0.95</text>
    <polyline points="698,571 698,638 710,638" style="stroke: black; stroke-width: 1" />
    <text class="taxon_text" style="" transform="rotate( 710.794394283073 638.571428571429)" x="716" y="642">C adamanteus 338855273</text>
    <polyline points="698,571 698,503 717,503" style="stroke: black; stroke-width: 1" />
    <text class="node_text" style="" transform="rotate( 717.30938567387 503.690476190476)" x="723" y="507">1.00</text>
    <polyline points="694,665 694,736 757,736" style="stroke: black; stroke-width: 1" />
    <text class="taxon_text" style="" transform="rotate( 757.755413702454 736.666666666667)" x="763" y="740">S catenatus 109254987</text>
    <polyline points="694,665 694,687 721,687" style="stroke: black; stroke-width: 1" />
    <text class="taxon_text" style="" transform="rotate( 721.727160773763 687.619047619048)" x="727" y="691">A piscivorus 28972956</text>
    <polyline points="694,665 694,571 698,571" style="stroke: black; stroke-width: 1" />
    <text class="node_text" style="" transform="rotate( 698.698844547999 571.130952380952)" x="704" y="575">0.58</text>
    <polyline points="687,464 687,665 694,665" style="stroke: black; stroke-width: 1" />
    <text class="node_text" style="" transform="rotate( 694.030685459221 665.138888888889)" x="700" y="669">0.84</text>
    <polyline points="687,464 687,264 694,264" style="stroke: black; stroke-width: 1" />
    <text class="node_text" style="" transform="rotate( 694.829911151743 264.583333333333)" x="700" y="268">0.96</text>
    <polyline points="668,625 668,785 705,785" style="stroke: black; stroke-width: 1" />
    <text class="taxon_text" style="" transform="rotate( 705.740643851411 785.714285714286)" x="711" y="789">C godmani 190195328</text>
    <polyline points="668,625 668,464 687,464" style="stroke: black; stroke-width: 1" />
    <text class="node_text" style="" transform="rotate( 687.259300863805 464.861111111111)" x="693" y="468">1.00</text>
    <polyline points="690,859 690,883 720,883" style="stroke: black; stroke-width: 1" />
    <text class="taxon_text" style="" transform="rotate( 720.250896775295 883.809523809524)" x="726" y="887">D acutus 190195336</text>
    <polyline points="690,859 690,834 694,834" style="stroke: black; stroke-width: 1" />
    <text class="taxon_text" style="" transform="rotate( 694.934070891119 834.761904761905)" x="700" y="838">D acutus 190195338</text>
    <polyline points="647,742 647,859 690,859" style="stroke: black; stroke-width: 1" />
    <text class="node_text" style="" transform="rotate( 690.343030070917 859.285714285714)" x="696" y="863">1.00</text>
    <polyline points="647,742 647,625 668,625" style="stroke: black; stroke-width: 1" />
    <text class="node_text" style="" transform="rotate( 668.944212844819 625.287698412698)" x="674" y="629">1.00</text>
    <polyline points="708,1006 708,1030 711,1030" style="stroke: black; stroke-width: 1" />
    <text class="taxon_text" style="" transform="rotate( 711.213036312489 1030.95238095238)" x="717" y="1034">V stejnegeri 190195330</text>
    <polyline points="708,1006 708,981 709,981" style="stroke: black; stroke-width: 1" />
    <text class="taxon_text" style="" transform="rotate( 709.747789209532 981.904761904762)" x="715" y="985">V stejnegeri 190195334</text>
    <polyline points="701,969 701,1006 708,1006" style="stroke: black; stroke-width: 1" />
    <text class="node_text" style="" transform="rotate( 708.056194980622 1006.42857142857)" x="714" y="1010">1.00</text>
    <polyline points="701,969 701,932 705,932" style="stroke: black; stroke-width: 1" />
    <text class="taxon_text" style="" transform="rotate( 705.086640872442 932.857142857143)" x="711" y="936">V stejnegeri 190195332</text>
    <polyline points="698,1104 698,1129 722,1129" style="stroke: black; stroke-width: 1" />
    <text class="taxon_text" style="" transform="rotate( 722.692641434905 1129.04761904762)" x="728" y="1133">T flavoviridis 21305552</text>
    <polyline points="698,1104 698,1080 719,1080" style="stroke: black; stroke-width: 1" />
    <text class="taxon_text" style="" transform="rotate( 719.66800284917 1080)" x="725" y="1084">T mucrosquamatus 1778012</text>
    <polyline points="686,1141 686,1178 704,1178" style="stroke: black; stroke-width: 1" />
    <text class="taxon_text" style="" transform="rotate( 704.216306127077 1178.09523809524)" x="710" y="1182">T jerdonii 30171826</text>
    <polyline points="686,1141 686,1104 698,1104" style="stroke: black; stroke-width: 1" />
    <text class="node_text" style="" transform="rotate( 698.141990556718 1104.52380952381)" x="704" y="1108">1.00</text>
    <polyline points="674,1055 674,1141 686,1141" style="stroke: black; stroke-width: 1" />
    <text class="node_text" style="" transform="rotate( 686.169629744176 1141.30952380952)" x="692" y="1145">1.00</text>
    <polyline points="674,1055 674,969 701,969" style="stroke: black; stroke-width: 1" />
    <text class="node_text" style="" transform="rotate( 701.547212805559 969.642857142857)" x="707" y="973">1.00</text>
    <polyline points="659,1141 659,1227 702,1227" style="stroke: black; stroke-width: 1" />
    <text class="taxon_text" style="" transform="rotate( 702.360460001458 1227.14285714286)" x="708" y="1231">G blomhoffi 21305550</text>
    <polyline points="659,1141 659,1055 674,1055" style="stroke: black; stroke-width: 1" />
    <text class="node_text" style="" transform="rotate( 674.713059948738 1055.47619047619)" x="680" y="1059">1.00</text>
    <polyline points="677,1300 677,1325 681,1325" style="stroke: black; stroke-width: 1" />
    <text class="taxon_text" style="" transform="rotate( 681.287141960911 1325.2380952381)" x="687" y="1329">T gracilis 190195324</text>
    <polyline points="677,1300 677,1276 681,1276" style="stroke: black; stroke-width: 1" />
    <text class="taxon_text" style="" transform="rotate( 681.096850129359 1276.19047619048)" x="687" y="1280">B schlegelii 190195304</text>
    <polyline points="649,1221 649,1300 677,1300" style="stroke: black; stroke-width: 1" />
    <text class="node_text" style="" transform="rotate( 677.911965790737 1300.71428571429)" x="683" y="1304">1.00</text>
    <polyline points="649,1221 649,1141 659,1141" style="stroke: black; stroke-width: 1" />
    <text class="node_text" style="" transform="rotate( 659.432625875042 1141.30952380952)" x="665" y="1145">0.88</text>
    <polyline points="636,981 636,1221 649,1221" style="stroke: black; stroke-width: 1" />
    <text class="node_text" style="" transform="rotate( 649.575509000603 1221.0119047619)" x="655" y="1225">0.88</text>
    <polyline points="636,981 636,742 647,742" style="stroke: black; stroke-width: 1" />
    <text class="node_text" style="" transform="rotate( 647.488308069255 742.286706349206)" x="653" y="746">0.53</text>
    <polyline points="614,1177 614,1374 652,1374" style="stroke: black; stroke-width: 1" />
    <text class="taxon_text" style="" transform="rotate( 652.459932552563 1374.28571428571)" x="658" y="1378">A feae 190195302</text>
    <polyline points="614,1177 614,981 636,981" style="stroke: black; stroke-width: 1" />
    <text class="node_text" style="" transform="rotate( 636.602613768476 981.649305555556)" x="642" y="985">0.98</text>
    <polyline points="701,1447 701,1472 703,1472" style="stroke: black; stroke-width: 1" />
    <text class="taxon_text" style="" transform="rotate( 703.033492163582 1472.38095238095)" x="709" y="1476">A nitschei 190195300</text>
    <polyline points="701,1447 701,1423 704,1423" style="stroke: black; stroke-width: 1" />
    <text class="taxon_text" style="" transform="rotate( 704.474702403606 1423.33333333333)" x="710" y="1427">D russelii 190195322</text>
    <polyline points="703,1595 703,1619 707,1619" style="stroke: black; stroke-width: 1" />
    <text class="taxon_text" style="" transform="rotate( 707.688631284939 1619.52380952381)" x="713" y="1623">V nikolskii 215262113</text>
    <polyline points="703,1595 703,1570 706,1570" style="stroke: black; stroke-width: 1" />
    <text class="taxon_text" style="" transform="rotate( 706.238407221315 1570.47619047619)" x="712" y="1574">V berus 215262115</text>
    <polyline points="670,1558 670,1595 703,1595" style="stroke: black; stroke-width: 1" />
    <text class="node_text" style="" transform="rotate( 703.524244781797 1595)" x="709" y="1599">1.00</text>
    <polyline points="670,1558 670,1521 700,1521" style="stroke: black; stroke-width: 1" />
    <text class="taxon_text" style="" transform="rotate( 700.095987205979 1521.42857142857)" x="706" y="1525">D russelii 190195320</text>
    <polyline points="633,1503 633,1558 670,1558" style="stroke: black; stroke-width: 1" />
    <text class="node_text" style="" transform="rotate( 670.50961354333 1558.21428571429)" x="676" y="1562">1.00</text>
    <polyline points="633,1503 633,1447 701,1447" style="stroke: black; stroke-width: 1" />
    <text class="node_text" style="" transform="rotate( 701.276798097563 1447.85714285714)" x="707" y="1451">1.00</text>
    <polyline points="595,1340 595,1503 633,1503" style="stroke: black; stroke-width: 1" />
    <text class="node_text" style="" transform="rotate( 633.554939855763 1503.03571428571)" x="639" y="1507">1.00</text>
    <polyline points="595,1340 595,1177 614,1177" style="stroke: black; stroke-width: 1" />
    <text class="node_text" style="" transform="rotate( 614.540779739809 1177.96750992063)" x="620" y="1181">1.00</text>
    <polyline points="775,1742 775,1815 778,1815" style="stroke: black; stroke-width: 1" />
    <text class="taxon_text" style="" transform="rotate( 778.916866907089 1815.71428571429)" x="784" y="1819">C rynchops 299791433</text>
    <polyline points="775,1742 775,1766 779,1766" style="stroke: black; stroke-width: 1" />
    <text class="taxon_text" style="" transform="rotate( 779.016018966688 1766.66666666667)" x="785" y="1770">C rynchops 299791437</text>
    <polyline points="775,1742 775,1717 779,1717" style="stroke: black; stroke-width: 1" />
    <text class="taxon_text" style="" transform="rotate( 779.019023574554 1717.61904761905)" x="785" y="1721">C rynchops 299791431</text>
    <polyline points="775,1742 775,1668 778,1668" style="stroke: black; stroke-width: 1" />
    <text class="taxon_text" style="" transform="rotate( 778.981966744199 1668.57142857143)" x="784" y="1672">C rynchops 299791435</text>
    <polyline points="760,1889 760,1913 762,1913" style="stroke: black; stroke-width: 1" />
    <text class="taxon_text" style="" transform="rotate( 762.570798576697 1913.80952380952)" x="768" y="1917">E polylepis 73346493</text>
    <polyline points="760,1889 760,1864 764,1864" style="stroke: black; stroke-width: 1" />
    <text class="taxon_text" style="" transform="rotate( 764.323486498895 1864.7619047619)" x="770" y="1868">E polylepis 73346538</text>
    <polyline points="742,1815 742,1889 760,1889" style="stroke: black; stroke-width: 1" />
    <text class="node_text" style="" transform="rotate( 760.95732415232 1889.28571428571)" x="766" y="1893">1.00</text>
    <polyline points="742,1815 742,1742 775,1742" style="stroke: black; stroke-width: 1" />
    <text class="node_text" style="" transform="rotate( 775.726974888689 1742.14285714286)" x="781" y="1746">1.00</text>
    <polyline points="726,1987 726,2011 733,2011" style="stroke: black; stroke-width: 1" />
    <text class="taxon_text" style="" transform="rotate( 733.58835109524 2011.90476190476)" x="739" y="2015">P olfersii 73346686</text>
    <polyline points="726,1987 726,1962 732,1962" style="stroke: black; stroke-width: 1" />
    <text class="taxon_text" style="" transform="rotate( 732.107079416994 1962.85714285714)" x="738" y="1966">P olfersii 114438253</text>
    <polyline points="675,2024 675,2060 798,2060" style="stroke: black; stroke-width: 1" />
    <text class="taxon_text" style="" transform="rotate( 798.419776569347 2060.95238095238)" x="804" y="2064">L poecilogyrus 73346604</text>
    <polyline points="675,2024 675,1987 726,1987" style="stroke: black; stroke-width: 1" />
    <text class="node_text" style="" transform="rotate( 726.916118559423 1987.38095238095)" x="732" y="1991">1.00</text>
    <polyline points="634,1919 634,2024 675,2024" style="stroke: black; stroke-width: 1" />
    <text class="node_text" style="" transform="rotate( 675.663517570546 2024.16666666667)" x="681" y="2028">1.00</text>
    <polyline points="634,1919 634,1815 742,1815" style="stroke: black; stroke-width: 1" />
    <text class="node_text" style="" transform="rotate( 742.170512698274 1815.71428571429)" x="748" y="1819">1.00</text>
    <polyline points="765,2134 765,2159 768,2159" style="stroke: black; stroke-width: 1" />
    <text class="taxon_text" style="" transform="rotate( 768.292573490706 2159.04761904762)" x="774" y="2163">R tigrinus 73346757</text>
    <polyline points="765,2134 765,2110 770,2110" style="stroke: black; stroke-width: 1" />
    <text class="taxon_text" style="" transform="rotate( 770.188481054545 2110)" x="776" y="2114">R tigrinus 21326193</text>
    <polyline points="622,2027 622,2134 765,2134" style="stroke: black; stroke-width: 1" />
    <text class="node_text" style="" transform="rotate( 765.017550916085 2134.52380952381)" x="771" y="2138">1.00</text>
    <polyline points="622,2027 622,1919 634,1919" style="stroke: black; stroke-width: 1" />
    <text class="node_text" style="" transform="rotate( 634.916027219344 1919.94047619048)" x="640" y="1923">0.89</text>
    <polyline points="734,2330 734,2355 735,2355" style="stroke: black; stroke-width: 1" />
    <text class="taxon_text" style="" transform="rotate( 735.988031244717 2355.2380952381)" x="741" y="2359">D typus 73346201</text>
    <polyline points="734,2330 734,2306 737,2306" style="stroke: black; stroke-width: 1" />
    <text class="taxon_text" style="" transform="rotate( 737.589487237628 2306.19047619048)" x="743" y="2310">D typus 73346093</text>
    <polyline points="721,2293 721,2330 734,2330" style="stroke: black; stroke-width: 1" />
    <text class="node_text" style="" transform="rotate( 734.280412440519 2330.71428571429)" x="740" y="2334">1.00</text>
    <polyline points="721,2293 721,2257 733,2257" style="stroke: black; stroke-width: 1" />
    <text class="taxon_text" style="" transform="rotate( 733.57032344804 2257.14285714286)" x="739" y="2261">D typus 73346335</text>
    <polyline points="669,2349 669,2404 721,2404" style="stroke: black; stroke-width: 1" />
    <text class="taxon_text" style="" transform="rotate( 721.699117767008 2404.28571428571)" x="727" y="2408">T dhara 73346842</text>
    <polyline points="669,2349 669,2293 721,2293" style="stroke: black; stroke-width: 1" />
    <text class="node_text" style="" transform="rotate( 721.172309854393 2293.92857142857)" x="727" y="2297">1.00</text>
    <polyline points="645,2278 645,2349 669,2349" style="stroke: black; stroke-width: 1" />
    <text class="node_text" style="" transform="rotate( 669.402916312457 2349.10714285714)" x="675" y="2353">1.00</text>
    <polyline points="645,2278 645,2208 691,2208" style="stroke: black; stroke-width: 1" />
    <text class="taxon_text" style="" transform="rotate( 691.712129722142 2208.09523809524)" x="697" y="2212">T biscutatus 73346950</text>
    <polyline points="608,2152 608,2278 645,2278" style="stroke: black; stroke-width: 1" />
    <text class="node_text" style="" transform="rotate( 645.579380537993 2278.60119047619)" x="651" y="2282">1.00</text>
    <polyline points="608,2152 608,2027 622,2027" style="stroke: black; stroke-width: 1" />
    <text class="node_text" style="" transform="rotate( 622.960692518046 2027.23214285714)" x="628" y="2031">0.93</text>
    <polyline points="679,2477 679,2502 684,2502" style="stroke: black; stroke-width: 1" />
    <text class="taxon_text" style="" transform="rotate( 684.008315152117 2502.38095238095)" x="690" y="2506">O hannah 28972960</text>
    <polyline points="679,2477 679,2453 681,2453" style="stroke: black; stroke-width: 1" />
    <text class="taxon_text" style="" transform="rotate( 681.037759507982 2453.33333333333)" x="687" y="2457">O hannah 32423811</text>
    <polyline points="675,2514 675,2551 677,2551" style="stroke: black; stroke-width: 1" />
    <text class="taxon_text" style="" transform="rotate( 677.330073400567 2551.42857142857)" x="683" y="2555">Oh CRISP g2 VG</text>
    <polyline points="675,2514 675,2477 679,2477" style="stroke: black; stroke-width: 1" />
    <text class="node_text" style="" transform="rotate( 679.296088481295 2477.85714285714)" x="685" y="2481">0.92</text>
    <polyline points="716,2625 716,2649 720,2649" style="stroke: black; stroke-width: 1" />
    <text class="taxon_text" style="" transform="rotate( 720.551357561957 2649.52380952381)" x="726" y="2653">N atra 32492058</text>
    <polyline points="716,2625 716,2600 721,2600" style="stroke: black; stroke-width: 1" />
    <text class="taxon_text" style="" transform="rotate( 721.714140806341 2600.47619047619)" x="727" y="2604">N kaouthia 197726028</text>
    <polyline points="652,2569 652,2625 716,2625" style="stroke: black; stroke-width: 1" />
    <text class="node_text" style="" transform="rotate( 716.268789816062 2625)" x="722" y="2629">1.00</text>
    <polyline points="652,2569 652,2514 675,2514" style="stroke: black; stroke-width: 1" />
    <text class="node_text" style="" transform="rotate( 675.085631324199 2514.64285714286)" x="681" y="2518">1.00</text>
    <polyline points="595,2473 595,2698 691,2698" style="stroke: black; stroke-width: 1" />
    <text class="taxon_text" style="" transform="rotate( 691.342562954547 2698.57142857143)" x="697" y="2702">L madagascariensis 73346569</text>
    <polyline points="595,2473 595,2569 652,2569" style="stroke: black; stroke-width: 1" />
    <text class="node_text" style="" transform="rotate( 652.082353497324 2569.82142857143)" x="658" y="2573">1.00</text>
    <polyline points="595,2473 595,2152 608,2152" style="stroke: black; stroke-width: 1" />
    <text class="node_text" style="" transform="rotate( 608.498513320028 2152.91666666667)" x="614" y="2156">0.98</text>
    <polyline points="545,1907 545,2473 595,2473" style="stroke: black; stroke-width: 1" />
    <text class="node_text" style="" transform="rotate( 595.102969914661 2473.76984126984)" x="601" y="2477">1.00</text>
    <polyline points="545,1907 545,1340 595,1340" style="stroke: black; stroke-width: 1" />
    <text class="node_text" style="" transform="rotate( 595.955277012827 1340.50161210317)" x="601" y="1344">1.00</text>
    <polyline points="703,2821 703,2845 746,2845" style="stroke: black; stroke-width: 1" />
    <text class="taxon_text" style="" transform="rotate( 746.669412210566 2845.71428571429)" x="752" y="2849">L hardwickii 18000317</text>
    <polyline points="703,2821 703,2796 718,2796" style="stroke: black; stroke-width: 1" />
    <text class="taxon_text" style="" transform="rotate( 718.497207317142 2796.66666666667)" x="724" y="2800">D coronoides 238928309</text>
    <polyline points="694,2857 694,2894 701,2894" style="stroke: black; stroke-width: 1" />
    <text class="taxon_text" style="" transform="rotate( 701.406997771783 2894.76190476191)" x="707" y="2898">A superbus 158262801</text>
    <polyline points="694,2857 694,2821 703,2821" style="stroke: black; stroke-width: 1" />
    <text class="node_text" style="" transform="rotate( 703.641424488596 2821.19047619048)" x="709" y="2825">0.84</text>
    <polyline points="703,3017 703,3041 706,3041" style="stroke: black; stroke-width: 1" />
    <text class="taxon_text" style="" transform="rotate( 706.143261305538 3041.90476190476)" x="712" y="3045">T carinatus 118151769</text>
    <polyline points="703,3017 703,2992 712,2992" style="stroke: black; stroke-width: 1" />
    <text class="taxon_text" style="" transform="rotate( 712.263647529852 2992.85714285714)" x="718" y="2996">N scutatus 71725673</text>
    <polyline points="697,2980 697,3017 703,3017" style="stroke: black; stroke-width: 1" />
    <text class="node_text" style="" transform="rotate( 703.433105009843 3017.38095238095)" x="709" y="3021">0.83</text>
    <polyline points="697,2980 697,2943 706,2943" style="stroke: black; stroke-width: 1" />
    <text class="taxon_text" style="" transform="rotate( 706.21036421456 2943.80952380952)" x="712" y="2947">H stephensii 71725675</text>
    <polyline points="718,3115 718,3140 723,3140" style="stroke: black; stroke-width: 1" />
    <text class="taxon_text" style="" transform="rotate( 723.168371013787 3140)" x="729" y="3144">O microlepidotus 71725669</text>
    <polyline points="718,3115 718,3090 740,3090" style="stroke: black; stroke-width: 1" />
    <text class="taxon_text" style="" transform="rotate( 740.780380791983 3090.95238095238)" x="746" y="3094">P textilis 71725671</text>
    <polyline points="719,3213 719,3238 722,3238" style="stroke: black; stroke-width: 1" />
    <text class="taxon_text" style="" transform="rotate( 722.79479810237 3238.09523809524)" x="728" y="3242">O microlepidotus 73346655</text>
    <polyline points="719,3213 719,3189 722,3189" style="stroke: black; stroke-width: 1" />
    <text class="taxon_text" style="" transform="rotate( 722.640561565217 3189.04761904762)" x="728" y="3193">O scutellatus 71725667</text>
    <polyline points="714,3164 714,3213 719,3213" style="stroke: black; stroke-width: 1" />
    <text class="node_text" style="" transform="rotate( 719.338497519797 3213.57142857143)" x="725" y="3217">0.99</text>
    <polyline points="714,3164 714,3115 718,3115" style="stroke: black; stroke-width: 1" />
    <text class="node_text" style="" transform="rotate( 718.562307154252 3115.47619047619)" x="724" y="3119">0.97</text>
    <polyline points="687,3072 687,3287 704,3287" style="stroke: black; stroke-width: 1" />
    <text class="taxon_text" style="" transform="rotate( 704.665995771115 3287.14285714286)" x="710" y="3291">R nigrescens 118151771</text>
    <polyline points="687,3072 687,3164 714,3164" style="stroke: black; stroke-width: 1" />
    <text class="node_text" style="" transform="rotate( 714.346842317378 3164.52380952381)" x="720" y="3168">1.00</text>
    <polyline points="687,3072 687,2980 697,2980" style="stroke: black; stroke-width: 1" />
    <text class="node_text" style="" transform="rotate( 697.278666563041 2980.59523809524)" x="703" y="2984">1.00</text>
    <polyline points="687,3072 687,2857 694,2857" style="stroke: black; stroke-width: 1" />
    <text class="node_text" style="" transform="rotate( 694.416276802104 2857.97619047619)" x="700" y="2861">0.85</text>
    <polyline points="704,3360 704,3385 722,3385" style="stroke: black; stroke-width: 1" />
    <text class="taxon_text" style="" transform="rotate( 722.731701337171 3385.2380952381)" x="728" y="3389">P australis 23264041</text>
    <polyline points="704,3360 704,3336 715,3336" style="stroke: black; stroke-width: 1" />
    <text class="taxon_text" style="" transform="rotate( 715.702922001181 3336.19047619048)" x="721" y="3340">P porphyriacus 23264043</text>
    <polyline points="677,3216 677,3360 704,3360" style="stroke: black; stroke-width: 1" />
    <text class="node_text" style="" transform="rotate( 704.555826816005 3360.71428571429)" x="710" y="3364">1.00</text>
    <polyline points="677,3216 677,3072 687,3072" style="stroke: black; stroke-width: 1" />
    <text class="node_text" style="" transform="rotate( 687.20421638625 3072.55952380952)" x="693" y="3076">0.97</text>
    <polyline points="651,3325 651,3434 742,3434" style="stroke: black; stroke-width: 1" />
    <text class="taxon_text" style="" transform="rotate( 742.866580187375 3434.28571428571)" x="748" y="3438">D vestigiata 118151717</text>
    <polyline points="651,3325 651,3216 677,3216" style="stroke: black; stroke-width: 1" />
    <text class="node_text" style="" transform="rotate( 677.673600233318 3216.63690476191)" x="683" y="3220">1.00</text>
    <polyline points="638,3507 638,3532 822,3532" style="stroke: black; stroke-width: 1" />
    <text class="taxon_text" style="" transform="rotate( 822.934372153134 3532.38095238095)" x="828" y="3536">Oh CRISP g3 fragments VG AG</text>
    <polyline points="638,3507 638,3483 641,3483" style="stroke: black; stroke-width: 1" />
    <text class="taxon_text" style="" transform="rotate( 641.656364200138 3483.33333333333)" x="647" y="3487">O hannah 225547743</text>
    <polyline points="620,3416 620,3507 638,3507" style="stroke: black; stroke-width: 1" />
    <text class="node_text" style="" transform="rotate( 638.685808556002 3507.85714285714)" x="644" y="3511">1.00</text>
    <polyline points="620,3416 620,3325 651,3325" style="stroke: black; stroke-width: 1" />
    <text class="node_text" style="" transform="rotate( 651.545530225153 3325.46130952381)" x="657" y="3329">1.00</text>
    <polyline points="614,3499 614,3581 616,3581" style="stroke: black; stroke-width: 1" />
    <text class="taxon_text" style="" transform="rotate( 616.265424655251 3581.42857142857)" x="622" y="3585">Oh CRISP g1 VG AG maybe PT</text>
    <polyline points="614,3499 614,3416 620,3416" style="stroke: black; stroke-width: 1" />
    <text class="node_text" style="" transform="rotate( 620.548993937102 3416.65922619048)" x="626" y="3420">0.65</text>
    <polyline points="650,3655 650,3679 654,3679" style="stroke: black; stroke-width: 1" />
    <text class="taxon_text" style="" transform="rotate( 654.139508350006 3679.52380952381)" x="660" y="3683">B candidus 190195342</text>
    <polyline points="650,3655 650,3630 652,3630" style="stroke: black; stroke-width: 1" />
    <text class="taxon_text" style="" transform="rotate( 652.292676047987 3630.47619047619)" x="658" y="3634">B candidus 190195340</text>
    <polyline points="640,3753 640,3777 647,3777" style="stroke: black; stroke-width: 1" />
    <text class="taxon_text" style="" transform="rotate( 647.345088427613 3777.61904761905)" x="653" y="3781">N atra 30172002</text>
    <polyline points="640,3753 640,3728 642,3728" style="stroke: black; stroke-width: 1" />
    <text class="taxon_text" style="" transform="rotate( 642.700966201767 3728.57142857143)" x="648" y="3732">N kaouthia 197726030</text>
    <polyline points="605,3635 605,3753 640,3753" style="stroke: black; stroke-width: 1" />
    <text class="node_text" style="" transform="rotate( 640.808063245794 3753.09523809524)" x="646" y="3757">1.00</text>
    <polyline points="605,3635 605,3655 650,3655" style="stroke: black; stroke-width: 1" />
    <text class="node_text" style="" transform="rotate( 650.782359827031 3655)" x="656" y="3659">1.00</text>
    <polyline points="605,3635 605,3499 614,3499" style="stroke: black; stroke-width: 1" />
    <text class="node_text" style="" transform="rotate( 614.470672222921 3499.04389880952)" x="620" y="3503">0.99</text>
    <polyline points="592,3731 592,3826 618,3826" style="stroke: black; stroke-width: 1" />
    <text class="taxon_text" style="" transform="rotate( 618.074198590959 3826.66666666667)" x="624" y="3830">L semifasciata 21305554</text>
    <polyline points="592,3731 592,3635 605,3635" style="stroke: black; stroke-width: 1" />
    <text class="node_text" style="" transform="rotate( 605.697217252378 3635.71304563492)" x="611" y="3639">0.98</text>
    <polyline points="514,3239 514,3731 592,3731" style="stroke: black; stroke-width: 1" />
    <text class="node_text" style="" transform="rotate( 592.111382015459 3731.18985615079)" x="598" y="3735">1.00</text>
    <polyline points="514,3239 514,2747 579,2747" style="stroke: black; stroke-width: 1" />
    <text class="taxon_text" style="" transform="rotate( 579.713368421812 2747.61904761905)" x="585" y="2751">T gracilis 190195326</text>
    <polyline points="460,2573 460,3239 514,3239" style="stroke: black; stroke-width: 1" />
    <text class="node_text" style="" transform="rotate( 514.450280950866 3239.40445188492)" x="520" y="3243">1.00</text>
    <polyline points="460,2573 460,1907 545,1907" style="stroke: black; stroke-width: 1" />
    <text class="node_text" style="" transform="rotate( 545.739265737936 1907.13572668651)" x="551" y="1911">1.00</text>
    <polyline points="220,1336 220,2573 460,2573" style="stroke: black; stroke-width: 1" />
    <text class="node_text" style="" transform="rotate( 460.263179612253 2573.27008928571)" x="466" y="2577">1.00</text>
    <polyline points="220,1336 220,99 708,99" style="stroke: black; stroke-width: 1" />
    <text class="taxon_text" style="" transform="rotate( 708.875451392255 99.0476190476191)" x="714" y="103">A carolinensis 327260873</text>
    <polyline points="599,3998 599,4022 867,4022" style="stroke: black; stroke-width: 1" />
    <text class="taxon_text" style="" transform="rotate( 867.149179982421 4022.85714285714)" x="873" y="4026">C warreni 300872848</text>
    <polyline points="599,3998 599,3973 675,3973" style="stroke: black; stroke-width: 1" />
    <text class="taxon_text" style="" transform="rotate( 675.92992613472 3973.80952380952)" x="681" y="3977">O apodus 300872826</text>
    <polyline points="557,3961 557,3998 599,3998" style="stroke: black; stroke-width: 1" />
    <text class="node_text" style="" transform="rotate( 599.696013806774 3998.33333333333)" x="605" y="4002">0.61</text>
    <polyline points="557,3961 557,3924 672,3924" style="stroke: black; stroke-width: 1" />
    <text class="taxon_text" style="" transform="rotate( 672.682946566855 3924.76190476191)" x="678" y="3928">G infernalis 300872846</text>
    <polyline points="888,4096 888,4120 904,4120" style="stroke: black; stroke-width: 1" />
    <text class="taxon_text" style="" transform="rotate( 904.453389718473 4120.95238095238)" x="910" y="4124">V scalaris 300872844</text>
    <polyline points="888,4096 888,4071 903,4071" style="stroke: black; stroke-width: 1" />
    <text class="taxon_text" style="" transform="rotate( 903.934594093502 4071.90476190476)" x="909" y="4075">V tristis 300872838</text>
    <polyline points="870,4133 870,4170 886,4170" style="stroke: black; stroke-width: 1" />
    <text class="taxon_text" style="" transform="rotate( 886.720194089656 4170)" x="892" y="4174">V gilleni 300872836</text>
    <polyline points="870,4133 870,4096 888,4096" style="stroke: black; stroke-width: 1" />
    <text class="node_text" style="" transform="rotate( 888.793373517627 4096.42857142857)" x="894" y="4100">1.00</text>
    <polyline points="906,4292 906,4317 909,4317" style="stroke: black; stroke-width: 1" />
    <text class="taxon_text" style="" transform="rotate( 909.037419786986 4317.14285714286)" x="915" y="4321">V acanthurus 73346056</text>
    <polyline points="906,4292 906,4268 910,4268" style="stroke: black; stroke-width: 1" />
    <text class="taxon_text" style="" transform="rotate( 910.948350390159 4268.09523809524)" x="916" y="4272">V acanthurus 73345909</text>
    <polyline points="897,4255 897,4292 906,4292" style="stroke: black; stroke-width: 1" />
    <text class="node_text" style="" transform="rotate( 906.399374080089 4292.61904761905)" x="912" y="4296">1.00</text>
    <polyline points="897,4255 897,4219 902,4219" style="stroke: black; stroke-width: 1" />
    <text class="taxon_text" style="" transform="rotate( 902.546465259122 4219.04761904762)" x="908" y="4223">V acanthurus 73345968</text>
    <polyline points="860,4194 860,4255 897,4255" style="stroke: black; stroke-width: 1" />
    <text class="node_text" style="" transform="rotate( 897.656966724168 4255.83333333333)" x="903" y="4259">1.00</text>
    <polyline points="860,4194 860,4133 870,4133" style="stroke: black; stroke-width: 1" />
    <text class="node_text" style="" transform="rotate( 870.490303930107 4133.21428571429)" x="876" y="4137">0.99</text>
    <polyline points="866,4390 866,4415 874,4415" style="stroke: black; stroke-width: 1" />
    <text class="taxon_text" style="" transform="rotate( 874.22302843641 4415.2380952381)" x="880" y="4419">V gouldii 300872832</text>
    <polyline points="866,4390 866,4366 873,4366" style="stroke: black; stroke-width: 1" />
    <text class="taxon_text" style="" transform="rotate( 873.707237419306 4366.19047619048)" x="879" y="4370">V panoptes 300872830</text>
    <polyline points="856,4427 856,4464 859,4464" style="stroke: black; stroke-width: 1" />
    <text class="taxon_text" style="" transform="rotate( 859.429340837108 4464.28571428571)" x="865" y="4468">V mertensi 300872828</text>
    <polyline points="856,4427 856,4390 866,4390" style="stroke: black; stroke-width: 1" />
    <text class="node_text" style="" transform="rotate( 866.112590268436 4390.71428571429)" x="872" y="4394">1.00</text>
    <polyline points="850,4470 850,4513 856,4513" style="stroke: black; stroke-width: 1" />
    <text class="taxon_text" style="" transform="rotate( 856.615024802037 4513.33333333333)" x="862" y="4517">V komodoensis 166798235</text>
    <polyline points="850,4470 850,4427 856,4427" style="stroke: black; stroke-width: 1" />
    <text class="node_text" style="" transform="rotate( 856.305550191774 4427.5)" x="862" y="4431">1.00</text>
    <polyline points="857,4586 857,4611 862,4611" style="stroke: black; stroke-width: 1" />
    <text class="taxon_text" style="" transform="rotate( 862.666305045418 4611.42857142857)" x="868" y="4615">V varius 73347165</text>
    <polyline points="857,4586 857,4562 869,4562" style="stroke: black; stroke-width: 1" />
    <text class="taxon_text" style="" transform="rotate( 869.365579052034 4562.38095238095)" x="875" y="4566">V varius 73347112</text>
    <polyline points="844,4528 844,4586 857,4586" style="stroke: black; stroke-width: 1" />
    <text class="node_text" style="" transform="rotate( 857.024653007853 4586.90476190476)" x="863" y="4590">0.93</text>
    <polyline points="844,4528 844,4470 850,4470" style="stroke: black; stroke-width: 1" />
    <text class="node_text" style="" transform="rotate( 850.022915142663 4470.41666666667)" x="856" y="4474">0.95</text>
    <polyline points="826,4361 826,4528 844,4528" style="stroke: black; stroke-width: 1" />
    <text class="node_text" style="" transform="rotate( 844.93110634469 4528.66071428571)" x="850" y="4532">0.91</text>
    <polyline points="826,4361 826,4194 860,4194" style="stroke: black; stroke-width: 1" />
    <text class="node_text" style="" transform="rotate( 860.586114865758 4194.52380952381)" x="866" y="4198">1.00</text>
    <polyline points="667,4685 667,4709 672,4709" style="stroke: black; stroke-width: 1" />
    <text class="taxon_text" style="" transform="rotate( 672.411530322903 4709.52380952381)" x="678" y="4713">H horridum 1101004</text>
    <polyline points="667,4685 667,4660 682,4660" style="stroke: black; stroke-width: 1" />
    <text class="taxon_text" style="" transform="rotate( 682.085366117478 4660.47619047619)" x="688" y="4664">H suspectum 190700978</text>
    <polyline points="522,4523 522,4685 667,4685" style="stroke: black; stroke-width: 1" />
    <text class="node_text" style="" transform="rotate( 667.547070186839 4685)" x="673" y="4689">1.00</text>
    <polyline points="522,4523 522,4361 826,4361" style="stroke: black; stroke-width: 1" />
    <text class="node_text" style="" transform="rotate( 826.1723378974 4361.59226190476)" x="832" y="4365">1.00</text>
    <polyline points="495,4242 495,4523 522,4523" style="stroke: black; stroke-width: 1" />
    <text class="node_text" style="" transform="rotate( 522.079981860181 4523.29613095238)" x="528" y="4527">0.61</text>
    <polyline points="495,4242 495,3961 557,3961" style="stroke: black; stroke-width: 1" />
    <text class="node_text" style="" transform="rotate( 557.627497530212 3961.54761904762)" x="563" y="3965">0.95</text>
    <polyline points="338,4059 338,4242 495,4242" style="stroke: black; stroke-width: 1" />
    <text class="node_text" style="" transform="rotate( 495.723561654153 4242.421875)" x="501" y="4246">1.00</text>
    <polyline points="338,4059 338,3875 671,3875" style="stroke: black; stroke-width: 1" />
    <text class="taxon_text" style="" transform="rotate( 671.872703978822 3875.71428571429)" x="677" y="3879">A carolinensis 327260843</text>
    <polyline points="118,2697 118,4059 338,4059" style="stroke: black; stroke-width: 1" />
    <text class="node_text" style="" transform="rotate( 338.475405882461 4059.06808035714)" x="344" y="4063">1.00</text>
    <polyline points="118,2697 118,1336 220,1336" style="stroke: black; stroke-width: 1" />
    <text class="node_text" style="" transform="rotate( 220.167969598176 1336.15885416667)" x="226" y="1340">1.00</text>
    <polyline points="688,4783 688,4807 1064,4807" style="stroke: black; stroke-width: 1" />
    <text class="taxon_text" style="" transform="rotate( 1064.88943443665 4807.61904761905)" x="1070" y="4811">A carolinensis 327261110</text>
    <polyline points="688,4783 688,4758 1300,4758" style="stroke: black; stroke-width: 1" />
    <text class="taxon_text" style="" transform="rotate( 1300 4758.57142857143)" x="1306" y="4762">A carolinensis 327261201</text>
    <polyline points="539,4819 539,4856 1024,4856" style="stroke: black; stroke-width: 1" />
    <text class="taxon_text" style="" transform="rotate( 1024.38932346647 4856.66666666667)" x="1030" y="4860">A carolinensis 327261112</text>
    <polyline points="539,4819 539,4783 688,4783" style="stroke: black; stroke-width: 1" />
    <text class="node_text" style="" transform="rotate( 688.339958159834 4783.09523809524)" x="694" y="4787">0.99</text>
    <polyline points="687,5003 687,5052 830,5052" style="stroke: black; stroke-width: 1" />
    <text class="taxon_text" style="" transform="rotate( 830.398819629784 5052.85714285714)" x="836" y="5056">P abelii 297678315</text>
    <polyline points="687,5003 687,5003 906,5003" style="stroke: black; stroke-width: 1" />
    <text class="taxon_text" style="" transform="rotate( 906.080885646227 5003.80952380952)" x="912" y="5007">A melanoleuca 301759252</text>
    <polyline points="687,5003 687,4954 906,4954" style="stroke: black; stroke-width: 1" />
    <text class="taxon_text" style="" transform="rotate( 906.655767284708 4954.76190476191)" x="912" y="4958">O cuniculus 291396348</text>
    <polyline points="348,4954 348,5003 687,5003" style="stroke: black; stroke-width: 1" />
    <text class="node_text" style="" transform="rotate( 687.754059625842 5003.80952380952)" x="693" y="5007">1.00</text>
    <polyline points="348,4954 348,4905 882,4905" style="stroke: black; stroke-width: 1" />
    <text class="taxon_text" style="" transform="rotate( 882.532772259537 4905.71428571429)" x="888" y="4909">A carolinensis 327260875</text>
    <polyline points="222,4887 222,4954 348,4954" style="stroke: black; stroke-width: 1" />
    <text class="node_text" style="" transform="rotate( 348.671041909873 4954.76190476191)" x="354" y="4958">0.98</text>
    <polyline points="222,4887 222,4819 539,4819" style="stroke: black; stroke-width: 1" />
    <text class="node_text" style="" transform="rotate( 539.066031666163 4819.88095238095)" x="545" y="4823">1.00</text>
    <polyline points="383,5126 383,5150 417,5150" style="stroke: black; stroke-width: 1" />
    <text class="taxon_text" style="" transform="rotate( 417.87617490183 5150.95238095238)" x="423" y="5154">G gallus 363732579</text>
    <polyline points="383,5126 383,5101 426,5101" style="stroke: black; stroke-width: 1" />
    <text class="taxon_text" style="" transform="rotate( 426.82990634437 5101.90476190476)" x="432" y="5105">M gallopavo 326916800</text>
    <polyline points="135,5006 135,5126 383,5126" style="stroke: black; stroke-width: 1" />
    <text class="node_text" style="" transform="rotate( 383.39529502445 5126.42857142857)" x="389" y="5130">1.00</text>
    <polyline points="135,5006 135,4887 222,4887" style="stroke: black; stroke-width: 1" />
    <text class="node_text" style="" transform="rotate( 222.748927755606 4887.32142857143)" x="228" y="4891">0.53</text>
    <polyline points="50,2584 50,5006 135,5006" style="stroke: black; stroke-width: 1" />
    <text class="node_text" style="" transform="rotate( 135.818611422478 5006.875)" x="141" y="5010">0.54</text>
    <polyline points="50,2584 50,2697 118,2697" style="stroke: black; stroke-width: 1" />
    <text class="node_text" style="" transform="rotate( 118.400899619657 2697.61346726191)" x="124" y="2701">0.66</text>
    <polyline points="50,2584 50,50 1037,50" style="stroke: black; stroke-width: 1" />
    <text class="taxon_text" style="" transform="rotate( 1037.57654739308 50)" x="1043" y="54">X tropicalis 301608116</text>
</svg>